<svg width="24" height="24" viewBox="0 0 24 24" fill="none" xmlns="http://www.w3.org/2000/svg">
<path fill-rule="evenodd" clip-rule="evenodd" d="M12 1.10052C12.5523 1.10052 13 1.54824 13 2.10052L13 21.8995C13 22.4518 12.5523 22.8995 12 22.8995C11.4477 22.8995 11 22.4518 11 21.8995V2.10052C11 1.54824 11.4477 1.10052 12 1.10052Z" fill="black"/>
<path fill-rule="evenodd" clip-rule="evenodd" d="M1.10051 12C1.10051 11.4477 1.54822 11 2.10051 11H21.8995C22.4518 11 22.8995 11.4477 22.8995 12C22.8995 12.5523 22.4518 13 21.8995 13L2.10051 13C1.54822 13 1.10051 12.5523 1.10051 12Z" fill="black"/>
</svg>
