<svg width="24" height="24" viewBox="0 0 24 24" fill="none" xmlns="http://www.w3.org/2000/svg">
<path fill-rule="evenodd" clip-rule="evenodd" d="M12 21C16.9706 21 21 16.9706 21 12C21 7.02944 16.9706 3 12 3C7.02944 3 3 7.02944 3 12C3 16.9706 7.02944 21 12 21ZM7.79289 14.7929C7.40237 15.1834 7.40237 15.8166 7.79289 16.2071C8.18342 16.5976 8.81658 16.5976 9.20711 16.2071L12 13.4142L14.7929 16.2071C15.1834 16.5976 15.8166 16.5976 16.2071 16.2071C16.5976 15.8166 16.5976 15.1834 16.2071 14.7929L13.4142 12L16.2071 9.20711C16.5976 8.81658 16.5976 8.18342 16.2071 7.79289C15.8166 7.40237 15.1834 7.40237 14.7929 7.79289L12 10.5858L9.20711 7.79289C8.81658 7.40237 8.18342 7.40237 7.79289 7.79289C7.40237 8.18342 7.40237 8.81658 7.79289 9.20711L10.5858 12L7.79289 14.7929Z" fill="black"/>
</svg>
