<svg width="214" height="216" viewBox="0 0 214 216" fill="none" xmlns="http://www.w3.org/2000/svg">
<path fill-rule="evenodd" clip-rule="evenodd" d="M175.591 143.795C170.036 145.149 164.231 145.867 158.259 145.867C117.979 145.867 85.3251 113.214 85.3251 72.9336C85.3251 32.6535 117.979 0 158.259 0C191.402 0 219.383 22.1081 228.257 52.3819C233.812 51.0278 239.617 50.3099 245.589 50.3099C285.869 50.3099 318.523 82.9634 318.523 123.243C318.523 163.524 285.869 196.177 245.589 196.177C212.445 196.177 184.465 174.069 175.591 143.795Z" fill="#DAE8FF"/>
<path fill-rule="evenodd" clip-rule="evenodd" d="M175.591 143.795C170.036 145.149 164.231 145.867 158.259 145.867C117.979 145.867 85.3251 113.214 85.3251 72.9336C85.3251 32.6535 117.979 0 158.259 0C191.402 0 219.383 22.1081 228.257 52.3819C233.812 51.0278 239.617 50.3099 245.589 50.3099C285.869 50.3099 318.523 82.9634 318.523 123.243C318.523 163.524 285.869 196.177 245.589 196.177C212.445 196.177 184.465 174.069 175.591 143.795Z" fill="url(#paint0_linear_949_618)" fill-opacity="0.2"/>
<circle cx="130.5" cy="97.5" r="55.5" fill="#FFC700"/>
<circle cx="130.5" cy="97.5" r="55.5" fill="url(#paint1_linear_949_618)" fill-opacity="0.5"/>
<path fill-rule="evenodd" clip-rule="evenodd" d="M128.816 194.691C141.542 194.691 153.237 190.276 162.453 182.894C170.279 193.845 183.098 200.984 197.583 200.984C207.78 200.984 217.15 197.447 224.535 191.533C232.62 197.474 242.604 200.984 253.407 200.984C280.365 200.984 302.218 179.13 302.218 152.172C302.218 125.214 280.365 103.36 253.407 103.36C239.059 103.36 226.157 109.551 217.226 119.407C211.334 116.389 204.658 114.687 197.583 114.687C190.602 114.687 184.008 116.345 178.173 119.289C169.86 100.282 150.889 87 128.816 87C108.392 87 90.6235 98.3713 81.497 115.128C73.4146 110.282 63.9555 107.495 53.8455 107.495C24.1075 107.495 0 131.603 0 161.341C0 191.079 24.1075 215.187 53.8455 215.187C74.2696 215.187 92.0378 203.815 101.164 187.058C109.247 191.905 118.706 194.691 128.816 194.691Z" fill="#F2F7FF"/>
<rect x="50" y="153" width="186" height="62" fill="#F2F7FF"/>
<defs>
<linearGradient id="paint0_linear_949_618" x1="201.924" y1="0" x2="201.924" y2="196.177" gradientUnits="userSpaceOnUse">
<stop stop-color="white"/>
<stop offset="1" stop-color="#00C2FF"/>
</linearGradient>
<linearGradient id="paint1_linear_949_618" x1="130.5" y1="42" x2="130.5" y2="153" gradientUnits="userSpaceOnUse">
<stop stop-color="white"/>
<stop offset="1" stop-color="#FFC700"/>
</linearGradient>
</defs>
</svg>
