<svg width="24" height="24" viewBox="0 0 24 24" fill="none" xmlns="http://www.w3.org/2000/svg">
<path fill-rule="evenodd" clip-rule="evenodd" d="M12.7771 3.07937C14.1615 2.15707 14.265 3.98325 15.624 2.8415V4.70451C14.3286 5.82938 14.0486 4.0124 12.7771 4.9347V3.07937ZM12.1549 8.25098H12.3968C12.4413 8.25098 12.4763 8.28628 12.4763 8.32771V9.22392H13.3245C13.3691 9.22392 13.4041 9.25922 13.4041 9.30065V9.53391C13.4041 9.57688 13.3675 9.61064 13.3245 9.61064H12.0737V8.32618C12.0737 8.28628 12.1103 8.25098 12.1549 8.25098ZM12.4286 7.20131C13.5186 7.20131 14.4018 8.05302 14.4018 9.10422C14.4018 10.1554 13.5186 11.0071 12.4286 11.0071C11.3385 11.0071 10.4553 10.1554 10.4553 9.10422C10.4553 8.05455 11.3385 7.20131 12.4286 7.20131ZM12.6991 13.5807V19.7605H14.6485V13.5807H12.6991ZM12.1581 19.7605V13.5807H10.2087V19.7605H12.1581ZM19.2984 21.4241C20.0015 21.424 20.5714 20.8744 20.5714 20.1963V11.7576C20.5714 11.0795 20.0015 10.5299 19.2984 10.5299H16.2812V8.22661C16.2812 8.01796 16.1713 7.8236 15.9894 7.7106L12.5813 5.59305V3.0456H12.5686C12.6466 3.00264 12.6975 2.91977 12.6975 2.82616C12.6975 2.68497 12.5798 2.57141 12.4334 2.57141C12.287 2.57141 12.1692 2.68497 12.1692 2.82616C12.1692 2.91977 12.2217 3.0011 12.2981 3.0456H12.2854V5.58844L8.86936 7.7106C8.68746 7.8236 8.57755 8.01797 8.57755 8.22663V10.5299H5.43626C4.80083 10.5299 4.28572 11.0266 4.28572 11.6394V20.201C4.28572 20.879 4.85569 21.4286 5.55879 21.4286C10.1393 21.428 14.7179 21.4247 19.2984 21.4241ZM6.0346 13.5807H8.18131V14.3863H6.0346V13.5807ZM16.6743 13.5807H18.821V14.3863H16.6743V13.5807ZM6.0346 15.3593H8.18131V16.1649H6.0346V15.3593ZM16.6743 15.3593H18.821V16.1649H16.6743V15.3593ZM6.0346 17.1379H8.18131V17.9435H6.0346V17.1379ZM16.6743 17.1379H18.821V17.9435H16.6743V17.1379ZM6.0346 18.9165H8.18131V19.7222H6.0346V18.9165ZM16.6743 18.9165H18.821V19.7222H16.6743V18.9165Z" fill="black"/>
</svg>
