<svg width="24" height="24" viewBox="0 0 24 24" fill="none" xmlns="http://www.w3.org/2000/svg">
<path d="M10.0866 6.14841L10.8442 6.08254L10.9832 5.3349L11.0908 4.75579C11.1722 4.31772 11.5544 4 12 4C12.4456 4 12.8278 4.31773 12.9092 4.75579L13.0168 5.3349L13.1558 6.08254L13.9134 6.14841L14.7049 6.21724C16.0875 6.33747 17.202 7.394 17.4 8.76247V14.8103C17.4 15.1219 17.5212 15.4213 17.738 15.6451L17.738 15.6451L18.2158 16.1385C18.7063 16.645 18.9859 17.3182 18.9995 18.0217H14.4376C13.8645 18.0217 13.4 18.4863 13.4 19.0593V19.1C13.4 19.8732 12.7732 20.5 12 20.5C11.2268 20.5 10.6 19.8732 10.6 19.1V19.0593C10.6 18.4863 10.1355 18.0217 9.56245 18.0217H5.60947C5.27287 18.0217 5 17.7489 5 17.4123C5 17.1147 5.11574 16.8288 5.32275 16.615L6.26203 15.6451L6.26204 15.6451C6.4788 15.4213 6.6 15.1219 6.6 14.8103V8.76247C6.79803 7.394 7.91255 6.33747 9.29511 6.21724L10.0866 6.14841Z" fill="black" stroke="black" stroke-width="2"/>
</svg>
