<svg width="152" height="152" viewBox="0 0 152 152" fill="none" xmlns="http://www.w3.org/2000/svg">
<path d="M75.9947 142.489C120.333 142.489 142.489 112.719 142.489 75.9947C142.489 39.2707 120.333 9.5 75.9947 9.5C31.6561 9.5 9.5 39.2707 9.5 75.9947C9.5 112.719 31.6561 142.489 75.9947 142.489Z" fill="url(#paint0_radial_10336_4210)"/>
<path d="M75.9947 142.489C120.333 142.489 142.489 112.719 142.489 75.9947C142.489 39.2707 120.333 9.5 75.9947 9.5C31.6561 9.5 9.5 39.2707 9.5 75.9947C9.5 112.719 31.6561 142.489 75.9947 142.489Z" fill="url(#paint1_radial_10336_4210)"/>
<path d="M75.9947 142.489C120.333 142.489 142.489 112.719 142.489 75.9947C142.489 39.2707 120.333 9.5 75.9947 9.5C31.6561 9.5 9.5 39.2707 9.5 75.9947C9.5 112.719 31.6561 142.489 75.9947 142.489Z" fill="url(#paint2_radial_10336_4210)" fill-opacity="0.6"/>
<path d="M75.9947 142.489C120.333 142.489 142.489 112.719 142.489 75.9947C142.489 39.2707 120.333 9.5 75.9947 9.5C31.6561 9.5 9.5 39.2707 9.5 75.9947C9.5 112.719 31.6561 142.489 75.9947 142.489Z" fill="url(#paint3_radial_10336_4210)"/>
<path d="M75.9947 142.489C120.333 142.489 142.489 112.719 142.489 75.9947C142.489 39.2707 120.333 9.5 75.9947 9.5C31.6561 9.5 9.5 39.2707 9.5 75.9947C9.5 112.719 31.6561 142.489 75.9947 142.489Z" fill="url(#paint4_radial_10336_4210)"/>
<path d="M75.9947 142.489C120.333 142.489 142.489 112.719 142.489 75.9947C142.489 39.2707 120.333 9.5 75.9947 9.5C31.6561 9.5 9.5 39.2707 9.5 75.9947C9.5 112.719 31.6561 142.489 75.9947 142.489Z" fill="url(#paint5_radial_10336_4210)"/>
<path d="M75.9947 142.489C120.333 142.489 142.489 112.719 142.489 75.9947C142.489 39.2707 120.333 9.5 75.9947 9.5C31.6561 9.5 9.5 39.2707 9.5 75.9947C9.5 112.719 31.6561 142.489 75.9947 142.489Z" fill="url(#paint6_radial_10336_4210)"/>
<path d="M75.9947 142.489C120.333 142.489 142.489 112.719 142.489 75.9947C142.489 39.2707 120.333 9.5 75.9947 9.5C31.6561 9.5 9.5 39.2707 9.5 75.9947C9.5 112.719 31.6561 142.489 75.9947 142.489Z" fill="url(#paint7_radial_10336_4210)"/>
<path d="M75.9947 142.489C120.333 142.489 142.489 112.719 142.489 75.9947C142.489 39.2707 120.333 9.5 75.9947 9.5C31.6561 9.5 9.5 39.2707 9.5 75.9947C9.5 112.719 31.6561 142.489 75.9947 142.489Z" fill="url(#paint8_radial_10336_4210)"/>
<path d="M75.9947 142.489C120.333 142.489 142.489 112.719 142.489 75.9947C142.489 39.2707 120.333 9.5 75.9947 9.5C31.6561 9.5 9.5 39.2707 9.5 75.9947C9.5 112.719 31.6561 142.489 75.9947 142.489Z" fill="url(#paint9_radial_10336_4210)"/>
<path d="M75.9947 142.489C120.333 142.489 142.489 112.719 142.489 75.9947C142.489 39.2707 120.333 9.5 75.9947 9.5C31.6561 9.5 9.5 39.2707 9.5 75.9947C9.5 112.719 31.6561 142.489 75.9947 142.489Z" fill="url(#paint10_radial_10336_4210)"/>
<path d="M75.9947 142.489C120.333 142.489 142.489 112.719 142.489 75.9947C142.489 39.2707 120.333 9.5 75.9947 9.5C31.6561 9.5 9.5 39.2707 9.5 75.9947C9.5 112.719 31.6561 142.489 75.9947 142.489Z" fill="url(#paint11_radial_10336_4210)"/>
<path d="M75.9947 142.489C120.333 142.489 142.489 112.719 142.489 75.9947C142.489 39.2707 120.333 9.5 75.9947 9.5C31.6561 9.5 9.5 39.2707 9.5 75.9947C9.5 112.719 31.6561 142.489 75.9947 142.489Z" fill="url(#paint12_radial_10336_4210)"/>
<path d="M75.9947 142.489C120.333 142.489 142.489 112.719 142.489 75.9947C142.489 39.2707 120.333 9.5 75.9947 9.5C31.6561 9.5 9.5 39.2707 9.5 75.9947C9.5 112.719 31.6561 142.489 75.9947 142.489Z" fill="url(#paint13_radial_10336_4210)"/>
<path fill-rule="evenodd" clip-rule="evenodd" d="M69.8874 68.875C69.8874 80.0243 60.8491 89.0625 49.6999 89.0625C38.5506 89.0625 29.5124 80.0243 29.5124 68.875C29.5124 57.7258 38.5506 48.6875 49.6999 48.6875C60.8491 48.6875 69.8874 57.7258 69.8874 68.875ZM122.137 68.875C122.137 80.0243 113.099 89.0625 101.95 89.0625C90.8006 89.0625 81.7624 80.0243 81.7624 68.875C81.7624 57.7258 90.8006 48.6875 101.95 48.6875C113.099 48.6875 122.137 57.7258 122.137 68.875Z" fill="white"/>
<path fill-rule="evenodd" clip-rule="evenodd" d="M52.5 83C60.5081 83 67 76.5081 67 68.5C67 60.4919 60.5081 54 52.5 54C44.4919 54 38 60.4919 38 68.5C38 76.5081 44.4919 83 52.5 83ZM99.5 83C107.508 83 114 76.5081 114 68.5C114 60.4919 107.508 54 99.5 54C91.4919 54 85 60.4919 85 68.5C85 76.5081 91.4919 83 99.5 83Z" fill="url(#paint14_linear_10336_4210)"/>
<path fill-rule="evenodd" clip-rule="evenodd" d="M52.5 83C60.5081 83 67 76.5081 67 68.5C67 60.4919 60.5081 54 52.5 54C44.4919 54 38 60.4919 38 68.5C38 76.5081 44.4919 83 52.5 83ZM99.5 83C107.508 83 114 76.5081 114 68.5C114 60.4919 107.508 54 99.5 54C91.4919 54 85 60.4919 85 68.5C85 76.5081 91.4919 83 99.5 83Z" fill="url(#paint15_linear_10336_4210)"/>
<path fill-rule="evenodd" clip-rule="evenodd" d="M46.9473 30.3839L46.9493 30.372L46.9365 30.4373C46.9229 30.5032 46.8985 30.6154 46.8605 30.7673C46.7844 31.0718 46.655 31.5311 46.452 32.0932C46.0435 33.2246 45.3529 34.7276 44.2345 36.2188C42.0767 39.0958 38.1782 42.1562 30.8751 42.1562C29.2355 42.1562 27.9064 43.4854 27.9064 45.125C27.9064 46.7646 29.2355 48.0938 30.8751 48.0938C40.1971 48.0938 45.7985 44.0292 48.9845 39.7812C50.538 37.7099 51.4803 35.6504 52.0366 34.1099C52.316 33.3361 52.502 32.6821 52.6207 32.2073C52.6802 31.9696 52.723 31.7756 52.7524 31.6328C52.7671 31.5613 52.7784 31.5025 52.7868 31.4573L52.7972 31.3997L52.8009 31.3787L52.8023 31.3702C52.8041 31.3594 52.8035 31.3631 52.8035 31.3631C53.0731 29.7458 51.9805 28.2162 50.3632 27.9466C48.7509 27.6779 47.2258 28.763 46.9493 30.372" fill="url(#paint16_linear_10336_4210)"/>
<path fill-rule="evenodd" clip-rule="evenodd" d="M46.9473 30.3839L46.9493 30.372L46.9365 30.4373C46.9229 30.5032 46.8985 30.6154 46.8605 30.7673C46.7844 31.0718 46.655 31.5311 46.452 32.0932C46.0435 33.2246 45.3529 34.7276 44.2345 36.2188C42.0767 39.0958 38.1782 42.1562 30.8751 42.1562C29.2355 42.1562 27.9064 43.4854 27.9064 45.125C27.9064 46.7646 29.2355 48.0938 30.8751 48.0938C40.1971 48.0938 45.7985 44.0292 48.9845 39.7812C50.538 37.7099 51.4803 35.6504 52.0366 34.1099C52.316 33.3361 52.502 32.6821 52.6207 32.2073C52.6802 31.9696 52.723 31.7756 52.7524 31.6328C52.7671 31.5613 52.7784 31.5025 52.7868 31.4573L52.7972 31.3997L52.8009 31.3787L52.8023 31.3702C52.8041 31.3594 52.8035 31.3631 52.8035 31.3631C53.0731 29.7458 51.9805 28.2162 50.3632 27.9466C48.7509 27.6779 47.2258 28.763 46.9493 30.372" fill="url(#paint17_radial_10336_4210)"/>
<path fill-rule="evenodd" clip-rule="evenodd" d="M105.053 30.3839L105.051 30.372L105.064 30.4373C105.077 30.5032 105.102 30.6154 105.139 30.7673C105.216 31.0718 105.345 31.5311 105.548 32.0932C105.957 33.2246 106.647 34.7276 107.765 36.2188C109.923 39.0958 113.822 42.1562 121.125 42.1562C122.764 42.1562 124.094 43.4854 124.094 45.125C124.094 46.7646 122.764 48.0938 121.125 48.0938C111.803 48.0938 106.201 44.0292 103.015 39.7812C101.462 37.7099 100.52 35.6504 99.9634 34.1099C99.684 33.3361 99.498 32.6821 99.3793 32.2073C99.3198 31.9696 99.277 31.7756 99.2476 31.6328C99.2329 31.5613 99.2216 31.5025 99.2132 31.4573L99.2028 31.3997L99.1991 31.3787L99.1977 31.3702C99.1959 31.3594 99.1965 31.3631 99.1965 31.3631C98.9269 29.7458 100.02 28.2162 101.637 27.9466C103.249 27.6779 104.774 28.763 105.051 30.372" fill="url(#paint18_radial_10336_4210)"/>
<path fill-rule="evenodd" clip-rule="evenodd" d="M65.0608 112.656C63.2022 114.464 60.2303 114.448 58.3912 112.609C56.5363 110.754 56.5363 107.746 58.3912 105.891L58.398 105.884L58.4053 105.877L58.4213 105.861L58.4589 105.825L58.5569 105.731C58.6325 105.661 58.7284 105.573 58.8448 105.471C59.0774 105.268 59.3926 105.006 59.7906 104.708C60.5861 104.111 61.7181 103.362 63.1882 102.626C66.1441 101.149 70.4294 99.75 76 99.75C81.5706 99.75 85.8559 101.149 88.8118 102.626C90.2819 103.362 91.4139 104.111 92.2094 104.708C92.6074 105.006 92.9226 105.268 93.1552 105.471C93.2716 105.573 93.3675 105.661 93.4431 105.731L93.5411 105.825L93.5787 105.861L93.5947 105.877L93.602 105.884L93.6054 105.888C95.4604 107.743 95.4637 110.754 93.6088 112.609C91.7697 114.448 88.7978 114.464 86.9393 112.656C86.9321 112.65 86.9188 112.638 86.8994 112.621C86.8352 112.564 86.7051 112.455 86.5094 112.308C86.1173 112.014 85.4681 111.576 84.5632 111.124C82.7691 110.226 79.9294 109.25 76 109.25C72.0706 109.25 69.2309 110.226 67.4368 111.124C66.5319 111.576 65.8827 112.014 65.4906 112.308C65.2949 112.455 65.1648 112.564 65.1006 112.621C65.0812 112.638 65.068 112.65 65.0608 112.656Z" fill="url(#paint19_radial_10336_4210)"/>
<path fill-rule="evenodd" clip-rule="evenodd" d="M65.0608 112.656C63.2022 114.464 60.2303 114.448 58.3912 112.609C56.5363 110.754 56.5363 107.746 58.3912 105.891L58.398 105.884L58.4053 105.877L58.4213 105.861L58.4589 105.825L58.5569 105.731C58.6325 105.661 58.7284 105.573 58.8448 105.471C59.0774 105.268 59.3926 105.006 59.7906 104.708C60.5861 104.111 61.7181 103.362 63.1882 102.626C66.1441 101.149 70.4294 99.75 76 99.75C81.5706 99.75 85.8559 101.149 88.8118 102.626C90.2819 103.362 91.4139 104.111 92.2094 104.708C92.6074 105.006 92.9226 105.268 93.1552 105.471C93.2716 105.573 93.3675 105.661 93.4431 105.731L93.5411 105.825L93.5787 105.861L93.5947 105.877L93.602 105.884L93.6054 105.888C95.4604 107.743 95.4637 110.754 93.6088 112.609C91.7697 114.448 88.7978 114.464 86.9393 112.656C86.9321 112.65 86.9188 112.638 86.8994 112.621C86.8352 112.564 86.7051 112.455 86.5094 112.308C86.1173 112.014 85.4681 111.576 84.5632 111.124C82.7691 110.226 79.9294 109.25 76 109.25C72.0706 109.25 69.2309 110.226 67.4368 111.124C66.5319 111.576 65.8827 112.014 65.4906 112.308C65.2949 112.455 65.1648 112.564 65.1006 112.621C65.0812 112.638 65.068 112.65 65.0608 112.656Z" fill="url(#paint20_radial_10336_4210)"/>
<path fill-rule="evenodd" clip-rule="evenodd" d="M65.0608 112.656C63.2022 114.464 60.2303 114.448 58.3912 112.609C56.5363 110.754 56.5363 107.746 58.3912 105.891L58.398 105.884L58.4053 105.877L58.4213 105.861L58.4589 105.825L58.5569 105.731C58.6325 105.661 58.7284 105.573 58.8448 105.471C59.0774 105.268 59.3926 105.006 59.7906 104.708C60.5861 104.111 61.7181 103.362 63.1882 102.626C66.1441 101.149 70.4294 99.75 76 99.75C81.5706 99.75 85.8559 101.149 88.8118 102.626C90.2819 103.362 91.4139 104.111 92.2094 104.708C92.6074 105.006 92.9226 105.268 93.1552 105.471C93.2716 105.573 93.3675 105.661 93.4431 105.731L93.5411 105.825L93.5787 105.861L93.5947 105.877L93.602 105.884L93.6054 105.888C95.4604 107.743 95.4637 110.754 93.6088 112.609C91.7697 114.448 88.7978 114.464 86.9393 112.656C86.9321 112.65 86.9188 112.638 86.8994 112.621C86.8352 112.564 86.7051 112.455 86.5094 112.308C86.1173 112.014 85.4681 111.576 84.5632 111.124C82.7691 110.226 79.9294 109.25 76 109.25C72.0706 109.25 69.2309 110.226 67.4368 111.124C66.5319 111.576 65.8827 112.014 65.4906 112.308C65.2949 112.455 65.1648 112.564 65.1006 112.621C65.0812 112.638 65.068 112.65 65.0608 112.656Z" fill="url(#paint21_radial_10336_4210)"/>
<path fill-rule="evenodd" clip-rule="evenodd" d="M65.0608 112.656C63.2022 114.464 60.2303 114.448 58.3912 112.609C56.5363 110.754 56.5363 107.746 58.3912 105.891L58.398 105.884L58.4053 105.877L58.4213 105.861L58.4589 105.825L58.5569 105.731C58.6325 105.661 58.7284 105.573 58.8448 105.471C59.0774 105.268 59.3926 105.006 59.7906 104.708C60.5861 104.111 61.7181 103.362 63.1882 102.626C66.1441 101.149 70.4294 99.75 76 99.75C81.5706 99.75 85.8559 101.149 88.8118 102.626C90.2819 103.362 91.4139 104.111 92.2094 104.708C92.6074 105.006 92.9226 105.268 93.1552 105.471C93.2716 105.573 93.3675 105.661 93.4431 105.731L93.5411 105.825L93.5787 105.861L93.5947 105.877L93.602 105.884L93.6054 105.888C95.4604 107.743 95.4637 110.754 93.6088 112.609C91.7697 114.448 88.7978 114.464 86.9393 112.656C86.9321 112.65 86.9188 112.638 86.8994 112.621C86.8352 112.564 86.7051 112.455 86.5094 112.308C86.1173 112.014 85.4681 111.576 84.5632 111.124C82.7691 110.226 79.9294 109.25 76 109.25C72.0706 109.25 69.2309 110.226 67.4368 111.124C66.5319 111.576 65.8827 112.014 65.4906 112.308C65.2949 112.455 65.1648 112.564 65.1006 112.621C65.0812 112.638 65.068 112.65 65.0608 112.656Z" fill="url(#paint22_radial_10336_4210)"/>
<path d="M9 95.9091C9 88.2273 14.5964 82 21.5 82C28.4036 82 34 88.2273 34 95.9091V119.091C34 126.773 28.4036 133 21.5 133C14.5964 133 9 126.773 9 119.091V95.9091Z" fill="url(#paint23_radial_10336_4210)"/>
<defs>
<radialGradient id="paint0_radial_10336_4210" cx="0" cy="0" r="1" gradientUnits="userSpaceOnUse" gradientTransform="translate(121.125 42.75) rotate(132.839) scale(178.141)">
<stop stop-color="#FFF478"/>
<stop offset="0.474827" stop-color="#FFB02E"/>
<stop offset="1" stop-color="#F70A8D"/>
</radialGradient>
<radialGradient id="paint1_radial_10336_4210" cx="0" cy="0" r="1" gradientUnits="userSpaceOnUse" gradientTransform="translate(76 59.375) rotate(101.31) scale(84.7712 108.576)">
<stop offset="0.787821" stop-color="#F59639" stop-opacity="0"/>
<stop offset="0.972509" stop-color="#FF7DCE"/>
</radialGradient>
<radialGradient id="paint2_radial_10336_4210" cx="0" cy="0" r="1" gradientUnits="userSpaceOnUse" gradientTransform="translate(85.5 66.5) rotate(135) scale(194.808)">
<stop offset="0.314853" stop-opacity="0"/>
<stop offset="1"/>
</radialGradient>
<radialGradient id="paint3_radial_10336_4210" cx="0" cy="0" r="1" gradientUnits="userSpaceOnUse" gradientTransform="translate(76 80.75) rotate(77.692) scale(133.698)">
<stop offset="0.507903" stop-color="#7D6133" stop-opacity="0"/>
<stop offset="1" stop-color="#715B32"/>
</radialGradient>
<radialGradient id="paint4_radial_10336_4210" cx="0" cy="0" r="1" gradientUnits="userSpaceOnUse" gradientTransform="translate(78.375 78.375) rotate(55.7131) scale(63.2393 45.839)">
<stop stop-color="#FFB849"/>
<stop offset="1" stop-color="#FFB847" stop-opacity="0"/>
</radialGradient>
<radialGradient id="paint5_radial_10336_4210" cx="0" cy="0" r="1" gradientUnits="userSpaceOnUse" gradientTransform="translate(97.375 85.5) rotate(9.86581) scale(55.4449)">
<stop stop-color="#FFA64B"/>
<stop offset="0.900412" stop-color="#FFAE46" stop-opacity="0"/>
</radialGradient>
<radialGradient id="paint6_radial_10336_4210" cx="0" cy="0" r="1" gradientUnits="userSpaceOnUse" gradientTransform="translate(83.125 71.25) rotate(43.9708) scale(280.501)">
<stop offset="0.185425" stop-opacity="0"/>
<stop offset="1" stop-opacity="0.4"/>
</radialGradient>
<radialGradient id="paint7_radial_10336_4210" cx="0" cy="0" r="1" gradientUnits="userSpaceOnUse" gradientTransform="translate(46.8438 73.4385) rotate(47.4896) scale(17.6191)">
<stop offset="0.359039" stop-color="#C84E28"/>
<stop offset="1" stop-color="#C84528" stop-opacity="0"/>
</radialGradient>
<radialGradient id="paint8_radial_10336_4210" cx="0" cy="0" r="1" gradientUnits="userSpaceOnUse" gradientTransform="translate(96.1231 65.392) rotate(136.054) scale(17.2743)">
<stop offset="0.135653" stop-color="#392108"/>
<stop offset="1" stop-color="#C87928" stop-opacity="0"/>
</radialGradient>
<radialGradient id="paint9_radial_10336_4210" cx="0" cy="0" r="1" gradientUnits="userSpaceOnUse" gradientTransform="translate(100.427 70.8182) rotate(106.798) scale(20.7177)">
<stop offset="0.359039" stop-color="#C84E28"/>
<stop offset="1" stop-color="#C84528" stop-opacity="0"/>
</radialGradient>
<radialGradient id="paint10_radial_10336_4210" cx="0" cy="0" r="1" gradientUnits="userSpaceOnUse" gradientTransform="translate(45.4044 70.9444) rotate(162.77) scale(23.542)">
<stop offset="0.31498" stop-color="#392108"/>
<stop offset="1" stop-color="#C87928" stop-opacity="0"/>
</radialGradient>
<radialGradient id="paint11_radial_10336_4210" cx="0" cy="0" r="1" gradientUnits="userSpaceOnUse" gradientTransform="translate(106.938 43.2468) rotate(133.831) scale(8.09504 18.0862)">
<stop offset="0.09375" stop-color="#D4901B"/>
<stop offset="1" stop-color="#DEA22D" stop-opacity="0"/>
</radialGradient>
<radialGradient id="paint12_radial_10336_4210" cx="0" cy="0" r="1" gradientUnits="userSpaceOnUse" gradientTransform="translate(116.875 48.2801) rotate(91.7899) scale(5.57135 6.55102)">
<stop offset="0.09375" stop-color="#D4901B"/>
<stop offset="1" stop-color="#DEA22D" stop-opacity="0"/>
</radialGradient>
<radialGradient id="paint13_radial_10336_4210" cx="0" cy="0" r="1" gradientUnits="userSpaceOnUse" gradientTransform="translate(44.5971 48.8675) rotate(3.30285) scale(18.3601)">
<stop stop-color="#D59A13"/>
<stop offset="1" stop-color="#D59A13" stop-opacity="0"/>
</radialGradient>
<linearGradient id="paint14_linear_10336_4210" x1="78.0781" y1="56.2083" x2="75.645" y2="78.5626" gradientUnits="userSpaceOnUse">
<stop stop-color="#553B3E"/>
<stop offset="1" stop-color="#3D2432"/>
</linearGradient>
<linearGradient id="paint15_linear_10336_4210" x1="78.0781" y1="56.2083" x2="75.645" y2="78.5626" gradientUnits="userSpaceOnUse">
<stop stop-color="#553B3E"/>
<stop offset="1" stop-color="#3D2432"/>
</linearGradient>
<linearGradient id="paint16_linear_10336_4210" x1="45.1251" y1="28.5" x2="45.1251" y2="35.625" gradientUnits="userSpaceOnUse">
<stop offset="0.0299084" stop-color="#524049"/>
<stop offset="1" stop-color="#4A2C42"/>
</linearGradient>
<radialGradient id="paint17_radial_10336_4210" cx="0" cy="0" r="1" gradientUnits="userSpaceOnUse" gradientTransform="translate(33.2502 28.5) rotate(54.4623) scale(20.4305)">
<stop offset="0.541667" stop-color="#493032"/>
<stop offset="0.806723" stop-color="#5E445A"/>
<stop offset="0.955326" stop-color="#4A2C42"/>
</radialGradient>
<radialGradient id="paint18_radial_10336_4210" cx="0" cy="0" r="1" gradientUnits="userSpaceOnUse" gradientTransform="translate(118.75 28.5) rotate(125.538) scale(20.4305)">
<stop stop-color="#C2B4B5"/>
<stop offset="0.887405" stop-color="#462B45"/>
<stop offset="1" stop-color="#4A2C42"/>
</radialGradient>
<radialGradient id="paint19_radial_10336_4210" cx="0" cy="0" r="1" gradientUnits="userSpaceOnUse" gradientTransform="translate(75.9993 117.289) rotate(-90) scale(19.3772 25.7901)">
<stop offset="0.479167" stop-color="#5B2666"/>
<stop offset="0.686742" stop-color="#533A4E"/>
<stop offset="0.817708" stop-color="#533A4E"/>
<stop offset="0.959686" stop-color="#53261F"/>
</radialGradient>
<radialGradient id="paint20_radial_10336_4210" cx="0" cy="0" r="1" gradientUnits="userSpaceOnUse" gradientTransform="translate(60.9211 113.166) rotate(22.15) scale(4.684 4.47735)">
<stop stop-color="#52265D"/>
<stop offset="1" stop-color="#52265D" stop-opacity="0"/>
</radialGradient>
<radialGradient id="paint21_radial_10336_4210" cx="0" cy="0" r="1" gradientUnits="userSpaceOnUse" gradientTransform="translate(57 109.419) rotate(31.34) scale(2.94302 7.24516)">
<stop stop-color="#4E3130"/>
<stop offset="1" stop-color="#4E3130" stop-opacity="0"/>
</radialGradient>
<radialGradient id="paint22_radial_10336_4210" cx="0" cy="0" r="1" gradientUnits="userSpaceOnUse" gradientTransform="translate(93.4345 109.023) rotate(135.945) scale(4.89616 4.89592)">
<stop stop-color="#694F5B"/>
<stop offset="1" stop-color="#59414E" stop-opacity="0"/>
</radialGradient>
<radialGradient id="paint23_radial_10336_4210" cx="0" cy="0" r="1" gradientUnits="userSpaceOnUse" gradientTransform="translate(29.8333 80.1699) rotate(103.194) scale(54.7638 18.6209)">
<stop stop-color="#5C98FF"/>
<stop offset="0.805982" stop-color="#3D5BF1"/>
<stop offset="0.962238" stop-color="#6065CA"/>
</radialGradient>
</defs>
</svg>
