<svg width="24" height="25" viewBox="0 0 24 25" fill="none" xmlns="http://www.w3.org/2000/svg">
<path d="M4 6.36395C4 5.81167 4.44772 5.36395 5 5.36395L19 5.36395C19.5523 5.36395 20 5.81167 20 6.36395C20 6.91624 19.5523 7.36395 19 7.36395L5 7.36395C4.44772 7.36395 4 6.91624 4 6.36395Z" fill="black"/>
<path d="M4 12.364C4 11.8117 4.44772 11.364 5 11.364L19 11.364C19.5523 11.364 20 11.8117 20 12.364C20 12.9162 19.5523 13.364 19 13.364L5 13.364C4.44772 13.364 4 12.9162 4 12.364Z" fill="black"/>
<path d="M4 18.364C4 17.8117 4.44772 17.364 5 17.364H19C19.5523 17.364 20 17.8117 20 18.364C20 18.9162 19.5523 19.364 19 19.364H5C4.44772 19.364 4 18.9162 4 18.364Z" fill="black"/>
</svg>
