<svg width="24" height="24" viewBox="0 0 24 24" fill="none" xmlns="http://www.w3.org/2000/svg">
<path d="M19.7071 10.8107C20.0976 10.4201 20.0976 9.78697 19.7071 9.39645C19.3166 9.00592 18.6834 9.00592 18.2929 9.39645L12.8839 14.8055L12.8839 3C12.8839 2.5 12.5 2 12 2C11.4788 2 11.1161 2.5 11.1161 3V14.8055L5.70711 9.39645C5.31658 9.00592 4.68342 9.00592 4.29289 9.39645C3.90237 9.78697 3.90237 10.4201 4.29289 10.8107L11.1161 17.6339C11.6043 18.122 12.3957 18.122 12.8839 17.6339L19.7071 10.8107Z" fill="black"/>
<path fill-rule="evenodd" clip-rule="evenodd" d="M4.95652 21C4.95652 20.4477 5.4237 20 6 20H18C18.5763 20 19.0435 20.4477 19.0435 21C19.0435 21.5523 18.5763 22 18 22H6C5.4237 22 4.95652 21.5523 4.95652 21Z" fill="black"/>
</svg>
