<svg width="315" height="192" viewBox="0 0 315 192" fill="none" xmlns="http://www.w3.org/2000/svg">
<path fill-rule="evenodd" clip-rule="evenodd" d="M43.5726 126.369C30.5542 138.468 13.108 145.867 -6.06641 145.867C-46.3465 145.867 -79 113.214 -79 72.9336C-79 32.6535 -46.3465 0 -6.06641 0C20.5847 0 43.8971 14.2949 56.6217 35.6355C69.6401 23.5365 87.0863 16.1371 106.261 16.1371C146.541 16.1371 179.194 48.7906 179.194 89.0707C179.194 129.351 146.541 162.004 106.261 162.004C79.6096 162.004 56.2972 147.709 43.5726 126.369Z" fill="#DAE8FF"/>
<path fill-rule="evenodd" clip-rule="evenodd" d="M140.816 170.691C153.542 170.691 165.237 166.276 174.453 158.894C182.279 169.845 195.098 176.984 209.583 176.984C219.78 176.984 229.15 173.447 236.535 167.533C244.62 173.474 254.604 176.984 265.407 176.984C292.365 176.984 314.218 155.13 314.218 128.172C314.218 101.214 292.365 79.3604 265.407 79.3604C251.059 79.3604 238.157 85.5509 229.226 95.4068C223.334 92.3892 216.658 90.6868 209.583 90.6868C202.602 90.6868 196.008 92.345 190.173 95.2889C181.86 76.2815 162.889 63 140.816 63C120.392 63 102.624 74.3713 93.497 91.1283C85.4146 86.2817 75.9555 83.4955 65.8455 83.4955C36.1075 83.4955 12 107.603 12 137.341C12 167.079 36.1075 191.187 65.8455 191.187C86.2696 191.187 104.038 179.815 113.164 163.058C121.247 167.905 130.706 170.691 140.816 170.691Z" fill="#F2F7FF"/>
<path d="M59 129H314C314 163.242 286.242 191 252 191H59V129Z" fill="#F2F7FF"/>
</svg>
