<svg width="24" height="24" viewBox="0 0 24 24" fill="none" xmlns="http://www.w3.org/2000/svg">
<path d="M10.8107 4.29289C10.4201 3.90237 9.78697 3.90237 9.39645 4.29289C9.00592 4.68342 9.00592 5.31658 9.39645 5.70711L14.8055 11.1161L3 11.1161C2.5 11.1161 2 11.5 2 12C2 12.5212 2.5 12.8839 3 12.8839L14.8055 12.8839L9.39645 18.2929C9.00592 18.6834 9.00592 19.3166 9.39645 19.7071C9.78697 20.0976 10.4201 20.0976 10.8107 19.7071L17.6339 12.8839C18.122 12.3957 18.122 11.6043 17.6339 11.1161L10.8107 4.29289Z" fill="black"/>
<path fill-rule="evenodd" clip-rule="evenodd" d="M21 19.0435C20.4477 19.0435 20 18.5763 20 18V6C20 5.4237 20.4477 4.95652 21 4.95652C21.5523 4.95652 22 5.4237 22 6V18C22 18.5763 21.5523 19.0435 21 19.0435Z" fill="black"/>
</svg>
