<svg width="152" height="152" viewBox="0 0 152 152" fill="none" xmlns="http://www.w3.org/2000/svg">
<path d="M75.9947 142.489C120.333 142.489 142.489 112.719 142.489 75.9947C142.489 39.2707 120.333 9.5 75.9947 9.5C31.6561 9.5 9.5 39.2707 9.5 75.9947C9.5 112.719 31.6561 142.489 75.9947 142.489Z" fill="url(#paint0_radial_10336_4797)"/>
<path d="M75.9947 142.489C120.333 142.489 142.489 112.719 142.489 75.9947C142.489 39.2707 120.333 9.5 75.9947 9.5C31.6561 9.5 9.5 39.2707 9.5 75.9947C9.5 112.719 31.6561 142.489 75.9947 142.489Z" fill="url(#paint1_radial_10336_4797)"/>
<path d="M75.9947 142.489C120.333 142.489 142.489 112.719 142.489 75.9947C142.489 39.2707 120.333 9.5 75.9947 9.5C31.6561 9.5 9.5 39.2707 9.5 75.9947C9.5 112.719 31.6561 142.489 75.9947 142.489Z" fill="url(#paint2_radial_10336_4797)" fill-opacity="0.6"/>
<path d="M75.9947 142.489C120.333 142.489 142.489 112.719 142.489 75.9947C142.489 39.2707 120.333 9.5 75.9947 9.5C31.6561 9.5 9.5 39.2707 9.5 75.9947C9.5 112.719 31.6561 142.489 75.9947 142.489Z" fill="url(#paint3_radial_10336_4797)"/>
<path d="M75.9947 142.489C120.333 142.489 142.489 112.719 142.489 75.9947C142.489 39.2707 120.333 9.5 75.9947 9.5C31.6561 9.5 9.5 39.2707 9.5 75.9947C9.5 112.719 31.6561 142.489 75.9947 142.489Z" fill="url(#paint4_radial_10336_4797)"/>
<path d="M75.9947 142.489C120.333 142.489 142.489 112.719 142.489 75.9947C142.489 39.2707 120.333 9.5 75.9947 9.5C31.6561 9.5 9.5 39.2707 9.5 75.9947C9.5 112.719 31.6561 142.489 75.9947 142.489Z" fill="url(#paint5_radial_10336_4797)"/>
<path d="M75.9947 142.489C120.333 142.489 142.489 112.719 142.489 75.9947C142.489 39.2707 120.333 9.5 75.9947 9.5C31.6561 9.5 9.5 39.2707 9.5 75.9947C9.5 112.719 31.6561 142.489 75.9947 142.489Z" fill="url(#paint6_radial_10336_4797)"/>
<path d="M75.9947 142.489C120.333 142.489 142.489 112.719 142.489 75.9947C142.489 39.2707 120.333 9.5 75.9947 9.5C31.6561 9.5 9.5 39.2707 9.5 75.9947C9.5 112.719 31.6561 142.489 75.9947 142.489Z" fill="url(#paint7_radial_10336_4797)"/>
<path d="M75.9947 142.489C120.333 142.489 142.489 112.719 142.489 75.9947C142.489 39.2707 120.333 9.5 75.9947 9.5C31.6561 9.5 9.5 39.2707 9.5 75.9947C9.5 112.719 31.6561 142.489 75.9947 142.489Z" fill="url(#paint8_radial_10336_4797)"/>
<path d="M75.9947 142.489C120.333 142.489 142.489 112.719 142.489 75.9947C142.489 39.2707 120.333 9.5 75.9947 9.5C31.6561 9.5 9.5 39.2707 9.5 75.9947C9.5 112.719 31.6561 142.489 75.9947 142.489Z" fill="url(#paint9_radial_10336_4797)"/>
<path d="M75.9947 142.489C120.333 142.489 142.489 112.719 142.489 75.9947C142.489 39.2707 120.333 9.5 75.9947 9.5C31.6561 9.5 9.5 39.2707 9.5 75.9947C9.5 112.719 31.6561 142.489 75.9947 142.489Z" fill="url(#paint10_radial_10336_4797)"/>
<path fill-rule="evenodd" clip-rule="evenodd" d="M48.2294 105.341C47.5504 102.807 49.0542 100.202 51.5881 99.5233L97.4696 87.2294C100.004 86.5504 102.608 88.0542 103.287 90.5881C103.966 93.1221 102.462 95.7267 99.9284 96.4057L54.0469 108.7C51.513 109.379 48.9084 107.875 48.2294 105.341Z" fill="url(#paint11_linear_10336_4797)"/>
<path d="M49.875 77.1875C61.0242 77.1875 70.0625 68.1492 70.0625 57C70.0625 45.8508 61.0242 36.8125 49.875 36.8125C38.7258 36.8125 29.6875 45.8508 29.6875 57C29.6875 68.1492 38.7258 77.1875 49.875 77.1875Z" fill="white"/>
<path d="M102.125 77.1875C113.274 77.1875 122.312 68.1492 122.312 57C122.312 45.8508 113.274 36.8125 102.125 36.8125C90.9758 36.8125 81.9375 45.8508 81.9375 57C81.9375 68.1492 90.9758 77.1875 102.125 77.1875Z" fill="white"/>
<path fill-rule="evenodd" clip-rule="evenodd" d="M52.5 72C60.5081 72 67 65.5081 67 57.5C67 49.4919 60.5081 43 52.5 43C44.4919 43 38 49.4919 38 57.5C38 65.5081 44.4919 72 52.5 72ZM99.5 72C107.508 72 114 65.5081 114 57.5C114 49.4919 107.508 43 99.5 43C91.4919 43 85 49.4919 85 57.5C85 65.5081 91.4919 72 99.5 72Z" fill="url(#paint12_linear_10336_4797)"/>
<defs>
<radialGradient id="paint0_radial_10336_4797" cx="0" cy="0" r="1" gradientUnits="userSpaceOnUse" gradientTransform="translate(121.125 42.75) rotate(131.878) scale(185.006)">
<stop stop-color="#FFF478"/>
<stop offset="0.474827" stop-color="#FFB02E"/>
<stop offset="1" stop-color="#F70A8D"/>
</radialGradient>
<radialGradient id="paint1_radial_10336_4797" cx="0" cy="0" r="1" gradientUnits="userSpaceOnUse" gradientTransform="translate(76 59.375) rotate(101.31) scale(84.7712 108.576)">
<stop offset="0.787821" stop-color="#F59639" stop-opacity="0"/>
<stop offset="0.972509" stop-color="#FF7DCE"/>
</radialGradient>
<radialGradient id="paint2_radial_10336_4797" cx="0" cy="0" r="1" gradientUnits="userSpaceOnUse" gradientTransform="translate(85.5 66.5) rotate(135) scale(194.808)">
<stop offset="0.314853" stop-opacity="0"/>
<stop offset="1"/>
</radialGradient>
<radialGradient id="paint3_radial_10336_4797" cx="0" cy="0" r="1" gradientUnits="userSpaceOnUse" gradientTransform="translate(76 80.75) rotate(77.692) scale(133.698)">
<stop offset="0.507903" stop-color="#7D6133" stop-opacity="0"/>
<stop offset="1" stop-color="#715B32"/>
</radialGradient>
<radialGradient id="paint4_radial_10336_4797" cx="0" cy="0" r="1" gradientUnits="userSpaceOnUse" gradientTransform="translate(78.375 78.375) rotate(55.7131) scale(63.2393 45.839)">
<stop stop-color="#FFB849"/>
<stop offset="1" stop-color="#FFB847" stop-opacity="0"/>
</radialGradient>
<radialGradient id="paint5_radial_10336_4797" cx="0" cy="0" r="1" gradientUnits="userSpaceOnUse" gradientTransform="translate(97.375 85.5) rotate(9.86581) scale(55.4449)">
<stop stop-color="#FFA64B"/>
<stop offset="0.900412" stop-color="#FFAE46" stop-opacity="0"/>
</radialGradient>
<radialGradient id="paint6_radial_10336_4797" cx="0" cy="0" r="1" gradientUnits="userSpaceOnUse" gradientTransform="translate(83.125 71.25) rotate(43.9708) scale(280.501)">
<stop offset="0.185425" stop-opacity="0"/>
<stop offset="1" stop-opacity="0.4"/>
</radialGradient>
<radialGradient id="paint7_radial_10336_4797" cx="0" cy="0" r="1" gradientUnits="userSpaceOnUse" gradientTransform="translate(101.353 58.9187) rotate(118.025) scale(21.4619)">
<stop offset="0.359039" stop-color="#C84E28"/>
<stop offset="1" stop-color="#C84528" stop-opacity="0"/>
</radialGradient>
<radialGradient id="paint8_radial_10336_4797" cx="0" cy="0" r="1" gradientUnits="userSpaceOnUse" gradientTransform="translate(49.1009 58.6131) rotate(83.9115) scale(23.0478)">
<stop offset="0.359039" stop-color="#C84E28"/>
<stop offset="1" stop-color="#C84528" stop-opacity="0"/>
</radialGradient>
<radialGradient id="paint9_radial_10336_4797" cx="0" cy="0" r="1" gradientUnits="userSpaceOnUse" gradientTransform="translate(44.8229 59.2242) rotate(106.763) scale(26.4879)">
<stop stop-color="#392108"/>
<stop offset="1" stop-color="#C87928" stop-opacity="0"/>
</radialGradient>
<radialGradient id="paint10_radial_10336_4797" cx="0" cy="0" r="1" gradientUnits="userSpaceOnUse" gradientTransform="translate(96.7699 57.3908) rotate(122.861) scale(22.1477)">
<stop stop-color="#392108"/>
<stop offset="1" stop-color="#C87928" stop-opacity="0"/>
</radialGradient>
<linearGradient id="paint11_linear_10336_4797" x1="75.1436" y1="95.6704" x2="76.373" y2="100.259" gradientUnits="userSpaceOnUse">
<stop stop-color="#4F3C43"/>
<stop offset="1" stop-color="#512756"/>
</linearGradient>
<linearGradient id="paint12_linear_10336_4797" x1="78.0781" y1="45.2083" x2="75.645" y2="67.5626" gradientUnits="userSpaceOnUse">
<stop stop-color="#553B3E"/>
<stop offset="1" stop-color="#3D2432"/>
</linearGradient>
</defs>
</svg>
