<svg width="24" height="24" viewBox="0 0 24 24" fill="none" xmlns="http://www.w3.org/2000/svg">
<path d="M13.05 6C13.05 6.82843 12.3784 7.5 11.55 7.5C10.7216 7.5 10.05 6.82843 10.05 6C10.05 5.17157 10.7216 4.5 11.55 4.5C12.3784 4.5 13.05 5.17157 13.05 6Z" fill="black"/>
<path d="M13.05 12C13.05 12.8284 12.3784 13.5 11.55 13.5C10.7216 13.5 10.05 12.8284 10.05 12C10.05 11.1716 10.7216 10.5 11.55 10.5C12.3784 10.5 13.05 11.1716 13.05 12Z" fill="black"/>
<path d="M13.05 18C13.05 18.8284 12.3784 19.5 11.55 19.5C10.7216 19.5 10.05 18.8284 10.05 18C10.05 17.1716 10.7216 16.5 11.55 16.5C12.3784 16.5 13.05 17.1716 13.05 18Z" fill="black"/>
</svg>
