<svg width="152" height="152" viewBox="0 0 152 152" fill="none" xmlns="http://www.w3.org/2000/svg">
<path d="M75.9947 142.489C120.333 142.489 142.489 112.719 142.489 75.9947C142.489 39.2707 120.333 9.5 75.9947 9.5C31.6561 9.5 9.5 39.2707 9.5 75.9947C9.5 112.719 31.6561 142.489 75.9947 142.489Z" fill="url(#paint0_radial_10336_7344)"/>
<path d="M75.9947 142.489C120.333 142.489 142.489 112.719 142.489 75.9947C142.489 39.2707 120.333 9.5 75.9947 9.5C31.6561 9.5 9.5 39.2707 9.5 75.9947C9.5 112.719 31.6561 142.489 75.9947 142.489Z" fill="url(#paint1_radial_10336_7344)"/>
<path d="M75.9947 142.489C120.333 142.489 142.489 112.719 142.489 75.9947C142.489 39.2707 120.333 9.5 75.9947 9.5C31.6561 9.5 9.5 39.2707 9.5 75.9947C9.5 112.719 31.6561 142.489 75.9947 142.489Z" fill="url(#paint2_radial_10336_7344)" fill-opacity="0.6"/>
<path d="M75.9947 142.489C120.333 142.489 142.489 112.719 142.489 75.9947C142.489 39.2707 120.333 9.5 75.9947 9.5C31.6561 9.5 9.5 39.2707 9.5 75.9947C9.5 112.719 31.6561 142.489 75.9947 142.489Z" fill="url(#paint3_radial_10336_7344)"/>
<path d="M75.9947 142.489C120.333 142.489 142.489 112.719 142.489 75.9947C142.489 39.2707 120.333 9.5 75.9947 9.5C31.6561 9.5 9.5 39.2707 9.5 75.9947C9.5 112.719 31.6561 142.489 75.9947 142.489Z" fill="url(#paint4_radial_10336_7344)"/>
<path d="M75.9947 142.489C120.333 142.489 142.489 112.719 142.489 75.9947C142.489 39.2707 120.333 9.5 75.9947 9.5C31.6561 9.5 9.5 39.2707 9.5 75.9947C9.5 112.719 31.6561 142.489 75.9947 142.489Z" fill="url(#paint5_radial_10336_7344)"/>
<path d="M75.9947 142.489C120.333 142.489 142.489 112.719 142.489 75.9947C142.489 39.2707 120.333 9.5 75.9947 9.5C31.6561 9.5 9.5 39.2707 9.5 75.9947C9.5 112.719 31.6561 142.489 75.9947 142.489Z" fill="url(#paint6_radial_10336_7344)"/>
<path d="M75.9947 142.489C120.333 142.489 142.489 112.719 142.489 75.9947C142.489 39.2707 120.333 9.5 75.9947 9.5C31.6561 9.5 9.5 39.2707 9.5 75.9947C9.5 112.719 31.6561 142.489 75.9947 142.489Z" fill="url(#paint7_radial_10336_7344)"/>
<path d="M75.9947 142.489C120.333 142.489 142.489 112.719 142.489 75.9947C142.489 39.2707 120.333 9.5 75.9947 9.5C31.6561 9.5 9.5 39.2707 9.5 75.9947C9.5 112.719 31.6561 142.489 75.9947 142.489Z" fill="url(#paint8_radial_10336_7344)"/>
<path d="M75.9947 142.489C120.333 142.489 142.489 112.719 142.489 75.9947C142.489 39.2707 120.333 9.5 75.9947 9.5C31.6561 9.5 9.5 39.2707 9.5 75.9947C9.5 112.719 31.6561 142.489 75.9947 142.489Z" fill="url(#paint9_radial_10336_7344)"/>
<path d="M75.9947 142.489C120.333 142.489 142.489 112.719 142.489 75.9947C142.489 39.2707 120.333 9.5 75.9947 9.5C31.6561 9.5 9.5 39.2707 9.5 75.9947C9.5 112.719 31.6561 142.489 75.9947 142.489Z" fill="url(#paint10_radial_10336_7344)"/>
<path d="M75.9947 142.489C120.333 142.489 142.489 112.719 142.489 75.9947C142.489 39.2707 120.333 9.5 75.9947 9.5C31.6561 9.5 9.5 39.2707 9.5 75.9947C9.5 112.719 31.6561 142.489 75.9947 142.489Z" fill="url(#paint11_radial_10336_7344)"/>
<path d="M75.9947 142.489C120.333 142.489 142.489 112.719 142.489 75.9947C142.489 39.2707 120.333 9.5 75.9947 9.5C31.6561 9.5 9.5 39.2707 9.5 75.9947C9.5 112.719 31.6561 142.489 75.9947 142.489Z" fill="url(#paint12_radial_10336_7344)"/>
<path d="M75.9947 142.489C120.333 142.489 142.489 112.719 142.489 75.9947C142.489 39.2707 120.333 9.5 75.9947 9.5C31.6561 9.5 9.5 39.2707 9.5 75.9947C9.5 112.719 31.6561 142.489 75.9947 142.489Z" fill="url(#paint13_radial_10336_7344)"/>
<path d="M75.9947 142.489C120.333 142.489 142.489 112.719 142.489 75.9947C142.489 39.2707 120.333 9.5 75.9947 9.5C31.6561 9.5 9.5 39.2707 9.5 75.9947C9.5 112.719 31.6561 142.489 75.9947 142.489Z" fill="url(#paint14_radial_10336_7344)"/>
<path d="M75.9947 142.489C120.333 142.489 142.489 112.719 142.489 75.9947C142.489 39.2707 120.333 9.5 75.9947 9.5C31.6561 9.5 9.5 39.2707 9.5 75.9947C9.5 112.719 31.6561 142.489 75.9947 142.489Z" fill="url(#paint15_radial_10336_7344)"/>
<path d="M75.9947 142.489C120.333 142.489 142.489 112.719 142.489 75.9947C142.489 39.2707 120.333 9.5 75.9947 9.5C31.6561 9.5 9.5 39.2707 9.5 75.9947C9.5 112.719 31.6561 142.489 75.9947 142.489Z" fill="url(#paint16_radial_10336_7344)"/>
<path d="M75.9947 142.489C120.333 142.489 142.489 112.719 142.489 75.9947C142.489 39.2707 120.333 9.5 75.9947 9.5C31.6561 9.5 9.5 39.2707 9.5 75.9947C9.5 112.719 31.6561 142.489 75.9947 142.489Z" fill="url(#paint17_radial_10336_7344)"/>
<path fill-rule="evenodd" clip-rule="evenodd" d="M108.167 54.9332C107.176 53.6052 105.534 52.2265 102.309 52.2503C99.0472 52.2744 97.4266 53.67 96.4748 54.9634C95.9488 55.6781 95.603 56.4138 95.392 56.9761C95.2888 57.2511 95.2245 57.4668 95.1902 57.5928C95.1749 57.649 95.166 57.6859 95.1626 57.7004C94.638 60.245 92.1616 61.8999 89.6045 61.403C87.0294 60.9026 85.3474 58.4093 85.8479 55.8341C86.0232 55.0997 86.0232 55.0997 86.0232 55.0997C86.1253 54.7241 86.2781 54.2232 86.4979 53.6377C86.9328 52.479 87.6562 50.9186 88.8234 49.3326C91.2578 46.0246 95.519 42.8002 102.239 42.7506C108.997 42.7006 113.311 45.942 115.781 49.2526C116.967 50.8421 117.71 52.4108 118.16 53.5748C118.387 54.1631 118.546 54.6666 118.653 55.0434C119.286 57.2704 118.388 60.7212 115.15 61.3919C112.598 61.9206 110.101 60.2949 109.546 57.7552C109.542 57.7401 109.532 57.6998 109.515 57.6378C109.477 57.5056 109.408 57.2819 109.298 56.9982C109.074 56.4182 108.711 55.6629 108.167 54.9332Z" fill="url(#paint18_radial_10336_7344)"/>
<path fill-rule="evenodd" clip-rule="evenodd" d="M55.7681 54.9332C54.7774 53.6052 53.1352 52.2265 49.911 52.2503C46.6488 52.2744 45.0282 53.67 44.0764 54.9634C43.5504 55.6781 43.2046 56.4138 42.9936 56.9761C42.8904 57.2511 42.826 57.4668 42.7918 57.5928C42.7765 57.649 42.7676 57.6859 42.7642 57.7004C42.2395 60.245 39.7632 61.8999 37.2061 61.403C34.6309 60.9026 32.949 58.4093 33.4494 55.8341C33.6247 55.0997 33.6247 55.0997 33.6247 55.0997C33.7269 54.7241 33.8797 54.2232 34.0994 53.6377C34.5343 52.479 35.2578 50.9186 36.4249 49.3326C38.8593 46.0246 43.1206 42.8002 49.8408 42.7506C56.599 42.7006 60.9128 45.942 63.3826 49.2526C64.5684 50.8421 65.3117 52.4108 65.7614 53.5748C65.9887 54.1631 66.148 54.6666 66.255 55.0434C66.8873 57.2704 65.9891 60.7212 62.7516 61.3919C60.1998 61.9206 57.7022 60.2949 57.1476 57.7552C57.1439 57.7401 57.1337 57.6998 57.1162 57.6378C57.0786 57.5056 57.0093 57.2819 56.8997 56.9982C56.6756 56.4182 56.3125 55.6629 55.7681 54.9332Z" fill="url(#paint19_radial_10336_7344)"/>
<path fill-rule="evenodd" clip-rule="evenodd" d="M44.65 86.45C46.7487 84.876 49.726 85.3013 51.3 87.4C52.9217 89.5623 61.0945 97.375 76 97.375C90.9054 97.375 99.0783 89.5623 100.7 87.4C102.274 85.3013 105.251 84.876 107.35 86.45C109.449 88.024 109.874 91.0013 108.3 93.1C105.172 97.271 94.3445 106.875 76 106.875C57.6554 106.875 46.8282 97.271 43.7 93.1C42.126 91.0013 42.5513 88.024 44.65 86.45Z" fill="url(#paint20_radial_10336_7344)"/>
<path fill-rule="evenodd" clip-rule="evenodd" d="M44.65 86.45C46.7487 84.876 49.726 85.3013 51.3 87.4C52.9217 89.5623 61.0945 97.375 76 97.375C90.9054 97.375 99.0783 89.5623 100.7 87.4C102.274 85.3013 105.251 84.876 107.35 86.45C109.449 88.024 109.874 91.0013 108.3 93.1C105.172 97.271 94.3445 106.875 76 106.875C57.6554 106.875 46.8282 97.271 43.7 93.1C42.126 91.0013 42.5513 88.024 44.65 86.45Z" fill="url(#paint21_radial_10336_7344)"/>
<defs>
<radialGradient id="paint0_radial_10336_7344" cx="0" cy="0" r="1" gradientUnits="userSpaceOnUse" gradientTransform="translate(121.125 42.75) rotate(131.878) scale(185.006)">
<stop stop-color="#FFF478"/>
<stop offset="0.474827" stop-color="#FFB02E"/>
<stop offset="1" stop-color="#F70A8D"/>
</radialGradient>
<radialGradient id="paint1_radial_10336_7344" cx="0" cy="0" r="1" gradientUnits="userSpaceOnUse" gradientTransform="translate(76 59.375) rotate(101.31) scale(84.7712 108.576)">
<stop offset="0.787821" stop-color="#F59639" stop-opacity="0"/>
<stop offset="0.972509" stop-color="#FF7DCE"/>
</radialGradient>
<radialGradient id="paint2_radial_10336_7344" cx="0" cy="0" r="1" gradientUnits="userSpaceOnUse" gradientTransform="translate(85.5 66.5) rotate(135) scale(194.808)">
<stop offset="0.314853" stop-opacity="0"/>
<stop offset="1"/>
</radialGradient>
<radialGradient id="paint3_radial_10336_7344" cx="0" cy="0" r="1" gradientUnits="userSpaceOnUse" gradientTransform="translate(76 80.75) rotate(77.692) scale(133.698)">
<stop offset="0.507903" stop-color="#7D6133" stop-opacity="0"/>
<stop offset="1" stop-color="#715B32"/>
</radialGradient>
<radialGradient id="paint4_radial_10336_7344" cx="0" cy="0" r="1" gradientUnits="userSpaceOnUse" gradientTransform="translate(78.375 78.375) rotate(55.7131) scale(63.2393 45.839)">
<stop stop-color="#FFB849"/>
<stop offset="1" stop-color="#FFB847" stop-opacity="0"/>
</radialGradient>
<radialGradient id="paint5_radial_10336_7344" cx="0" cy="0" r="1" gradientUnits="userSpaceOnUse" gradientTransform="translate(97.375 85.5) rotate(9.86581) scale(55.4449)">
<stop stop-color="#FFA64B"/>
<stop offset="0.900412" stop-color="#FFAE46" stop-opacity="0"/>
</radialGradient>
<radialGradient id="paint6_radial_10336_7344" cx="0" cy="0" r="1" gradientUnits="userSpaceOnUse" gradientTransform="translate(83.125 71.25) rotate(43.9708) scale(280.501)">
<stop offset="0.185425" stop-opacity="0"/>
<stop offset="1" stop-opacity="0.4"/>
</radialGradient>
<radialGradient id="paint7_radial_10336_7344" cx="0" cy="0" r="1" gradientUnits="userSpaceOnUse" gradientTransform="translate(44.186 62.1071) rotate(-10.3912) scale(33.587 24.7886)">
<stop stop-color="#F1A227"/>
<stop offset="1" stop-color="#F5A72C" stop-opacity="0"/>
</radialGradient>
<radialGradient id="paint8_radial_10336_7344" cx="0" cy="0" r="1" gradientUnits="userSpaceOnUse" gradientTransform="translate(88.606 56.9785) rotate(98.7462) scale(8.48433 6.26178)">
<stop stop-color="#E7982E"/>
<stop offset="1" stop-color="#E39632" stop-opacity="0"/>
</radialGradient>
<radialGradient id="paint9_radial_10336_7344" cx="0" cy="0" r="1" gradientUnits="userSpaceOnUse" gradientTransform="translate(111.119 57.4928) rotate(-38.1251) scale(6.85045)">
<stop stop-color="#D28118"/>
<stop offset="1" stop-color="#D68623" stop-opacity="0"/>
</radialGradient>
<radialGradient id="paint10_radial_10336_7344" cx="0" cy="0" r="1" gradientUnits="userSpaceOnUse" gradientTransform="translate(106.602 52.8414) rotate(48.2621) scale(10.9469 4.07702)">
<stop stop-color="#D28118"/>
<stop offset="1" stop-color="#D68623" stop-opacity="0"/>
</radialGradient>
<radialGradient id="paint11_radial_10336_7344" cx="0" cy="0" r="1" gradientUnits="userSpaceOnUse" gradientTransform="translate(100.435 50.7592) rotate(3.63295) scale(10.1108 4.15056)">
<stop stop-color="#D28118"/>
<stop offset="1" stop-color="#D68623" stop-opacity="0"/>
</radialGradient>
<radialGradient id="paint12_radial_10336_7344" cx="0" cy="0" r="1" gradientUnits="userSpaceOnUse" gradientTransform="translate(58.3115 56.8455) rotate(55.8403) scale(8.12955 3.50842)">
<stop stop-color="#BE7227"/>
<stop offset="1" stop-color="#C67A2A" stop-opacity="0"/>
</radialGradient>
<radialGradient id="paint13_radial_10336_7344" cx="0" cy="0" r="1" gradientUnits="userSpaceOnUse" gradientTransform="translate(52.1451 50.5189) rotate(22.6199) scale(8.32867 6.15327)">
<stop stop-color="#D07E2D"/>
<stop offset="1" stop-color="#D98833" stop-opacity="0"/>
</radialGradient>
<radialGradient id="paint14_radial_10336_7344" cx="0" cy="0" r="1" gradientUnits="userSpaceOnUse" gradientTransform="translate(46.3791 49.7181) rotate(-4.57392) scale(10.0424 7.68463)">
<stop stop-color="#D88431"/>
<stop offset="1" stop-color="#CF8231" stop-opacity="0"/>
</radialGradient>
<radialGradient id="paint15_radial_10336_7344" cx="0" cy="0" r="1" gradientUnits="userSpaceOnUse" gradientTransform="translate(37.2495 56.365) rotate(-66.5713) scale(10.4735 7.18443)">
<stop stop-color="#DA8924"/>
<stop offset="1" stop-color="#DC8924" stop-opacity="0"/>
</radialGradient>
<radialGradient id="paint16_radial_10336_7344" cx="0" cy="0" r="1" gradientUnits="userSpaceOnUse" gradientTransform="translate(33.3463 79.3985) rotate(8.71326) scale(22.6664)">
<stop stop-color="#F97660"/>
<stop offset="1" stop-color="#F97660" stop-opacity="0"/>
</radialGradient>
<radialGradient id="paint17_radial_10336_7344" cx="0" cy="0" r="1" gradientUnits="userSpaceOnUse" gradientTransform="translate(119.245 79.0801) rotate(-177.894) scale(31.4324)">
<stop stop-color="#FE9671"/>
<stop offset="1" stop-color="#FFD15A" stop-opacity="0"/>
</radialGradient>
<radialGradient id="paint18_radial_10336_7344" cx="0" cy="0" r="1" gradientUnits="userSpaceOnUse" gradientTransform="translate(102.301 56.2207) rotate(90) scale(15.1406 20.4748)">
<stop offset="0.307692" stop-color="#452A3D"/>
<stop offset="0.626374" stop-color="#594052"/>
<stop offset="1" stop-color="#482C40"/>
</radialGradient>
<radialGradient id="paint19_radial_10336_7344" cx="0" cy="0" r="1" gradientUnits="userSpaceOnUse" gradientTransform="translate(49.9028 56.2207) rotate(90) scale(15.1406 20.4748)">
<stop offset="0.307692" stop-color="#452A3D"/>
<stop offset="0.626374" stop-color="#594052"/>
<stop offset="1" stop-color="#482C40"/>
</radialGradient>
<radialGradient id="paint20_radial_10336_7344" cx="0" cy="0" r="1" gradientUnits="userSpaceOnUse" gradientTransform="translate(76 80.75) rotate(90) scale(28.5 43.6234)">
<stop offset="0.517632" stop-color="#4E2553"/>
<stop offset="0.702876" stop-color="#5E425A"/>
<stop offset="1" stop-color="#4E2553"/>
<stop offset="1" stop-color="#4E2553"/>
</radialGradient>
<radialGradient id="paint21_radial_10336_7344" cx="0" cy="0" r="1" gradientUnits="userSpaceOnUse" gradientTransform="translate(76 96.8229) rotate(90) scale(12.9722 63.0473)">
<stop offset="0.645531" stop-color="#4C2746" stop-opacity="0"/>
<stop offset="1" stop-color="#4E2847"/>
</radialGradient>
</defs>
</svg>
