<svg width="24" height="24" viewBox="0 0 24 24" fill="none" xmlns="http://www.w3.org/2000/svg">
<path fill-rule="evenodd" clip-rule="evenodd" d="M9.33333 9.52083C9.33333 8.80254 9.61428 8.11366 10.1144 7.60575C10.1944 7.52449 10.279 7.44892 10.3675 7.37931C10.8323 7.01384 11.4059 6.8125 12 6.8125C12.5941 6.8125 13.1677 7.01384 13.6325 7.37931C13.721 7.44892 13.8056 7.52449 13.8856 7.60575C14.3857 8.11366 14.6667 8.80254 14.6667 9.52083C14.6667 9.6115 14.6622 9.70169 14.6534 9.79111C14.5923 10.4101 14.3226 10.9921 13.8856 11.4359C13.7611 11.5624 13.6255 11.6751 13.4811 11.773C13.0981 12.0328 12.6536 12.1886 12.1905 12.2223C12.1273 12.2268 12.0638 12.2292 12 12.2292C11.9362 12.2292 11.8727 12.2268 11.8095 12.2223C11.3464 12.1886 10.9019 12.0328 10.5189 11.773C10.3745 11.6751 10.2389 11.5624 10.1144 11.4359C9.67741 10.9921 9.40775 10.4101 9.34664 9.79111C9.33781 9.70169 9.33333 9.6115 9.33333 9.52083ZM9.33333 13.5833C8.44928 13.5833 7.60143 13.94 6.97631 14.5749C6.35119 15.2098 6 16.0709 6 16.9688C6 17.0422 6.00391 17.1152 6.01162 17.1875C6.06049 17.6458 6.26183 18.076 6.58579 18.4051C6.96086 18.786 7.46957 19 8 19H16C16.5304 19 17.0391 18.786 17.4142 18.4051C17.7382 18.076 17.9395 17.6458 17.9884 17.1875C17.9961 17.1152 18 17.0422 18 16.9688C18 16.0709 17.6488 15.2098 17.0237 14.5749C16.3986 13.94 15.5507 13.5833 14.6667 13.5833H9.33333Z" fill="black"/>
<path fill-rule="evenodd" clip-rule="evenodd" d="M5.45725 5.79325C4.91548 6.30116 4.61111 6.99004 4.61111 7.70833C4.61111 8.42663 4.91548 9.1155 5.45725 9.62341C5.99902 10.1313 6.73382 10.4167 7.5 10.4167C7.81244 10.4167 8.11965 10.3692 8.41069 10.2786C8.3596 10.031 8.33333 9.7772 8.33333 9.52083C8.33333 8.54228 8.71594 7.60074 9.40182 6.90415C9.59245 6.71054 9.8022 6.54027 10.0267 6.39531C9.89724 6.17636 9.73493 5.97342 9.54275 5.79325C9.00098 5.28534 8.26618 5 7.5 5C6.73382 5 5.99902 5.28534 5.45725 5.79325ZM4.61111 11.7708H9.08532C9.18219 11.8992 9.28782 12.0217 9.40182 12.1375C9.56548 12.3037 9.74324 12.4528 9.93232 12.5833H9.33333C8.17902 12.5833 7.07517 13.0492 6.26374 13.8733C5.45284 14.6969 5 15.8106 5 16.9688C5 17.042 5.00262 17.1149 5.00782 17.1875H3.16667C2.59203 17.1875 2.04093 16.9735 1.6346 16.5926C1.22827 16.2116 1 15.695 1 15.1562C1 14.2584 1.38046 13.3973 2.05767 12.7624C2.73488 12.1275 3.65338 11.7708 4.61111 11.7708ZM18.9922 17.1875H20.8333C21.408 17.1875 21.9591 16.9735 22.3654 16.5926C22.7717 16.2116 23 15.695 23 15.1562C23 14.2584 22.6195 13.3973 21.9423 12.7624C21.2651 12.1275 20.3466 11.7708 19.3889 11.7708H14.9147C14.8178 11.8992 14.7122 12.0217 14.5982 12.1375C14.4345 12.3037 14.2568 12.4528 14.0677 12.5833H14.6667C15.821 12.5833 16.9248 13.0492 17.7363 13.8733C18.5472 14.6969 19 15.8106 19 16.9688C19 17.042 18.9974 17.1149 18.9922 17.1875ZM13.9733 6.39531C14.1978 6.54027 14.4076 6.71054 14.5982 6.90415C15.2841 7.60074 15.6667 8.54228 15.6667 9.52083C15.6667 9.7772 15.6404 10.031 15.5893 10.2786C15.8803 10.3692 16.1876 10.4167 16.5 10.4167C17.2662 10.4167 18.001 10.1313 18.5428 9.62341C19.0845 9.1155 19.3889 8.42663 19.3889 7.70833C19.3889 6.99004 19.0845 6.30116 18.5428 5.79325C18.001 5.28534 17.2662 5 16.5 5C15.7338 5 14.999 5.28534 14.4572 5.79325C14.2651 5.97342 14.1028 6.17636 13.9733 6.39531Z" fill="black"/>
</svg>
