<svg width="152" height="152" viewBox="0 0 152 152" fill="none" xmlns="http://www.w3.org/2000/svg">
<path d="M75.9947 142.489C120.333 142.489 142.489 112.719 142.489 75.9947C142.489 39.2707 120.333 9.5 75.9947 9.5C31.6561 9.5 9.5 39.2707 9.5 75.9947C9.5 112.719 31.6561 142.489 75.9947 142.489Z" fill="url(#paint0_radial_10336_7358)"/>
<path d="M75.9947 142.489C120.333 142.489 142.489 112.719 142.489 75.9947C142.489 39.2707 120.333 9.5 75.9947 9.5C31.6561 9.5 9.5 39.2707 9.5 75.9947C9.5 112.719 31.6561 142.489 75.9947 142.489Z" fill="url(#paint1_radial_10336_7358)"/>
<path d="M75.9947 142.489C120.333 142.489 142.489 112.719 142.489 75.9947C142.489 39.2707 120.333 9.5 75.9947 9.5C31.6561 9.5 9.5 39.2707 9.5 75.9947C9.5 112.719 31.6561 142.489 75.9947 142.489Z" fill="url(#paint2_radial_10336_7358)"/>
<path d="M75.9947 142.489C120.333 142.489 142.489 112.719 142.489 75.9947C142.489 39.2707 120.333 9.5 75.9947 9.5C31.6561 9.5 9.5 39.2707 9.5 75.9947C9.5 112.719 31.6561 142.489 75.9947 142.489Z" fill="url(#paint3_radial_10336_7358)" fill-opacity="0.6"/>
<path d="M75.9947 142.489C120.333 142.489 142.489 112.719 142.489 75.9947C142.489 39.2707 120.333 9.5 75.9947 9.5C31.6561 9.5 9.5 39.2707 9.5 75.9947C9.5 112.719 31.6561 142.489 75.9947 142.489Z" fill="url(#paint4_radial_10336_7358)"/>
<path d="M75.9947 142.489C120.333 142.489 142.489 112.719 142.489 75.9947C142.489 39.2707 120.333 9.5 75.9947 9.5C31.6561 9.5 9.5 39.2707 9.5 75.9947C9.5 112.719 31.6561 142.489 75.9947 142.489Z" fill="url(#paint5_radial_10336_7358)"/>
<path d="M75.9947 142.489C120.333 142.489 142.489 112.719 142.489 75.9947C142.489 39.2707 120.333 9.5 75.9947 9.5C31.6561 9.5 9.5 39.2707 9.5 75.9947C9.5 112.719 31.6561 142.489 75.9947 142.489Z" fill="url(#paint6_radial_10336_7358)"/>
<path d="M75.9947 142.489C120.333 142.489 142.489 112.719 142.489 75.9947C142.489 39.2707 120.333 9.5 75.9947 9.5C31.6561 9.5 9.5 39.2707 9.5 75.9947C9.5 112.719 31.6561 142.489 75.9947 142.489Z" fill="url(#paint7_radial_10336_7358)"/>
<path d="M75.9947 142.489C120.333 142.489 142.489 112.719 142.489 75.9947C142.489 39.2707 120.333 9.5 75.9947 9.5C31.6561 9.5 9.5 39.2707 9.5 75.9947C9.5 112.719 31.6561 142.489 75.9947 142.489Z" fill="url(#paint8_radial_10336_7358)"/>
<path d="M75.9947 142.489C120.333 142.489 142.489 112.719 142.489 75.9947C142.489 39.2707 120.333 9.5 75.9947 9.5C31.6561 9.5 9.5 39.2707 9.5 75.9947C9.5 112.719 31.6561 142.489 75.9947 142.489Z" fill="url(#paint9_radial_10336_7358)"/>
<path d="M75.9947 142.489C120.333 142.489 142.489 112.719 142.489 75.9947C142.489 39.2707 120.333 9.5 75.9947 9.5C31.6561 9.5 9.5 39.2707 9.5 75.9947C9.5 112.719 31.6561 142.489 75.9947 142.489Z" fill="url(#paint10_radial_10336_7358)"/>
<path d="M75.9947 142.489C120.333 142.489 142.489 112.719 142.489 75.9947C142.489 39.2707 120.333 9.5 75.9947 9.5C31.6561 9.5 9.5 39.2707 9.5 75.9947C9.5 112.719 31.6561 142.489 75.9947 142.489Z" fill="url(#paint11_radial_10336_7358)"/>
<path d="M75.9947 142.489C120.333 142.489 142.489 112.719 142.489 75.9947C142.489 39.2707 120.333 9.5 75.9947 9.5C31.6561 9.5 9.5 39.2707 9.5 75.9947C9.5 112.719 31.6561 142.489 75.9947 142.489Z" fill="url(#paint12_radial_10336_7358)"/>
<path d="M75.9947 142.489C120.333 142.489 142.489 112.719 142.489 75.9947C142.489 39.2707 120.333 9.5 75.9947 9.5C31.6561 9.5 9.5 39.2707 9.5 75.9947C9.5 112.719 31.6561 142.489 75.9947 142.489Z" fill="url(#paint13_radial_10336_7358)"/>
<path d="M75.9947 142.489C120.333 142.489 142.489 112.719 142.489 75.9947C142.489 39.2707 120.333 9.5 75.9947 9.5C31.6561 9.5 9.5 39.2707 9.5 75.9947C9.5 112.719 31.6561 142.489 75.9947 142.489Z" fill="url(#paint14_radial_10336_7358)"/>
<path d="M75.9947 142.489C120.333 142.489 142.489 112.719 142.489 75.9947C142.489 39.2707 120.333 9.5 75.9947 9.5C31.6561 9.5 9.5 39.2707 9.5 75.9947C9.5 112.719 31.6561 142.489 75.9947 142.489Z" fill="url(#paint15_radial_10336_7358)"/>
<path d="M75.9947 142.489C120.333 142.489 142.489 112.719 142.489 75.9947C142.489 39.2707 120.333 9.5 75.9947 9.5C31.6561 9.5 9.5 39.2707 9.5 75.9947C9.5 112.719 31.6561 142.489 75.9947 142.489Z" fill="url(#paint16_radial_10336_7358)"/>
<path fill-rule="evenodd" clip-rule="evenodd" d="M41.7517 64.663C40.1726 66.6986 37.2479 67.1072 35.169 65.5644C33.0901 64.0216 32.6219 61.021 34.1885 58.915L34.1918 58.9106L34.1986 58.9015L34.2134 58.8819L34.3335 58.7278C34.399 58.6459 34.481 58.5468 34.5798 58.4329C34.7772 58.2054 35.043 57.9178 35.3806 57.5916C36.0551 56.94 37.0235 56.1272 38.3121 55.3323C40.9218 53.7225 44.7456 52.25 49.8747 52.25C55.0038 52.25 58.8276 53.7225 61.4373 55.3323C62.7259 56.1272 63.6943 56.94 64.3688 57.5916C64.7064 57.9178 64.9723 58.2054 65.1697 58.4329C65.2685 58.5468 65.3504 58.6459 65.4159 58.7278L65.5021 58.8373L65.5361 58.8819L65.5508 58.9015L65.5577 58.9106C67.5333 61.4353 66.6593 64.0216 64.5804 65.5644C62.5015 67.1072 59.5768 66.6986 57.9977 64.6629L57.9942 64.6589C57.9662 64.6266 57.8914 64.5431 57.7681 64.424C57.5208 64.185 57.086 63.8103 56.4496 63.4177C55.2093 62.6525 53.0956 61.75 49.8747 61.75C46.6538 61.75 44.5402 62.6525 43.2998 63.4177C42.6634 63.8103 42.2287 64.185 41.9813 64.424C41.858 64.5431 41.7832 64.6266 41.7552 64.6589L41.7517 64.663Z" fill="url(#paint17_radial_10336_7358)"/>
<path fill-rule="evenodd" clip-rule="evenodd" d="M41.7517 64.663C40.1726 66.6986 37.2479 67.1072 35.169 65.5644C33.0901 64.0216 32.6219 61.021 34.1885 58.915L34.1918 58.9106L34.1986 58.9015L34.2134 58.8819L34.3335 58.7278C34.399 58.6459 34.481 58.5468 34.5798 58.4329C34.7772 58.2054 35.043 57.9178 35.3806 57.5916C36.0551 56.94 37.0235 56.1272 38.3121 55.3323C40.9218 53.7225 44.7456 52.25 49.8747 52.25C55.0038 52.25 58.8276 53.7225 61.4373 55.3323C62.7259 56.1272 63.6943 56.94 64.3688 57.5916C64.7064 57.9178 64.9723 58.2054 65.1697 58.4329C65.2685 58.5468 65.3504 58.6459 65.4159 58.7278L65.5021 58.8373L65.5361 58.8819L65.5508 58.9015L65.5577 58.9106C67.5333 61.4353 66.6593 64.0216 64.5804 65.5644C62.5015 67.1072 59.5768 66.6986 57.9977 64.6629L57.9942 64.6589C57.9662 64.6266 57.8914 64.5431 57.7681 64.424C57.5208 64.185 57.086 63.8103 56.4496 63.4177C55.2093 62.6525 53.0956 61.75 49.8747 61.75C46.6538 61.75 44.5402 62.6525 43.2998 63.4177C42.6634 63.8103 42.2287 64.185 41.9813 64.424C41.858 64.5431 41.7832 64.6266 41.7552 64.6589L41.7517 64.663Z" fill="url(#paint18_radial_10336_7358)"/>
<path fill-rule="evenodd" clip-rule="evenodd" d="M41.7517 64.663C40.1726 66.6986 37.2479 67.1072 35.169 65.5644C33.0901 64.0216 32.6219 61.021 34.1885 58.915L34.1918 58.9106L34.1986 58.9015L34.2134 58.8819L34.3335 58.7278C34.399 58.6459 34.481 58.5468 34.5798 58.4329C34.7772 58.2054 35.043 57.9178 35.3806 57.5916C36.0551 56.94 37.0235 56.1272 38.3121 55.3323C40.9218 53.7225 44.7456 52.25 49.8747 52.25C55.0038 52.25 58.8276 53.7225 61.4373 55.3323C62.7259 56.1272 63.6943 56.94 64.3688 57.5916C64.7064 57.9178 64.9723 58.2054 65.1697 58.4329C65.2685 58.5468 65.3504 58.6459 65.4159 58.7278L65.5021 58.8373L65.5361 58.8819L65.5508 58.9015L65.5577 58.9106C67.5333 61.4353 66.6593 64.0216 64.5804 65.5644C62.5015 67.1072 59.5768 66.6986 57.9977 64.6629L57.9942 64.6589C57.9662 64.6266 57.8914 64.5431 57.7681 64.424C57.5208 64.185 57.086 63.8103 56.4496 63.4177C55.2093 62.6525 53.0956 61.75 49.8747 61.75C46.6538 61.75 44.5402 62.6525 43.2998 63.4177C42.6634 63.8103 42.2287 64.185 41.9813 64.424C41.858 64.5431 41.7832 64.6266 41.7552 64.6589L41.7517 64.663Z" fill="url(#paint19_radial_10336_7358)"/>
<path fill-rule="evenodd" clip-rule="evenodd" d="M94.0023 64.663C92.4232 66.6986 89.4985 67.1072 87.4196 65.5644C85.313 64.001 84.8725 61.0259 86.4359 58.9193L86.4391 58.915L86.4424 58.9106L86.4492 58.9015L86.4639 58.8819L86.4979 58.8373L86.5841 58.7278C86.6496 58.6459 86.7315 58.5468 86.8303 58.4329C87.0278 58.2054 87.2936 57.9178 87.6312 57.5916C88.3057 56.94 89.2741 56.1272 90.5627 55.3323C93.1724 53.7225 96.9962 52.25 102.125 52.25C107.254 52.25 111.078 53.7225 113.688 55.3323C114.976 56.1272 115.945 56.94 116.619 57.5916C116.957 57.9178 117.223 58.2054 117.42 58.4329C117.519 58.5468 117.601 58.6459 117.667 58.7278L117.753 58.8373L117.787 58.8819L117.801 58.9015L117.808 58.9106L117.812 58.915L117.815 58.9193C119.378 61.0259 118.938 64.001 116.831 65.5644C114.752 67.1072 111.827 66.6986 110.248 64.6629L110.245 64.6589C110.217 64.6266 110.142 64.5431 110.019 64.424C109.771 64.185 109.337 63.8103 108.7 63.4177C107.46 62.6525 105.346 61.75 102.125 61.75C98.9044 61.75 96.7907 62.6525 95.5504 63.4177C94.914 63.8103 94.4793 64.185 94.2319 64.424C94.1086 64.5431 94.0338 64.6266 94.0058 64.6589L94.0023 64.663Z" fill="url(#paint20_radial_10336_7358)"/>
<path fill-rule="evenodd" clip-rule="evenodd" d="M94.0023 64.663C92.4232 66.6986 89.4985 67.1072 87.4196 65.5644C85.313 64.001 84.8725 61.0259 86.4359 58.9193L86.4391 58.915L86.4424 58.9106L86.4492 58.9015L86.4639 58.8819L86.4979 58.8373L86.5841 58.7278C86.6496 58.6459 86.7315 58.5468 86.8303 58.4329C87.0278 58.2054 87.2936 57.9178 87.6312 57.5916C88.3057 56.94 89.2741 56.1272 90.5627 55.3323C93.1724 53.7225 96.9962 52.25 102.125 52.25C107.254 52.25 111.078 53.7225 113.688 55.3323C114.976 56.1272 115.945 56.94 116.619 57.5916C116.957 57.9178 117.223 58.2054 117.42 58.4329C117.519 58.5468 117.601 58.6459 117.667 58.7278L117.753 58.8373L117.787 58.8819L117.801 58.9015L117.808 58.9106L117.812 58.915L117.815 58.9193C119.378 61.0259 118.938 64.001 116.831 65.5644C114.752 67.1072 111.827 66.6986 110.248 64.6629L110.245 64.6589C110.217 64.6266 110.142 64.5431 110.019 64.424C109.771 64.185 109.337 63.8103 108.7 63.4177C107.46 62.6525 105.346 61.75 102.125 61.75C98.9044 61.75 96.7907 62.6525 95.5504 63.4177C94.914 63.8103 94.4793 64.185 94.2319 64.424C94.1086 64.5431 94.0338 64.6266 94.0058 64.6589L94.0023 64.663Z" fill="url(#paint21_radial_10336_7358)"/>
<path fill-rule="evenodd" clip-rule="evenodd" d="M94.0023 64.663C92.4232 66.6986 89.4985 67.1072 87.4196 65.5644C85.313 64.001 84.8725 61.0259 86.4359 58.9193L86.4391 58.915L86.4424 58.9106L86.4492 58.9015L86.4639 58.8819L86.4979 58.8373L86.5841 58.7278C86.6496 58.6459 86.7315 58.5468 86.8303 58.4329C87.0278 58.2054 87.2936 57.9178 87.6312 57.5916C88.3057 56.94 89.2741 56.1272 90.5627 55.3323C93.1724 53.7225 96.9962 52.25 102.125 52.25C107.254 52.25 111.078 53.7225 113.688 55.3323C114.976 56.1272 115.945 56.94 116.619 57.5916C116.957 57.9178 117.223 58.2054 117.42 58.4329C117.519 58.5468 117.601 58.6459 117.667 58.7278L117.753 58.8373L117.787 58.8819L117.801 58.9015L117.808 58.9106L117.812 58.915L117.815 58.9193C119.378 61.0259 118.938 64.001 116.831 65.5644C114.752 67.1072 111.827 66.6986 110.248 64.6629L110.245 64.6589C110.217 64.6266 110.142 64.5431 110.019 64.424C109.771 64.185 109.337 63.8103 108.7 63.4177C107.46 62.6525 105.346 61.75 102.125 61.75C98.9044 61.75 96.7907 62.6525 95.5504 63.4177C94.914 63.8103 94.4793 64.185 94.2319 64.424C94.1086 64.5431 94.0338 64.6266 94.0058 64.6589L94.0023 64.663Z" fill="url(#paint22_radial_10336_7358)"/>
<path d="M83.9321 80.3696C81.3088 80.3696 79.1821 82.4963 79.1821 85.1196C79.1821 87.743 81.3088 89.8696 83.9321 89.8696C85.2988 89.8696 86.4021 90.973 86.4021 92.3396C86.4021 93.7063 85.2988 94.8096 83.9321 94.8096C81.3088 94.8096 79.1821 96.9363 79.1821 99.5596C79.1821 99.5596 79.1821 99.5597 79.1821 99.5596C79.1821 102.183 81.3088 104.31 83.9321 104.31C85.2988 104.31 86.4021 105.413 86.4021 106.78C86.4021 108.146 85.2988 109.25 83.9321 109.25C81.3088 109.25 79.1821 111.376 79.1821 114C79.1821 116.623 81.3088 118.75 83.9321 118.75C90.5455 118.75 95.9021 113.393 95.9021 106.78C95.9021 104.067 95.0011 101.566 93.4818 99.5597C95.0011 97.553 95.9021 95.052 95.9021 92.3396C95.9021 85.7263 90.5455 80.3696 83.9321 80.3696Z" fill="url(#paint23_radial_10336_7358)"/>
<path d="M83.9321 80.3696C81.3088 80.3696 79.1821 82.4963 79.1821 85.1196C79.1821 87.743 81.3088 89.8696 83.9321 89.8696C85.2988 89.8696 86.4021 90.973 86.4021 92.3396C86.4021 93.7063 85.2988 94.8096 83.9321 94.8096C81.3088 94.8096 79.1821 96.9363 79.1821 99.5596C79.1821 99.5596 79.1821 99.5597 79.1821 99.5596C79.1821 102.183 81.3088 104.31 83.9321 104.31C85.2988 104.31 86.4021 105.413 86.4021 106.78C86.4021 108.146 85.2988 109.25 83.9321 109.25C81.3088 109.25 79.1821 111.376 79.1821 114C79.1821 116.623 81.3088 118.75 83.9321 118.75C90.5455 118.75 95.9021 113.393 95.9021 106.78C95.9021 104.067 95.0011 101.566 93.4818 99.5597C95.0011 97.553 95.9021 95.052 95.9021 92.3396C95.9021 85.7263 90.5455 80.3696 83.9321 80.3696Z" fill="url(#paint24_radial_10336_7358)"/>
<path d="M83.9321 80.3696C81.3088 80.3696 79.1821 82.4963 79.1821 85.1196C79.1821 87.743 81.3088 89.8696 83.9321 89.8696C85.2988 89.8696 86.4021 90.973 86.4021 92.3396C86.4021 93.7063 85.2988 94.8096 83.9321 94.8096C81.3088 94.8096 79.1821 96.9363 79.1821 99.5596C79.1821 99.5596 79.1821 99.5597 79.1821 99.5596C79.1821 102.183 81.3088 104.31 83.9321 104.31C85.2988 104.31 86.4021 105.413 86.4021 106.78C86.4021 108.146 85.2988 109.25 83.9321 109.25C81.3088 109.25 79.1821 111.376 79.1821 114C79.1821 116.623 81.3088 118.75 83.9321 118.75C90.5455 118.75 95.9021 113.393 95.9021 106.78C95.9021 104.067 95.0011 101.566 93.4818 99.5597C95.0011 97.553 95.9021 95.052 95.9021 92.3396C95.9021 85.7263 90.5455 80.3696 83.9321 80.3696Z" fill="url(#paint25_linear_10336_7358)"/>
<path d="M83.9321 80.3696C81.3088 80.3696 79.1821 82.4963 79.1821 85.1196C79.1821 87.743 81.3088 89.8696 83.9321 89.8696C85.2988 89.8696 86.4021 90.973 86.4021 92.3396C86.4021 93.7063 85.2988 94.8096 83.9321 94.8096C81.3088 94.8096 79.1821 96.9363 79.1821 99.5596C79.1821 99.5596 79.1821 99.5597 79.1821 99.5596C79.1821 102.183 81.3088 104.31 83.9321 104.31C85.2988 104.31 86.4021 105.413 86.4021 106.78C86.4021 108.146 85.2988 109.25 83.9321 109.25C81.3088 109.25 79.1821 111.376 79.1821 114C79.1821 116.623 81.3088 118.75 83.9321 118.75C90.5455 118.75 95.9021 113.393 95.9021 106.78C95.9021 104.067 95.0011 101.566 93.4818 99.5597C95.0011 97.553 95.9021 95.052 95.9021 92.3396C95.9021 85.7263 90.5455 80.3696 83.9321 80.3696Z" fill="url(#paint26_radial_10336_7358)"/>
<path d="M83.9321 80.3696C81.3088 80.3696 79.1821 82.4963 79.1821 85.1196C79.1821 87.743 81.3088 89.8696 83.9321 89.8696C85.2988 89.8696 86.4021 90.973 86.4021 92.3396C86.4021 93.7063 85.2988 94.8096 83.9321 94.8096C81.3088 94.8096 79.1821 96.9363 79.1821 99.5596C79.1821 99.5596 79.1821 99.5597 79.1821 99.5596C79.1821 102.183 81.3088 104.31 83.9321 104.31C85.2988 104.31 86.4021 105.413 86.4021 106.78C86.4021 108.146 85.2988 109.25 83.9321 109.25C81.3088 109.25 79.1821 111.376 79.1821 114C79.1821 116.623 81.3088 118.75 83.9321 118.75C90.5455 118.75 95.9021 113.393 95.9021 106.78C95.9021 104.067 95.0011 101.566 93.4818 99.5597C95.0011 97.553 95.9021 95.052 95.9021 92.3396C95.9021 85.7263 90.5455 80.3696 83.9321 80.3696Z" fill="url(#paint27_radial_10336_7358)"/>
<defs>
<radialGradient id="paint0_radial_10336_7358" cx="0" cy="0" r="1" gradientUnits="userSpaceOnUse" gradientTransform="translate(121.125 42.75) rotate(132.839) scale(178.141)">
<stop stop-color="#FFF478"/>
<stop offset="0.474827" stop-color="#FFB02E"/>
<stop offset="1" stop-color="#F70A8D"/>
</radialGradient>
<radialGradient id="paint1_radial_10336_7358" cx="0" cy="0" r="1" gradientUnits="userSpaceOnUse" gradientTransform="translate(121.125 42.75) rotate(131.878) scale(185.006)">
<stop stop-color="#FFF478"/>
<stop offset="0.474827" stop-color="#FFB02E"/>
<stop offset="1" stop-color="#F70A8D"/>
</radialGradient>
<radialGradient id="paint2_radial_10336_7358" cx="0" cy="0" r="1" gradientUnits="userSpaceOnUse" gradientTransform="translate(76 59.375) rotate(101.31) scale(84.7712 108.576)">
<stop offset="0.787821" stop-color="#F59639" stop-opacity="0"/>
<stop offset="0.972509" stop-color="#FF7DCE"/>
</radialGradient>
<radialGradient id="paint3_radial_10336_7358" cx="0" cy="0" r="1" gradientUnits="userSpaceOnUse" gradientTransform="translate(85.5 66.5) rotate(135) scale(194.808)">
<stop offset="0.314853" stop-opacity="0"/>
<stop offset="1"/>
</radialGradient>
<radialGradient id="paint4_radial_10336_7358" cx="0" cy="0" r="1" gradientUnits="userSpaceOnUse" gradientTransform="translate(76 80.75) rotate(77.692) scale(133.698)">
<stop offset="0.507903" stop-color="#7D6133" stop-opacity="0"/>
<stop offset="1" stop-color="#715B32"/>
</radialGradient>
<radialGradient id="paint5_radial_10336_7358" cx="0" cy="0" r="1" gradientUnits="userSpaceOnUse" gradientTransform="translate(78.375 78.375) rotate(55.7131) scale(63.2393 45.839)">
<stop stop-color="#FFB849"/>
<stop offset="1" stop-color="#FFB847" stop-opacity="0"/>
</radialGradient>
<radialGradient id="paint6_radial_10336_7358" cx="0" cy="0" r="1" gradientUnits="userSpaceOnUse" gradientTransform="translate(97.375 85.5) rotate(9.86581) scale(55.4449)">
<stop stop-color="#FFA64B"/>
<stop offset="0.900412" stop-color="#FFAE46" stop-opacity="0"/>
</radialGradient>
<radialGradient id="paint7_radial_10336_7358" cx="0" cy="0" r="1" gradientUnits="userSpaceOnUse" gradientTransform="translate(83.125 71.25) rotate(43.9708) scale(280.501)">
<stop offset="0.185425" stop-opacity="0"/>
<stop offset="1" stop-opacity="0.4"/>
</radialGradient>
<radialGradient id="paint8_radial_10336_7358" cx="0" cy="0" r="1" gradientUnits="userSpaceOnUse" gradientTransform="translate(44.186 62.1071) rotate(-10.3912) scale(33.587 24.7886)">
<stop stop-color="#F1A227"/>
<stop offset="1" stop-color="#F5A72C" stop-opacity="0"/>
</radialGradient>
<radialGradient id="paint9_radial_10336_7358" cx="0" cy="0" r="1" gradientUnits="userSpaceOnUse" gradientTransform="translate(88.2665 65.404) rotate(144.019) scale(6.16185)">
<stop stop-color="#E8942F"/>
<stop offset="1" stop-color="#FAAB4B" stop-opacity="0"/>
</radialGradient>
<radialGradient id="paint10_radial_10336_7358" cx="0" cy="0" r="1" gradientUnits="userSpaceOnUse" gradientTransform="translate(110.37 63.6492) rotate(36.1193) scale(6.77978 4.74204)">
<stop stop-color="#D27C1D"/>
<stop offset="1" stop-color="#CB7620" stop-opacity="0"/>
</radialGradient>
<radialGradient id="paint11_radial_10336_7358" cx="0" cy="0" r="1" gradientUnits="userSpaceOnUse" gradientTransform="translate(100.738 59.8274) rotate(24.5816) scale(10.5437 3.77421)">
<stop stop-color="#D28118"/>
<stop offset="1" stop-color="#D68623" stop-opacity="0"/>
</radialGradient>
<radialGradient id="paint12_radial_10336_7358" cx="0" cy="0" r="1" gradientUnits="userSpaceOnUse" gradientTransform="translate(57.887 60.816) rotate(43.0908) scale(9.57309 7.76976)">
<stop stop-color="#BE7227"/>
<stop offset="1" stop-color="#C67A2A" stop-opacity="0"/>
</radialGradient>
<radialGradient id="paint13_radial_10336_7358" cx="0" cy="0" r="1" gradientUnits="userSpaceOnUse" gradientTransform="translate(51.5732 58.6338) rotate(35.5907) scale(10.0968 7.45956)">
<stop stop-color="#D07E2D"/>
<stop offset="1" stop-color="#D98833" stop-opacity="0"/>
</radialGradient>
<radialGradient id="paint14_radial_10336_7358" cx="0" cy="0" r="1" gradientUnits="userSpaceOnUse" gradientTransform="translate(46.724 58.7863) rotate(12.0306) scale(7.03266 5.38151)">
<stop stop-color="#D88431"/>
<stop offset="1" stop-color="#CF8231" stop-opacity="0"/>
</radialGradient>
<radialGradient id="paint15_radial_10336_7358" cx="0" cy="0" r="1" gradientUnits="userSpaceOnUse" gradientTransform="translate(36.5467 63.4049) rotate(-58.7844) scale(7.70981 6.23999)">
<stop stop-color="#DA8924"/>
<stop offset="1" stop-color="#DC8924" stop-opacity="0"/>
</radialGradient>
<radialGradient id="paint16_radial_10336_7358" cx="0" cy="0" r="1" gradientUnits="userSpaceOnUse" gradientTransform="translate(48.4842 58.1492) scale(17.1634 10.8267)">
<stop stop-color="#D59A13"/>
<stop offset="1" stop-color="#D59A13" stop-opacity="0"/>
</radialGradient>
<radialGradient id="paint17_radial_10336_7358" cx="0" cy="0" r="1" gradientUnits="userSpaceOnUse" gradientTransform="translate(53.2745 65.6056) rotate(99.7276) scale(14.7819 30.556)">
<stop offset="0.287352" stop-color="#4C274A"/>
<stop offset="0.52596" stop-color="#543E50"/>
<stop offset="0.608331" stop-color="#543E50"/>
<stop offset="0.8125" stop-color="#4D3736"/>
</radialGradient>
<radialGradient id="paint18_radial_10336_7358" cx="0" cy="0" r="1" gradientUnits="userSpaceOnUse" gradientTransform="translate(50.6225 59.375) rotate(95.3439) scale(8.02882 18.4503)">
<stop offset="0.645531" stop-color="#4C2746" stop-opacity="0"/>
<stop offset="1" stop-color="#4E2847"/>
</radialGradient>
<radialGradient id="paint19_radial_10336_7358" cx="0" cy="0" r="1" gradientUnits="userSpaceOnUse" gradientTransform="translate(62.4578 60.4881) rotate(162.926) scale(5.8643 4.69916)">
<stop stop-color="#563E51"/>
<stop offset="1" stop-color="#563E51" stop-opacity="0"/>
</radialGradient>
<radialGradient id="paint20_radial_10336_7358" cx="0" cy="0" r="1" gradientUnits="userSpaceOnUse" gradientTransform="translate(103.46 66.0631) rotate(90) scale(17.0521 32.3307)">
<stop offset="0.287352" stop-color="#4C274A"/>
<stop offset="0.52596" stop-color="#543E50"/>
<stop offset="0.608331" stop-color="#543E50"/>
<stop offset="0.8125" stop-color="#4D3736"/>
</radialGradient>
<radialGradient id="paint21_radial_10336_7358" cx="0" cy="0" r="1" gradientUnits="userSpaceOnUse" gradientTransform="translate(102.873 59.375) rotate(95.3439) scale(8.02882 18.4503)">
<stop offset="0.645531" stop-color="#4C2746" stop-opacity="0"/>
<stop offset="1" stop-color="#4E2847"/>
</radialGradient>
<radialGradient id="paint22_radial_10336_7358" cx="0" cy="0" r="1" gradientUnits="userSpaceOnUse" gradientTransform="translate(114.708 60.4881) rotate(162.926) scale(5.8643 4.69916)">
<stop stop-color="#563E51"/>
<stop offset="1" stop-color="#563E51" stop-opacity="0"/>
</radialGradient>
<radialGradient id="paint23_radial_10336_7358" cx="0" cy="0" r="1" gradientUnits="userSpaceOnUse" gradientTransform="translate(82.9244 105.388) scale(15.1621 13.578)">
<stop stop-color="#3D1837"/>
<stop offset="0.660606" stop-color="#5B4950"/>
<stop offset="0.751515" stop-color="#5B4950"/>
<stop offset="1" stop-color="#553445"/>
</radialGradient>
<radialGradient id="paint24_radial_10336_7358" cx="0" cy="0" r="1" gradientUnits="userSpaceOnUse" gradientTransform="translate(83.0359 91.4525) rotate(3.24734) scale(15.7448 12.4599)">
<stop stop-color="#4D254F"/>
<stop offset="0.660606" stop-color="#5B4950"/>
<stop offset="0.751515" stop-color="#5B4950"/>
<stop offset="1" stop-color="#553445" stop-opacity="0"/>
</radialGradient>
<linearGradient id="paint25_linear_10336_7358" x1="78.4649" y1="99.5598" x2="88.2757" y2="99.5598" gradientUnits="userSpaceOnUse">
<stop stop-color="#462A3A"/>
<stop offset="1" stop-color="#462A3A" stop-opacity="0"/>
</linearGradient>
<radialGradient id="paint26_radial_10336_7358" cx="0" cy="0" r="1" gradientUnits="userSpaceOnUse" gradientTransform="translate(83.6486 105.115) rotate(90.5729) scale(6.96002)">
<stop stop-color="#472A35"/>
<stop offset="1" stop-color="#472A35" stop-opacity="0"/>
</radialGradient>
<radialGradient id="paint27_radial_10336_7358" cx="0" cy="0" r="1" gradientUnits="userSpaceOnUse" gradientTransform="translate(93.5156 99.5598) rotate(90) scale(0.282597 4.27582)">
<stop stop-color="#472E46"/>
<stop offset="1" stop-color="#533552" stop-opacity="0"/>
</radialGradient>
</defs>
</svg>
