<svg width="19" height="24" viewBox="0 0 19 24" fill="none" xmlns="http://www.w3.org/2000/svg">
<path d="M9.76719 6.04451C10.7656 6.04451 12.0172 5.36951 12.7625 4.46951C13.4375 3.65388 13.9297 2.51482 13.9297 1.37576C13.9297 1.22107 13.9156 1.06638 13.8875 0.939819C12.7766 0.982007 11.4406 1.68513 10.6391 2.62732C10.0063 3.34451 9.42969 4.46951 9.42969 5.62263C9.42969 5.79138 9.45781 5.96013 9.47187 6.01638C9.54219 6.03044 9.65469 6.04451 9.76719 6.04451ZM6.25156 23.0601C7.61562 23.0601 8.22031 22.1461 9.92187 22.1461C11.6516 22.1461 12.0312 23.032 13.55 23.032C15.0406 23.032 16.0391 21.6539 16.9812 20.3039C18.0359 18.757 18.4719 17.2383 18.5 17.1679C18.4016 17.1398 15.5469 15.9726 15.5469 12.6961C15.5469 9.85544 17.7969 8.57576 17.9234 8.47732C16.4328 6.33982 14.1687 6.28357 13.55 6.28357C11.8766 6.28357 10.5125 7.29607 9.65469 7.29607C8.72656 7.29607 7.50312 6.33982 6.05469 6.33982C3.29844 6.33982 0.5 8.61794 0.5 12.9211C0.5 15.5929 1.54062 18.4195 2.82031 20.2476C3.91719 21.7945 4.87344 23.0601 6.25156 23.0601Z" fill="black"/>
</svg>
