<svg width="152" height="152" viewBox="0 0 152 152" fill="none" xmlns="http://www.w3.org/2000/svg">
<path d="M77.4013 73.0579C48.5688 73.0579 25.1513 96.4279 25.1513 125.308V141.933H129.604V125.308C129.604 96.4279 106.234 73.0579 77.4013 73.0579Z" fill="#56436B"/>
<path d="M77.4013 73.0579C48.5688 73.0579 25.1513 96.4279 25.1513 125.308V141.933H129.604V125.308C129.604 96.4279 106.234 73.0579 77.4013 73.0579Z" fill="url(#paint0_radial_10336_9067)"/>
<path d="M77.4013 73.0579C48.5688 73.0579 25.1513 96.4279 25.1513 125.308V141.933H129.604V125.308C129.604 96.4279 106.234 73.0579 77.4013 73.0579Z" fill="url(#paint1_radial_10336_9067)"/>
<path d="M111.031 84.7773C111.078 84.6777 111.054 84.5589 110.972 84.4855C102.104 76.5837 90.0485 72.2148 77.4146 72.2148C64.7809 72.2148 52.6525 76.6306 43.7839 84.486C43.7013 84.5591 43.677 84.6778 43.724 84.7776C49.6863 97.4272 61.6019 107.32 77.4146 107.32C93.2275 107.32 105.024 97.4271 111.031 84.7773Z" fill="url(#paint2_radial_10336_9067)"/>
<path d="M111.031 84.7773C111.078 84.6777 111.054 84.5589 110.972 84.4855C102.104 76.5837 90.0485 72.2148 77.4146 72.2148C64.7809 72.2148 52.6525 76.6306 43.7839 84.486C43.7013 84.5591 43.677 84.6778 43.724 84.7776C49.6863 97.4272 61.6019 107.32 77.4146 107.32C93.2275 107.32 105.024 97.4271 111.031 84.7773Z" fill="url(#paint3_radial_10336_9067)"/>
<path d="M111.031 84.7773C111.078 84.6777 111.054 84.5589 110.972 84.4855C102.104 76.5837 90.0485 72.2148 77.4146 72.2148C64.7809 72.2148 52.6525 76.6306 43.7839 84.486C43.7013 84.5591 43.677 84.6778 43.724 84.7776C49.6863 97.4272 61.6019 107.32 77.4146 107.32C93.2275 107.32 105.024 97.4271 111.031 84.7773Z" fill="url(#paint4_radial_10336_9067)"/>
<path d="M111.031 84.7773C111.078 84.6777 111.054 84.5589 110.972 84.4855C102.104 76.5837 90.0485 72.2148 77.4146 72.2148C64.7809 72.2148 52.6525 76.6306 43.7839 84.486C43.7013 84.5591 43.677 84.6778 43.724 84.7776C49.6863 97.4272 61.6019 107.32 77.4146 107.32C93.2275 107.32 105.024 97.4271 111.031 84.7773Z" fill="url(#paint5_radial_10336_9067)"/>
<path d="M111.031 84.7773C111.078 84.6777 111.054 84.5589 110.972 84.4855C102.104 76.5837 90.0485 72.2148 77.4146 72.2148C64.7809 72.2148 52.6525 76.6306 43.7839 84.486C43.7013 84.5591 43.677 84.6778 43.724 84.7776C49.6863 97.4272 61.6019 107.32 77.4146 107.32C93.2275 107.32 105.024 97.4271 111.031 84.7773Z" fill="url(#paint6_radial_10336_9067)"/>
<path d="M111.031 84.7773C111.078 84.6777 111.054 84.5589 110.972 84.4855C102.104 76.5837 90.0485 72.2148 77.4146 72.2148C64.7809 72.2148 52.6525 76.6306 43.7839 84.486C43.7013 84.5591 43.677 84.6778 43.724 84.7776C49.6863 97.4272 61.6019 107.32 77.4146 107.32C93.2275 107.32 105.024 97.4271 111.031 84.7773Z" fill="url(#paint7_radial_10336_9067)"/>
<path d="M100.343 56.5814C101.942 56.5298 103.439 55.9878 104.657 55.1103V59.5496C104.657 63.8082 102.119 67.6023 98.2628 69.1767C99.0748 67.4474 99.6329 65.5633 99.912 63.5501L100.343 56.5814Z" fill="url(#paint8_radial_10336_9067)"/>
<path d="M100.343 56.5814C101.942 56.5298 103.439 55.9878 104.657 55.1103V59.5496C104.657 63.8082 102.119 67.6023 98.2628 69.1767C99.0748 67.4474 99.6329 65.5633 99.912 63.5501L100.343 56.5814Z" fill="url(#paint9_radial_10336_9067)"/>
<path d="M53.9644 56.5849C52.3659 56.5333 50.8689 55.9912 49.6511 55.1137V59.553C49.6511 63.8117 52.1883 67.6057 56.0449 69.1802C55.233 67.4509 54.6748 65.5668 54.3957 63.5536L53.9644 56.5849Z" fill="url(#paint10_radial_10336_9067)"/>
<path d="M53.9644 56.5849C52.3659 56.5333 50.8689 55.9912 49.6511 55.1137V59.553C49.6511 63.8117 52.1883 67.6057 56.0449 69.1802C55.233 67.4509 54.6748 65.5668 54.3957 63.5536L53.9644 56.5849Z" fill="url(#paint11_radial_10336_9067)"/>
<path d="M75.9827 89.0654C76.2815 89.2699 76.7889 89.4455 77.3127 89.4638C77.8365 89.4455 78.3439 89.2699 78.6427 89.0654C83.4729 85.7598 87.0977 82.4668 87.0977 76.7793V59.5204C87.0977 54.1054 82.7277 49.7354 77.3127 49.7354C71.8977 49.7354 67.5277 54.1054 67.5277 59.5204V76.7793C67.5277 82.4668 71.1525 85.7598 75.9827 89.0654Z" fill="url(#paint12_radial_10336_9067)"/>
<g filter="url(#filter0_ii_10336_9067)">
<path d="M54.1393 63.8122C55.3664 73.1246 63.2913 80.0577 72.6734 80.0577H81.672C91.0541 80.0577 98.979 73.1246 100.206 63.8122C100.769 54.8273 101.335 45.8785 101.752 36.8983C101.702 33.2399 98.8176 30.221 95.1747 30.0675H88.496C83.9423 30.0675 79.8187 27.3813 77.9467 23.1856C77.466 21.9831 76.3023 21.19 75.0121 21.19H68.9406C60.1368 21.19 53.0027 28.4046 53.0027 37.3076C53.0027 46.183 53.5571 54.9145 54.1393 63.8122Z" fill="url(#paint13_radial_10336_9067)"/>
</g>
<path d="M54.1393 63.8122C55.3664 73.1246 63.2913 80.0577 72.6734 80.0577H81.672C91.0541 80.0577 98.979 73.1246 100.206 63.8122C100.769 54.8273 101.335 45.8785 101.752 36.8983C101.702 33.2399 98.8176 30.221 95.1747 30.0675H88.496C83.9423 30.0675 79.8187 27.3813 77.9467 23.1856C77.466 21.9831 76.3023 21.19 75.0121 21.19H68.9406C60.1368 21.19 53.0027 28.4046 53.0027 37.3076C53.0027 46.183 53.5571 54.9145 54.1393 63.8122Z" fill="url(#paint14_radial_10336_9067)"/>
<path d="M54.1393 63.8122C55.3664 73.1246 63.2913 80.0577 72.6734 80.0577H81.672C91.0541 80.0577 98.979 73.1246 100.206 63.8122C100.769 54.8273 101.335 45.8785 101.752 36.8983C101.702 33.2399 98.8176 30.221 95.1747 30.0675H88.496C83.9423 30.0675 79.8187 27.3813 77.9467 23.1856C77.466 21.9831 76.3023 21.19 75.0121 21.19H68.9406C60.1368 21.19 53.0027 28.4046 53.0027 37.3076C53.0027 46.183 53.5571 54.9145 54.1393 63.8122Z" fill="url(#paint15_radial_10336_9067)"/>
<path d="M54.1393 63.8122C55.3664 73.1246 63.2913 80.0577 72.6734 80.0577H81.672C91.0541 80.0577 98.979 73.1246 100.206 63.8122C100.769 54.8273 101.335 45.8785 101.752 36.8983C101.702 33.2399 98.8176 30.221 95.1747 30.0675H88.496C83.9423 30.0675 79.8187 27.3813 77.9467 23.1856C77.466 21.9831 76.3023 21.19 75.0121 21.19H68.9406C60.1368 21.19 53.0027 28.4046 53.0027 37.3076C53.0027 46.183 53.5571 54.9145 54.1393 63.8122Z" fill="url(#paint16_radial_10336_9067)"/>
<path d="M54.1393 63.8122C55.3664 73.1246 63.2913 80.0577 72.6734 80.0577H81.672C91.0541 80.0577 98.979 73.1246 100.206 63.8122C100.769 54.8273 101.335 45.8785 101.752 36.8983C101.702 33.2399 98.8176 30.221 95.1747 30.0675H88.496C83.9423 30.0675 79.8187 27.3813 77.9467 23.1856C77.466 21.9831 76.3023 21.19 75.0121 21.19H68.9406C60.1368 21.19 53.0027 28.4046 53.0027 37.3076C53.0027 46.183 53.5571 54.9145 54.1393 63.8122Z" fill="url(#paint17_radial_10336_9067)"/>
<path d="M54.1393 63.8122C55.3664 73.1246 63.2913 80.0577 72.6734 80.0577H81.672C91.0541 80.0577 98.979 73.1246 100.206 63.8122C100.769 54.8273 101.335 45.8785 101.752 36.8983C101.702 33.2399 98.8176 30.221 95.1747 30.0675H88.496C83.9423 30.0675 79.8187 27.3813 77.9467 23.1856C77.466 21.9831 76.3023 21.19 75.0121 21.19H68.9406C60.1368 21.19 53.0027 28.4046 53.0027 37.3076C53.0027 46.183 53.5571 54.9145 54.1393 63.8122Z" fill="url(#paint18_radial_10336_9067)"/>
<g filter="url(#filter1_f_10336_9067)">
<path d="M74.8337 48.1484L71.806 56.9142C71.2888 58.7173 72.5301 60.5204 74.2885 60.5204H78.0381C79.7966 60.5204 81.0378 58.6896 80.5206 56.9142L77.9864 48.1484C77.4434 46.2066 75.4026 46.2066 74.8337 48.1484Z" fill="#EE9020"/>
</g>
<g filter="url(#filter2_f_10336_9067)">
<path d="M75.3291 47.2145L72.7949 55.9803C72.2777 57.7834 73.519 59.5865 75.2774 59.5865H79.027C80.7854 59.5865 82.0267 57.7557 81.5095 55.9803L78.9753 47.2145C78.4322 45.2727 75.898 45.2727 75.3291 47.2145Z" fill="url(#paint19_linear_10336_9067)"/>
<path d="M75.3291 47.2145L72.7949 55.9803C72.2777 57.7834 73.519 59.5865 75.2774 59.5865H79.027C80.7854 59.5865 82.0267 57.7557 81.5095 55.9803L78.9753 47.2145C78.4322 45.2727 75.898 45.2727 75.3291 47.2145Z" fill="url(#paint20_linear_10336_9067)"/>
<path d="M75.3291 47.2145L72.7949 55.9803C72.2777 57.7834 73.519 59.5865 75.2774 59.5865H79.027C80.7854 59.5865 82.0267 57.7557 81.5095 55.9803L78.9753 47.2145C78.4322 45.2727 75.898 45.2727 75.3291 47.2145Z" fill="url(#paint21_linear_10336_9067)"/>
<path d="M75.3291 47.2145L72.7949 55.9803C72.2777 57.7834 73.519 59.5865 75.2774 59.5865H79.027C80.7854 59.5865 82.0267 57.7557 81.5095 55.9803L78.9753 47.2145C78.4322 45.2727 75.898 45.2727 75.3291 47.2145Z" fill="url(#paint22_linear_10336_9067)"/>
</g>
<g filter="url(#filter3_f_10336_9067)">
<path d="M70.5796 62.8069L70.5796 62.8069L70.5789 62.8066C70.2187 62.6235 69.8446 62.7357 69.6191 62.9731C69.3932 63.2109 69.3101 63.5819 69.5387 63.9124C71.1499 66.3535 73.9566 67.9805 77.1532 67.9805C80.3501 67.9805 83.1569 66.3533 84.768 63.9118C84.9955 63.5706 84.9142 63.1997 84.6869 62.9638C84.4607 62.7289 84.0866 62.624 83.7275 62.8066L83.7275 62.8066L83.7268 62.8069C81.8256 63.7981 79.5863 64.365 77.1532 64.365C74.7442 64.365 72.4808 63.7981 70.5796 62.8069Z" stroke="url(#paint23_radial_10336_9067)" stroke-width="0.15"/>
</g>
<path d="M77.1532 64.44C74.7326 64.44 72.4572 63.8704 70.5449 62.8734C69.8913 62.5411 69.1894 63.277 69.6009 63.8704C71.1985 66.2915 73.9822 67.9055 77.1532 67.9055C80.3242 67.9055 83.1079 66.2915 84.7055 63.8704C85.1171 63.2532 84.4151 62.5411 83.7615 62.8734C81.8492 63.8704 79.598 64.44 77.1532 64.44Z" fill="url(#paint24_radial_10336_9067)"/>
<g filter="url(#filter4_ii_10336_9067)">
<path d="M100.31 18.9387C102.764 19.7829 104.965 21.497 106.357 23.953C108.583 27.8673 108.254 32.5491 105.851 36.0029C105.016 37.2309 104.56 38.6891 104.56 40.173V45.8397C103.668 45.2182 102.491 44.7575 101.378 44.5606L101.752 36.8983C101.702 33.2398 98.8177 30.221 95.1748 30.0675H88.4961C83.9424 30.0675 79.8188 27.3812 77.9468 23.1855C77.4661 21.9831 76.3024 21.19 75.0122 21.19H68.9406C60.1369 21.19 53.0028 28.4046 53.0028 37.3076L53.1489 44.6405C51.9376 44.8185 50.6721 45.2235 49.7141 45.8982V40.173C49.7141 38.6891 49.2587 37.2309 48.4239 36.0029C46.147 32.6514 45.7423 28.1487 47.7408 24.3368C49.1322 21.7017 51.3837 19.8597 53.9388 18.9642C56.671 17.9921 58.9985 16.1501 60.5417 13.6685C62.5149 10.5217 65.9807 9.24023 69.9525 9.24023C71.4957 9.24023 72.963 9.57282 74.3291 10.1357C76.1506 10.9287 78.1997 10.9287 80.0212 10.1357C81.362 9.57282 82.8293 9.24023 84.3725 9.24023C88.3949 9.24023 91.9113 10.5984 93.8593 13.822C95.3266 16.2524 97.6287 18.0176 100.31 18.9387Z" fill="url(#paint25_linear_10336_9067)"/>
<path d="M100.31 18.9387C102.764 19.7829 104.965 21.497 106.357 23.953C108.583 27.8673 108.254 32.5491 105.851 36.0029C105.016 37.2309 104.56 38.6891 104.56 40.173V45.8397C103.668 45.2182 102.491 44.7575 101.378 44.5606L101.752 36.8983C101.702 33.2398 98.8177 30.221 95.1748 30.0675H88.4961C83.9424 30.0675 79.8188 27.3812 77.9468 23.1855C77.4661 21.9831 76.3024 21.19 75.0122 21.19H68.9406C60.1369 21.19 53.0028 28.4046 53.0028 37.3076L53.1489 44.6405C51.9376 44.8185 50.6721 45.2235 49.7141 45.8982V40.173C49.7141 38.6891 49.2587 37.2309 48.4239 36.0029C46.147 32.6514 45.7423 28.1487 47.7408 24.3368C49.1322 21.7017 51.3837 19.8597 53.9388 18.9642C56.671 17.9921 58.9985 16.1501 60.5417 13.6685C62.5149 10.5217 65.9807 9.24023 69.9525 9.24023C71.4957 9.24023 72.963 9.57282 74.3291 10.1357C76.1506 10.9287 78.1997 10.9287 80.0212 10.1357C81.362 9.57282 82.8293 9.24023 84.3725 9.24023C88.3949 9.24023 91.9113 10.5984 93.8593 13.822C95.3266 16.2524 97.6287 18.0176 100.31 18.9387Z" fill="url(#paint26_radial_10336_9067)"/>
<path d="M100.31 18.9387C102.764 19.7829 104.965 21.497 106.357 23.953C108.583 27.8673 108.254 32.5491 105.851 36.0029C105.016 37.2309 104.56 38.6891 104.56 40.173V45.8397C103.668 45.2182 102.491 44.7575 101.378 44.5606L101.752 36.8983C101.702 33.2398 98.8177 30.221 95.1748 30.0675H88.4961C83.9424 30.0675 79.8188 27.3812 77.9468 23.1855C77.4661 21.9831 76.3024 21.19 75.0122 21.19H68.9406C60.1369 21.19 53.0028 28.4046 53.0028 37.3076L53.1489 44.6405C51.9376 44.8185 50.6721 45.2235 49.7141 45.8982V40.173C49.7141 38.6891 49.2587 37.2309 48.4239 36.0029C46.147 32.6514 45.7423 28.1487 47.7408 24.3368C49.1322 21.7017 51.3837 19.8597 53.9388 18.9642C56.671 17.9921 58.9985 16.1501 60.5417 13.6685C62.5149 10.5217 65.9807 9.24023 69.9525 9.24023C71.4957 9.24023 72.963 9.57282 74.3291 10.1357C76.1506 10.9287 78.1997 10.9287 80.0212 10.1357C81.362 9.57282 82.8293 9.24023 84.3725 9.24023C88.3949 9.24023 91.9113 10.5984 93.8593 13.822C95.3266 16.2524 97.6287 18.0176 100.31 18.9387Z" fill="url(#paint27_radial_10336_9067)"/>
<path d="M100.31 18.9387C102.764 19.7829 104.965 21.497 106.357 23.953C108.583 27.8673 108.254 32.5491 105.851 36.0029C105.016 37.2309 104.56 38.6891 104.56 40.173V45.8397C103.668 45.2182 102.491 44.7575 101.378 44.5606L101.752 36.8983C101.702 33.2398 98.8177 30.221 95.1748 30.0675H88.4961C83.9424 30.0675 79.8188 27.3812 77.9468 23.1855C77.4661 21.9831 76.3024 21.19 75.0122 21.19H68.9406C60.1369 21.19 53.0028 28.4046 53.0028 37.3076L53.1489 44.6405C51.9376 44.8185 50.6721 45.2235 49.7141 45.8982V40.173C49.7141 38.6891 49.2587 37.2309 48.4239 36.0029C46.147 32.6514 45.7423 28.1487 47.7408 24.3368C49.1322 21.7017 51.3837 19.8597 53.9388 18.9642C56.671 17.9921 58.9985 16.1501 60.5417 13.6685C62.5149 10.5217 65.9807 9.24023 69.9525 9.24023C71.4957 9.24023 72.963 9.57282 74.3291 10.1357C76.1506 10.9287 78.1997 10.9287 80.0212 10.1357C81.362 9.57282 82.8293 9.24023 84.3725 9.24023C88.3949 9.24023 91.9113 10.5984 93.8593 13.822C95.3266 16.2524 97.6287 18.0176 100.31 18.9387Z" fill="url(#paint28_radial_10336_9067)"/>
<path d="M100.31 18.9387C102.764 19.7829 104.965 21.497 106.357 23.953C108.583 27.8673 108.254 32.5491 105.851 36.0029C105.016 37.2309 104.56 38.6891 104.56 40.173V45.8397C103.668 45.2182 102.491 44.7575 101.378 44.5606L101.752 36.8983C101.702 33.2398 98.8177 30.221 95.1748 30.0675H88.4961C83.9424 30.0675 79.8188 27.3812 77.9468 23.1855C77.4661 21.9831 76.3024 21.19 75.0122 21.19H68.9406C60.1369 21.19 53.0028 28.4046 53.0028 37.3076L53.1489 44.6405C51.9376 44.8185 50.6721 45.2235 49.7141 45.8982V40.173C49.7141 38.6891 49.2587 37.2309 48.4239 36.0029C46.147 32.6514 45.7423 28.1487 47.7408 24.3368C49.1322 21.7017 51.3837 19.8597 53.9388 18.9642C56.671 17.9921 58.9985 16.1501 60.5417 13.6685C62.5149 10.5217 65.9807 9.24023 69.9525 9.24023C71.4957 9.24023 72.963 9.57282 74.3291 10.1357C76.1506 10.9287 78.1997 10.9287 80.0212 10.1357C81.362 9.57282 82.8293 9.24023 84.3725 9.24023C88.3949 9.24023 91.9113 10.5984 93.8593 13.822C95.3266 16.2524 97.6287 18.0176 100.31 18.9387Z" fill="url(#paint29_radial_10336_9067)"/>
</g>
<g filter="url(#filter5_i_10336_9067)">
<path d="M94.9556 36.4105C94.1203 35.6829 93.1487 34.9119 91.6773 34.4487C90.2266 33.992 88.4096 33.8693 85.8958 34.1769C85.1709 34.2656 84.6551 34.9251 84.7438 35.6501C84.8325 36.375 85.4921 36.8907 86.217 36.8021C88.5114 36.5214 89.9169 36.6672 90.8831 36.9714C91.8285 37.269 92.4682 37.7513 93.2185 38.4048C93.7693 38.8845 94.6046 38.8269 95.0842 38.2762C95.5639 37.7254 95.5063 36.8901 94.9556 36.4105Z" fill="#C05029"/>
</g>
<g filter="url(#filter6_i_10336_9067)">
<path d="M60.8837 35.8906C61.3134 35.6334 61.9318 35.3044 62.7126 34.9974C64.2739 34.3835 66.5054 33.8503 69.1754 34.177C69.9003 34.2656 70.4161 34.9252 70.3274 35.6501C70.2387 36.375 69.5792 36.8908 68.8543 36.8021C66.7161 36.5406 64.9322 36.9665 63.6803 37.4587C63.0545 37.7048 62.5667 37.9656 62.2419 38.1599C62.0799 38.2569 61.9595 38.3368 61.8838 38.389C61.8461 38.4151 61.8196 38.4343 61.8048 38.4451L61.7916 38.4549C61.2153 38.8992 60.3876 38.7945 59.9404 38.2196C59.492 37.6431 59.5958 36.8123 60.1723 36.3639L60.8837 35.8906Z" fill="#C05029"/>
</g>
<g filter="url(#filter7_f_10336_9067)">
<path d="M78.2622 23.838C78.1509 23.6248 78.0456 23.4073 77.9467 23.1855C77.466 21.983 76.3023 21.19 75.0121 21.19H68.9405C60.1368 21.19 53.0027 28.4045 53.0027 37.3076V38.6201C51.381 37.3859 49.3412 34.7825 49.3412 30.5695C49.3412 25.4571 53.07 22.8729 55.4485 21.2245C56.1199 20.7591 56.6838 20.3683 57.0258 20.0163C57.171 19.8668 57.3292 19.699 57.5012 19.5166C59.1684 17.7483 62.139 14.5977 67.3263 13.2207C71.3296 12.158 75.4164 12.3629 77.5637 12.6806C78.0315 12.7498 78.3626 13.1594 78.3626 13.6323V23.7739L78.2622 23.838Z" fill="url(#paint30_radial_10336_9067)"/>
<path d="M78.2622 23.838C78.1509 23.6248 78.0456 23.4073 77.9467 23.1855C77.466 21.983 76.3023 21.19 75.0121 21.19H68.9405C60.1368 21.19 53.0027 28.4045 53.0027 37.3076V38.6201C51.381 37.3859 49.3412 34.7825 49.3412 30.5695C49.3412 25.4571 53.07 22.8729 55.4485 21.2245C56.1199 20.7591 56.6838 20.3683 57.0258 20.0163C57.171 19.8668 57.3292 19.699 57.5012 19.5166C59.1684 17.7483 62.139 14.5977 67.3263 13.2207C71.3296 12.158 75.4164 12.3629 77.5637 12.6806C78.0315 12.7498 78.3626 13.1594 78.3626 13.6323V23.7739L78.2622 23.838Z" fill="url(#paint31_radial_10336_9067)"/>
</g>
<g filter="url(#filter8_f_10336_9067)">
<path d="M102.017 39.9229L101.878 36.9122C101.827 33.2707 98.818 30.2658 95.175 30.113H88.4963C84.2566 30.113 80.3897 27.795 78.3657 24.1047C78.3657 24.1047 76.824 20.5336 77.1866 15.7998C77.2633 14.7997 78.1491 14.088 79.1487 14.1722C84.3336 14.6094 93.5477 16.2046 99.5327 20.1082C107.854 25.5356 106.397 35.3168 102.017 39.9229Z" fill="url(#paint32_radial_10336_9067)"/>
<path d="M102.017 39.9229L101.878 36.9122C101.827 33.2707 98.818 30.2658 95.175 30.113H88.4963C84.2566 30.113 80.3897 27.795 78.3657 24.1047C78.3657 24.1047 76.824 20.5336 77.1866 15.7998C77.2633 14.7997 78.1491 14.088 79.1487 14.1722C84.3336 14.6094 93.5477 16.2046 99.5327 20.1082C107.854 25.5356 106.397 35.3168 102.017 39.9229Z" fill="url(#paint33_radial_10336_9067)"/>
<path d="M102.017 39.9229L101.878 36.9122C101.827 33.2707 98.818 30.2658 95.175 30.113H88.4963C84.2566 30.113 80.3897 27.795 78.3657 24.1047C78.3657 24.1047 76.824 20.5336 77.1866 15.7998C77.2633 14.7997 78.1491 14.088 79.1487 14.1722C84.3336 14.6094 93.5477 16.2046 99.5327 20.1082C107.854 25.5356 106.397 35.3168 102.017 39.9229Z" fill="url(#paint34_radial_10336_9067)"/>
<path d="M102.017 39.9229L101.878 36.9122C101.827 33.2707 98.818 30.2658 95.175 30.113H88.4963C84.2566 30.113 80.3897 27.795 78.3657 24.1047C78.3657 24.1047 76.824 20.5336 77.1866 15.7998C77.2633 14.7997 78.1491 14.088 79.1487 14.1722C84.3336 14.6094 93.5477 16.2046 99.5327 20.1082C107.854 25.5356 106.397 35.3168 102.017 39.9229Z" fill="url(#paint35_radial_10336_9067)"/>
<path d="M102.017 39.9229L101.878 36.9122C101.827 33.2707 98.818 30.2658 95.175 30.113H88.4963C84.2566 30.113 80.3897 27.795 78.3657 24.1047C78.3657 24.1047 76.824 20.5336 77.1866 15.7998C77.2633 14.7997 78.1491 14.088 79.1487 14.1722C84.3336 14.6094 93.5477 16.2046 99.5327 20.1082C107.854 25.5356 106.397 35.3168 102.017 39.9229Z" fill="url(#paint36_radial_10336_9067)"/>
</g>
<path d="M88.5563 42.6819C91.6706 42.6819 94.3012 44.829 95.0169 47.7305C95.2297 48.5622 94.5914 49.3553 93.7403 49.3553H83.1016C82.4246 49.3553 81.883 48.7363 82.0184 48.0593C82.618 45.0031 85.3067 42.6819 88.5563 42.6819Z" fill="white"/>
<path d="M87.5696 43.9783C89.9294 43.9783 91.825 45.8933 91.825 48.2338C91.825 48.6207 91.767 49.0075 91.6703 49.3557H83.4495C83.3528 48.9882 83.2947 48.6207 83.2947 48.2338C83.2947 45.8933 85.2097 43.9783 87.5696 43.9783Z" fill="url(#paint37_radial_10336_9067)"/>
<path d="M85.1329 48.2328C85.1329 46.8797 86.2154 45.7972 87.5686 45.7972C88.9217 45.7972 90.0042 46.8797 90.0042 48.2328C90.0042 48.6387 89.9075 49.0253 89.7336 49.354H85.4229C85.2296 49.0253 85.1329 48.6387 85.1329 48.2328Z" fill="black"/>
<g filter="url(#filter9_f_10336_9067)">
<path d="M87.2533 44.88C87.5561 45.2851 86.9232 45.7788 86.2035 46.3169C85.4838 46.855 84.9498 47.2337 84.647 46.8287C84.3442 46.4237 84.6821 45.6591 85.4018 45.121C86.1216 44.5829 86.9505 44.475 87.2533 44.88Z" fill="#C7A7A3"/>
<path d="M87.2533 44.88C87.5561 45.2851 86.9232 45.7788 86.2035 46.3169C85.4838 46.855 84.9498 47.2337 84.647 46.8287C84.3442 46.4237 84.6821 45.6591 85.4018 45.121C86.1216 44.5829 86.9505 44.475 87.2533 44.88Z" fill="url(#paint38_radial_10336_9067)"/>
</g>
<g filter="url(#filter10_f_10336_9067)">
<path d="M91.3566 47.669C91.1998 46.5713 90.5575 45.744 90.2559 45.4676L89.0195 46.8246L89.5774 47.9103L91.3566 47.669Z" fill="url(#paint39_linear_10336_9067)"/>
</g>
<path d="M65.7473 42.6816C62.6329 42.6816 60.0021 44.8288 59.2864 47.7304C59.0736 48.5622 59.7119 49.3553 60.5631 49.3553H71.2023C71.8793 49.3553 72.421 48.7363 72.2856 48.0593C71.6859 45.0029 68.9777 42.6816 65.7473 42.6816Z" fill="white"/>
<path d="M66.7344 43.9781C64.3744 43.9781 62.4787 45.8931 62.4787 48.2338C62.4787 48.6206 62.5367 49.0075 62.6335 49.3557H70.8547C70.9514 48.9882 71.0094 48.6206 71.0094 48.2338C70.9901 45.8931 69.0944 43.9781 66.7344 43.9781Z" fill="url(#paint40_radial_10336_9067)"/>
<path d="M69.1689 48.2327C69.1689 46.8796 68.0863 45.797 66.7331 45.797C65.3799 45.797 64.2974 46.8796 64.2974 48.2327C64.2974 48.6387 64.394 49.0253 64.568 49.354H68.8789C69.0529 49.0253 69.1689 48.6387 69.1689 48.2327Z" fill="black"/>
<g filter="url(#filter11_f_10336_9067)">
<path d="M70.618 47.7285C70.618 46.3563 69.5022 45.4415 69.2006 45.1651L67.8284 46.492L68.6728 48.2111L70.618 47.7285Z" fill="url(#paint41_linear_10336_9067)"/>
</g>
<g filter="url(#filter12_f_10336_9067)">
<ellipse cx="65.4483" cy="45.7971" rx="1.85565" ry="0.93913" transform="rotate(-27.914 65.4483 45.7971)" fill="#C7A7A3" fill-opacity="0.9"/>
<ellipse cx="65.4483" cy="45.7971" rx="1.85565" ry="0.93913" transform="rotate(-27.914 65.4483 45.7971)" fill="url(#paint42_radial_10336_9067)"/>
</g>
<path d="M100.632 57.0202C100.946 51.9442 101.248 46.8743 101.512 41.7983C105.116 42.4289 107.856 45.5737 107.856 49.3582C107.856 53.4455 104.661 56.7865 100.632 57.0202Z" fill="url(#paint43_linear_10336_9067)"/>
<path d="M100.632 57.0202C100.946 51.9442 101.248 46.8743 101.512 41.7983C105.116 42.4289 107.856 45.5737 107.856 49.3582C107.856 53.4455 104.661 56.7865 100.632 57.0202Z" fill="url(#paint44_radial_10336_9067)"/>
<path d="M100.632 57.0202C100.946 51.9442 101.248 46.8743 101.512 41.7983C105.116 42.4289 107.856 45.5737 107.856 49.3582C107.856 53.4455 104.661 56.7865 100.632 57.0202Z" fill="url(#paint45_radial_10336_9067)"/>
<path d="M53.047 41.7596C49.3202 42.2851 46.4532 45.4873 46.4532 49.3591C46.4532 53.4567 49.6644 56.8043 53.7075 57.0228C53.3995 51.926 53.1457 46.8581 53.047 41.7596Z" fill="url(#paint46_linear_10336_9067)"/>
<path d="M53.047 41.7596C49.3202 42.2851 46.4532 45.4873 46.4532 49.3591C46.4532 53.4567 49.6644 56.8043 53.7075 57.0228C53.3995 51.926 53.1457 46.8581 53.047 41.7596Z" fill="url(#paint47_radial_10336_9067)"/>
<g filter="url(#filter13_f_10336_9067)">
<path d="M53.1241 44.9103C51.0896 45.3664 49.5695 47.1835 49.5695 49.3556C49.5695 51.6671 51.291 53.5765 53.5219 53.8716C53.3566 50.8828 53.2172 47.8997 53.1241 44.9103Z" fill="#DD8224"/>
</g>
<g filter="url(#filter14_f_10336_9067)">
<path d="M100.823 53.9112C101.006 50.8855 101.184 47.8611 101.35 44.8354C103.597 45.1158 105.336 47.0327 105.336 49.3558C105.336 51.8576 103.319 53.8885 100.823 53.9112Z" fill="#FFC837"/>
</g>
<g filter="url(#filter15_f_10336_9067)">
<path d="M61.0639 37.2246C62.2894 36.3455 65.3438 34.799 68.9563 35.4064" stroke="#C96953" stroke-width="0.25" stroke-linecap="round"/>
</g>
<g filter="url(#filter16_f_10336_9067)">
<path d="M94.143 37.0077C92.9175 36.1285 89.8631 34.582 86.2506 35.1895" stroke="#C96953" stroke-width="0.25" stroke-linecap="round"/>
</g>
<path d="M118.86 54.879V12.7805H115.06V54.879H118.86Z" fill="url(#paint48_linear_10336_9067)"/>
<path d="M118.86 54.879V12.7805H115.06V54.879H118.86Z" fill="url(#paint49_radial_10336_9067)"/>
<path d="M47.7686 24.3809L53.7247 14.918L100.037 14.3984L106.494 24.1953C84.3399 31.8398 57.6954 27.8691 47.7686 24.3809Z" fill="url(#paint50_radial_10336_9067)"/>
<path d="M115.106 16.5805H39.2489C37.1589 16.5805 35.4489 14.8705 35.4489 12.7805C35.4489 10.6905 37.1589 8.98047 39.2489 8.98047H115.059C117.149 8.98047 118.859 10.6905 118.859 12.7805C118.906 14.8705 117.196 16.5805 115.106 16.5805Z" fill="url(#paint51_linear_10336_9067)"/>
<path d="M115.106 16.5805H39.2489C37.1589 16.5805 35.4489 14.8705 35.4489 12.7805C35.4489 10.6905 37.1589 8.98047 39.2489 8.98047H115.059C117.149 8.98047 118.859 10.6905 118.859 12.7805C118.906 14.8705 117.196 16.5805 115.106 16.5805Z" fill="url(#paint52_radial_10336_9067)"/>
<path d="M115.106 16.5805H39.2489C37.1589 16.5805 35.4489 14.8705 35.4489 12.7805C35.4489 10.6905 37.1589 8.98047 39.2489 8.98047H115.059C117.149 8.98047 118.859 10.6905 118.859 12.7805C118.906 14.8705 117.196 16.5805 115.106 16.5805Z" fill="url(#paint53_radial_10336_9067)"/>
<path d="M115.057 54.766C113.82 55.4407 112.981 56.7529 112.981 58.2612C112.981 60.4586 114.763 62.2399 116.96 62.2399C119.157 62.2399 120.939 60.4586 120.939 58.2612C120.939 56.7529 120.099 55.4407 118.862 54.766H115.057Z" fill="url(#paint54_radial_10336_9067)"/>
<path d="M115.057 54.766C113.82 55.4407 112.981 56.7529 112.981 58.2612C112.981 60.4586 114.763 62.2399 116.96 62.2399C119.157 62.2399 120.939 60.4586 120.939 58.2612C120.939 56.7529 120.099 55.4407 118.862 54.766H115.057Z" fill="url(#paint55_radial_10336_9067)"/>
<g filter="url(#filter17_f_10336_9067)">
<path d="M117.449 17.0723V53.9681" stroke="url(#paint56_linear_10336_9067)" stroke-width="0.15"/>
</g>
<path d="M112.905 64.0811L110.452 74.7142C110.141 76.0648 111.177 77.3503 112.563 77.3319H121.413C122.788 77.3137 123.788 76.0214 123.461 74.6861L120.884 64.0498C120.624 62.9872 119.672 62.2399 118.578 62.2399H115.219C114.113 62.2399 113.154 63.0034 112.905 64.0811Z" fill="url(#paint57_linear_10336_9067)"/>
<path d="M112.905 64.0811L110.452 74.7142C110.141 76.0648 111.177 77.3503 112.563 77.3319H121.413C122.788 77.3137 123.788 76.0214 123.461 74.6861L120.884 64.0498C120.624 62.9872 119.672 62.2399 118.578 62.2399H115.219C114.113 62.2399 113.154 63.0034 112.905 64.0811Z" fill="url(#paint58_radial_10336_9067)"/>
<path d="M112.905 64.0811L110.452 74.7142C110.141 76.0648 111.177 77.3503 112.563 77.3319H121.413C122.788 77.3137 123.788 76.0214 123.461 74.6861L120.884 64.0498C120.624 62.9872 119.672 62.2399 118.578 62.2399H115.219C114.113 62.2399 113.154 63.0034 112.905 64.0811Z" fill="url(#paint59_radial_10336_9067)"/>
<path d="M112.905 64.0811L110.452 74.7142C110.141 76.0648 111.177 77.3503 112.563 77.3319H121.413C122.788 77.3137 123.788 76.0214 123.461 74.6861L120.884 64.0498C120.624 62.9872 119.672 62.2399 118.578 62.2399H115.219C114.113 62.2399 113.154 63.0034 112.905 64.0811Z" fill="url(#paint60_radial_10336_9067)"/>
<path d="M43.0372 141.933V85.9482C32.0788 95.5224 25.1513 109.6 25.1513 125.308V141.933H43.0372Z" fill="url(#paint61_radial_10336_9067)"/>
<path d="M43.0372 141.933V85.9482C32.0788 95.5224 25.1513 109.6 25.1513 125.308V141.933H43.0372Z" fill="url(#paint62_radial_10336_9067)"/>
<path d="M43.0372 141.933V85.9482C32.0788 95.5224 25.1513 109.6 25.1513 125.308V141.933H43.0372Z" fill="url(#paint63_linear_10336_9067)"/>
<path d="M111.718 141.933V85.9482C122.676 95.5224 129.604 109.6 129.604 125.308V141.933H111.718Z" fill="url(#paint64_radial_10336_9067)"/>
<path d="M111.718 141.933V85.9482C122.676 95.5224 129.604 109.6 129.604 125.308V141.933H111.718Z" fill="url(#paint65_radial_10336_9067)"/>
<g filter="url(#filter18_f_10336_9067)">
<path d="M56.8004 112.37C56.8004 111.477 57.5356 110.753 58.4425 110.753C59.3494 110.753 60.0846 111.477 60.0846 112.37V141.313H56.8004V112.37Z" fill="url(#paint66_linear_10336_9067)"/>
<path d="M75.7355 112.37C75.7355 111.477 76.4707 110.753 77.3776 110.753C78.2845 110.753 79.0197 111.477 79.0197 112.37V141.313H75.7355V112.37Z" fill="url(#paint67_linear_10336_9067)"/>
<path d="M94.6705 112.37C94.6705 111.477 95.4057 110.753 96.3126 110.753C97.2195 110.753 97.9547 111.477 97.9547 112.37V141.313H94.6705V112.37Z" fill="url(#paint68_linear_10336_9067)"/>
</g>
<defs>
<filter id="filter0_ii_10336_9067" x="53.0027" y="21.19" width="49.2495" height="59.0677" filterUnits="userSpaceOnUse" color-interpolation-filters="sRGB">
<feFlood flood-opacity="0" result="BackgroundImageFix"/>
<feBlend mode="normal" in="SourceGraphic" in2="BackgroundImageFix" result="shape"/>
<feColorMatrix in="SourceAlpha" type="matrix" values="0 0 0 0 0 0 0 0 0 0 0 0 0 0 0 0 0 0 127 0" result="hardAlpha"/>
<feOffset dx="0.5"/>
<feGaussianBlur stdDeviation="0.5"/>
<feComposite in2="hardAlpha" operator="arithmetic" k2="-1" k3="1"/>
<feColorMatrix type="matrix" values="0 0 0 0 0.823529 0 0 0 0 0.623529 0 0 0 0 0.313726 0 0 0 1 0"/>
<feBlend mode="normal" in2="shape" result="effect1_innerShadow_10336_9067"/>
<feColorMatrix in="SourceAlpha" type="matrix" values="0 0 0 0 0 0 0 0 0 0 0 0 0 0 0 0 0 0 127 0" result="hardAlpha"/>
<feOffset dy="0.2"/>
<feGaussianBlur stdDeviation="0.375"/>
<feComposite in2="hardAlpha" operator="arithmetic" k2="-1" k3="1"/>
<feColorMatrix type="matrix" values="0 0 0 0 0.980392 0 0 0 0 0.54902 0 0 0 0 0.0941176 0 0 0 1 0"/>
<feBlend mode="normal" in2="effect1_innerShadow_10336_9067" result="effect2_innerShadow_10336_9067"/>
</filter>
<filter id="filter1_f_10336_9067" x="70.6876" y="45.6921" width="10.9514" height="15.8283" filterUnits="userSpaceOnUse" color-interpolation-filters="sRGB">
<feFlood flood-opacity="0" result="BackgroundImageFix"/>
<feBlend mode="normal" in="SourceGraphic" in2="BackgroundImageFix" result="shape"/>
<feGaussianBlur stdDeviation="0.5" result="effect1_foregroundBlur_10336_9067"/>
</filter>
<filter id="filter2_f_10336_9067" x="72.5765" y="45.6581" width="9.15135" height="14.0283" filterUnits="userSpaceOnUse" color-interpolation-filters="sRGB">
<feFlood flood-opacity="0" result="BackgroundImageFix"/>
<feBlend mode="normal" in="SourceGraphic" in2="BackgroundImageFix" result="shape"/>
<feGaussianBlur stdDeviation="0.05" result="effect1_foregroundBlur_10336_9067"/>
</filter>
<filter id="filter3_f_10336_9067" x="69.228" y="62.5387" width="15.8504" height="5.61681" filterUnits="userSpaceOnUse" color-interpolation-filters="sRGB">
<feFlood flood-opacity="0" result="BackgroundImageFix"/>
<feBlend mode="normal" in="SourceGraphic" in2="BackgroundImageFix" result="shape"/>
<feGaussianBlur stdDeviation="0.05" result="effect1_foregroundBlur_10336_9067"/>
</filter>
<filter id="filter4_ii_10336_9067" x="46.4532" y="8.74023" width="61.4005" height="37.1579" filterUnits="userSpaceOnUse" color-interpolation-filters="sRGB">
<feFlood flood-opacity="0" result="BackgroundImageFix"/>
<feBlend mode="normal" in="SourceGraphic" in2="BackgroundImageFix" result="shape"/>
<feColorMatrix in="SourceAlpha" type="matrix" values="0 0 0 0 0 0 0 0 0 0 0 0 0 0 0 0 0 0 127 0" result="hardAlpha"/>
<feOffset dy="-0.5"/>
<feGaussianBlur stdDeviation="0.625"/>
<feComposite in2="hardAlpha" operator="arithmetic" k2="-1" k3="1"/>
<feColorMatrix type="matrix" values="0 0 0 0 0.945098 0 0 0 0 0.509804 0 0 0 0 0.0627451 0 0 0 1 0"/>
<feBlend mode="normal" in2="shape" result="effect1_innerShadow_10336_9067"/>
<feColorMatrix in="SourceAlpha" type="matrix" values="0 0 0 0 0 0 0 0 0 0 0 0 0 0 0 0 0 0 127 0" result="hardAlpha"/>
<feOffset dy="-0.2"/>
<feGaussianBlur stdDeviation="0.2"/>
<feComposite in2="hardAlpha" operator="arithmetic" k2="-1" k3="1"/>
<feColorMatrix type="matrix" values="0 0 0 0 0.862745 0 0 0 0 0.486275 0 0 0 0 0.0470588 0 0 0 1 0"/>
<feBlend mode="normal" in2="effect1_innerShadow_10336_9067" result="effect2_innerShadow_10336_9067"/>
</filter>
<filter id="filter5_i_10336_9067" x="84.7339" y="33.8073" width="10.7756" height="4.92269" filterUnits="userSpaceOnUse" color-interpolation-filters="sRGB">
<feFlood flood-opacity="0" result="BackgroundImageFix"/>
<feBlend mode="normal" in="SourceGraphic" in2="BackgroundImageFix" result="shape"/>
<feColorMatrix in="SourceAlpha" type="matrix" values="0 0 0 0 0 0 0 0 0 0 0 0 0 0 0 0 0 0 127 0" result="hardAlpha"/>
<feOffset dx="0.1" dy="-0.2"/>
<feGaussianBlur stdDeviation="0.125"/>
<feComposite in2="hardAlpha" operator="arithmetic" k2="-1" k3="1"/>
<feColorMatrix type="matrix" values="0 0 0 0 0.603922 0 0 0 0 0.243137 0 0 0 0 0.152941 0 0 0 1 0"/>
<feBlend mode="normal" in2="shape" result="effect1_innerShadow_10336_9067"/>
</filter>
<filter id="filter6_i_10336_9067" x="59.6617" y="33.8777" width="10.7756" height="4.85234" filterUnits="userSpaceOnUse" color-interpolation-filters="sRGB">
<feFlood flood-opacity="0" result="BackgroundImageFix"/>
<feBlend mode="normal" in="SourceGraphic" in2="BackgroundImageFix" result="shape"/>
<feColorMatrix in="SourceAlpha" type="matrix" values="0 0 0 0 0 0 0 0 0 0 0 0 0 0 0 0 0 0 127 0" result="hardAlpha"/>
<feOffset dx="0.1" dy="-0.2"/>
<feGaussianBlur stdDeviation="0.125"/>
<feComposite in2="hardAlpha" operator="arithmetic" k2="-1" k3="1"/>
<feColorMatrix type="matrix" values="0 0 0 0 0.603922 0 0 0 0 0.243137 0 0 0 0 0.152941 0 0 0 1 0"/>
<feBlend mode="normal" in2="shape" result="effect1_innerShadow_10336_9067"/>
</filter>
<filter id="filter7_f_10336_9067" x="49.0912" y="12.1751" width="29.5213" height="26.6949" filterUnits="userSpaceOnUse" color-interpolation-filters="sRGB">
<feFlood flood-opacity="0" result="BackgroundImageFix"/>
<feBlend mode="normal" in="SourceGraphic" in2="BackgroundImageFix" result="shape"/>
<feGaussianBlur stdDeviation="0.125" result="effect1_foregroundBlur_10336_9067"/>
</filter>
<filter id="filter8_f_10336_9067" x="76.8814" y="13.9155" width="28.9143" height="26.2574" filterUnits="userSpaceOnUse" color-interpolation-filters="sRGB">
<feFlood flood-opacity="0" result="BackgroundImageFix"/>
<feBlend mode="normal" in="SourceGraphic" in2="BackgroundImageFix" result="shape"/>
<feGaussianBlur stdDeviation="0.125" result="effect1_foregroundBlur_10336_9067"/>
</filter>
<filter id="filter9_f_10336_9067" x="84.436" y="44.5348" width="2.99486" height="2.56374" filterUnits="userSpaceOnUse" color-interpolation-filters="sRGB">
<feFlood flood-opacity="0" result="BackgroundImageFix"/>
<feBlend mode="normal" in="SourceGraphic" in2="BackgroundImageFix" result="shape"/>
<feGaussianBlur stdDeviation="0.05" result="effect1_foregroundBlur_10336_9067"/>
</filter>
<filter id="filter10_f_10336_9067" x="88.8195" y="45.2676" width="2.73716" height="2.84269" filterUnits="userSpaceOnUse" color-interpolation-filters="sRGB">
<feFlood flood-opacity="0" result="BackgroundImageFix"/>
<feBlend mode="normal" in="SourceGraphic" in2="BackgroundImageFix" result="shape"/>
<feGaussianBlur stdDeviation="0.1" result="effect1_foregroundBlur_10336_9067"/>
</filter>
<filter id="filter11_f_10336_9067" x="67.6284" y="44.9651" width="3.18961" height="3.44599" filterUnits="userSpaceOnUse" color-interpolation-filters="sRGB">
<feFlood flood-opacity="0" result="BackgroundImageFix"/>
<feBlend mode="normal" in="SourceGraphic" in2="BackgroundImageFix" result="shape"/>
<feGaussianBlur stdDeviation="0.1" result="effect1_foregroundBlur_10336_9067"/>
</filter>
<filter id="filter12_f_10336_9067" x="63.6502" y="44.4957" width="3.59618" height="2.60277" filterUnits="userSpaceOnUse" color-interpolation-filters="sRGB">
<feFlood flood-opacity="0" result="BackgroundImageFix"/>
<feBlend mode="normal" in="SourceGraphic" in2="BackgroundImageFix" result="shape"/>
<feGaussianBlur stdDeviation="0.05" result="effect1_foregroundBlur_10336_9067"/>
</filter>
<filter id="filter13_f_10336_9067" x="49.3195" y="44.6603" width="4.45245" height="9.46133" filterUnits="userSpaceOnUse" color-interpolation-filters="sRGB">
<feFlood flood-opacity="0" result="BackgroundImageFix"/>
<feBlend mode="normal" in="SourceGraphic" in2="BackgroundImageFix" result="shape"/>
<feGaussianBlur stdDeviation="0.125" result="effect1_foregroundBlur_10336_9067"/>
</filter>
<filter id="filter14_f_10336_9067" x="100.573" y="44.5854" width="5.01331" height="9.57574" filterUnits="userSpaceOnUse" color-interpolation-filters="sRGB">
<feFlood flood-opacity="0" result="BackgroundImageFix"/>
<feBlend mode="normal" in="SourceGraphic" in2="BackgroundImageFix" result="shape"/>
<feGaussianBlur stdDeviation="0.125" result="effect1_foregroundBlur_10336_9067"/>
</filter>
<filter id="filter15_f_10336_9067" x="60.6889" y="34.8936" width="8.6424" height="2.70599" filterUnits="userSpaceOnUse" color-interpolation-filters="sRGB">
<feFlood flood-opacity="0" result="BackgroundImageFix"/>
<feBlend mode="normal" in="SourceGraphic" in2="BackgroundImageFix" result="shape"/>
<feGaussianBlur stdDeviation="0.125" result="effect1_foregroundBlur_10336_9067"/>
</filter>
<filter id="filter16_f_10336_9067" x="85.8756" y="34.6767" width="8.6424" height="2.70599" filterUnits="userSpaceOnUse" color-interpolation-filters="sRGB">
<feFlood flood-opacity="0" result="BackgroundImageFix"/>
<feBlend mode="normal" in="SourceGraphic" in2="BackgroundImageFix" result="shape"/>
<feGaussianBlur stdDeviation="0.125" result="effect1_foregroundBlur_10336_9067"/>
</filter>
<filter id="filter17_f_10336_9067" x="117.124" y="16.8223" width="0.650024" height="37.3959" filterUnits="userSpaceOnUse" color-interpolation-filters="sRGB">
<feFlood flood-opacity="0" result="BackgroundImageFix"/>
<feBlend mode="normal" in="SourceGraphic" in2="BackgroundImageFix" result="shape"/>
<feGaussianBlur stdDeviation="0.125" result="effect1_foregroundBlur_10336_9067"/>
</filter>
<filter id="filter18_f_10336_9067" x="56.6504" y="110.603" width="41.4543" height="30.8596" filterUnits="userSpaceOnUse" color-interpolation-filters="sRGB">
<feFlood flood-opacity="0" result="BackgroundImageFix"/>
<feBlend mode="normal" in="SourceGraphic" in2="BackgroundImageFix" result="shape"/>
<feGaussianBlur stdDeviation="0.075" result="effect1_foregroundBlur_10336_9067"/>
</filter>
<radialGradient id="paint0_radial_10336_9067" cx="0" cy="0" r="1" gradientUnits="userSpaceOnUse" gradientTransform="translate(112.061 109.25) rotate(90) scale(51.6563 17.3672)">
<stop stop-color="#70647F"/>
<stop offset="1" stop-color="#70647F" stop-opacity="0"/>
</radialGradient>
<radialGradient id="paint1_radial_10336_9067" cx="0" cy="0" r="1" gradientUnits="userSpaceOnUse" gradientTransform="translate(42.7403 101.383) scale(6.23437 33.5469)">
<stop stop-color="#5D516A"/>
<stop offset="1" stop-color="#5D516A" stop-opacity="0"/>
</radialGradient>
<radialGradient id="paint2_radial_10336_9067" cx="0" cy="0" r="1" gradientUnits="userSpaceOnUse" gradientTransform="translate(77.4146 100.863) rotate(-90) scale(22.4141 64.8503)">
<stop stop-color="#47404D"/>
<stop offset="1" stop-color="#3B2D3A"/>
</radialGradient>
<radialGradient id="paint3_radial_10336_9067" cx="0" cy="0" r="1" gradientUnits="userSpaceOnUse" gradientTransform="translate(77.3776 79.7109) rotate(90) scale(28.2031 35.8248)">
<stop offset="0.931579" stop-color="#342542" stop-opacity="0"/>
<stop offset="0.994737" stop-color="#342542"/>
</radialGradient>
<radialGradient id="paint4_radial_10336_9067" cx="0" cy="0" r="1" gradientUnits="userSpaceOnUse" gradientTransform="translate(75.3966 73.3281) rotate(145.631) scale(33.8537 46.6732)">
<stop offset="0.9281" stop-color="#6A656F" stop-opacity="0"/>
<stop offset="1" stop-color="#6A656F"/>
</radialGradient>
<radialGradient id="paint5_radial_10336_9067" cx="0" cy="0" r="1" gradientUnits="userSpaceOnUse" gradientTransform="translate(74.2091 72.2148) rotate(34.2663) scale(38.8862 53.6114)">
<stop offset="0.933129" stop-color="#6A656F" stop-opacity="0"/>
<stop offset="1" stop-color="#615B67"/>
</radialGradient>
<radialGradient id="paint6_radial_10336_9067" cx="0" cy="0" r="1" gradientUnits="userSpaceOnUse" gradientTransform="translate(77.3776 111.625) rotate(-90) scale(47.7969 50.5655)">
<stop offset="0.506211" stop-color="#57525D" stop-opacity="0"/>
<stop offset="1" stop-color="#57525D"/>
</radialGradient>
<radialGradient id="paint7_radial_10336_9067" cx="0" cy="0" r="1" gradientUnits="userSpaceOnUse" gradientTransform="translate(77.3776 72.2148) rotate(90) scale(18.332 23.9498)">
<stop offset="0.316364" stop-color="#361E27"/>
<stop offset="1" stop-color="#361E27" stop-opacity="0"/>
</radialGradient>
<radialGradient id="paint8_radial_10336_9067" cx="0" cy="0" r="1" gradientUnits="userSpaceOnUse" gradientTransform="translate(103.618 55.1103) rotate(103.169) scale(18.2577 21.6887)">
<stop offset="0.0431525" stop-color="#FFC135"/>
<stop offset="1" stop-color="#E26839"/>
</radialGradient>
<radialGradient id="paint9_radial_10336_9067" cx="0" cy="0" r="1" gradientUnits="userSpaceOnUse" gradientTransform="translate(100.061 56.389) rotate(53.9017) scale(2.37393 2.01669)">
<stop stop-color="#E18C2A"/>
<stop offset="1" stop-color="#E18C2A" stop-opacity="0"/>
</radialGradient>
<radialGradient id="paint10_radial_10336_9067" cx="0" cy="0" r="1" gradientUnits="userSpaceOnUse" gradientTransform="translate(50.6901 55.6732) rotate(71.2338) scale(19.7586 8.98117)">
<stop stop-color="#D57A26"/>
<stop offset="1" stop-color="#D06A3C"/>
</radialGradient>
<radialGradient id="paint11_radial_10336_9067" cx="0" cy="0" r="1" gradientUnits="userSpaceOnUse" gradientTransform="translate(53.847 55.6332) rotate(72.2903) scale(4.99199 4.37901)">
<stop offset="0.263377" stop-color="#BE691E"/>
<stop offset="0.977292" stop-color="#BE691E" stop-opacity="0"/>
</radialGradient>
<radialGradient id="paint12_radial_10336_9067" cx="0" cy="0" r="1" gradientUnits="userSpaceOnUse" gradientTransform="translate(84.0059 86.7617) rotate(-135.444) scale(6.7702 14.3107)">
<stop stop-color="#D89D21"/>
<stop offset="1" stop-color="#CF7B39"/>
</radialGradient>
<radialGradient id="paint13_radial_10336_9067" cx="0" cy="0" r="1" gradientUnits="userSpaceOnUse" gradientTransform="translate(90.5456 50.6239) rotate(180) scale(24.9359 44.1114)">
<stop stop-color="#FFE846"/>
<stop offset="1" stop-color="#F5A129"/>
</radialGradient>
<radialGradient id="paint14_radial_10336_9067" cx="0" cy="0" r="1" gradientUnits="userSpaceOnUse" gradientTransform="translate(79.7012 38.5938) rotate(94.7148) scale(43.342 49.676)">
<stop offset="0.623188" stop-color="#FBA036" stop-opacity="0"/>
<stop offset="0.979213" stop-color="#C56B42"/>
</radialGradient>
<radialGradient id="paint15_radial_10336_9067" cx="0" cy="0" r="1" gradientUnits="userSpaceOnUse" gradientTransform="translate(101.752 49.5189) rotate(93.7745) scale(29.1684 10.7235)">
<stop offset="0.389903" stop-color="#FFD930"/>
<stop offset="1" stop-color="#FFD930" stop-opacity="0"/>
</radialGradient>
<radialGradient id="paint16_radial_10336_9067" cx="0" cy="0" r="1" gradientUnits="userSpaceOnUse" gradientTransform="translate(67.1776 44.9934) rotate(-90) scale(6.74386 8.11926)">
<stop offset="0.276316" stop-color="#F59632"/>
<stop offset="1" stop-color="#F59632" stop-opacity="0"/>
</radialGradient>
<radialGradient id="paint17_radial_10336_9067" cx="0" cy="0" r="1" gradientUnits="userSpaceOnUse" gradientTransform="translate(89.0236 43.0302) rotate(-90) scale(7.32283 9.49794)">
<stop offset="0.178218" stop-color="#FFBE3A"/>
<stop offset="1" stop-color="#FFBE3A" stop-opacity="0"/>
</radialGradient>
<radialGradient id="paint18_radial_10336_9067" cx="0" cy="0" r="1" gradientUnits="userSpaceOnUse" gradientTransform="translate(74.2189 21.19) rotate(90) scale(11.7913 30.1461)">
<stop offset="0.633626" stop-color="#E28222"/>
<stop offset="1" stop-color="#E28222" stop-opacity="0"/>
</radialGradient>
<linearGradient id="paint19_linear_10336_9067" x1="77.1522" y1="54.5737" x2="81.2283" y2="54.5737" gradientUnits="userSpaceOnUse">
<stop stop-color="#FFC92F"/>
<stop offset="1" stop-color="#FFEA47"/>
</linearGradient>
<linearGradient id="paint20_linear_10336_9067" x1="72.0371" y1="53.832" x2="77.1587" y2="54.1146" gradientUnits="userSpaceOnUse">
<stop stop-color="#F49F22"/>
<stop offset="1" stop-color="#E88830" stop-opacity="0"/>
<stop offset="1" stop-color="#F49F22" stop-opacity="0"/>
</linearGradient>
<linearGradient id="paint21_linear_10336_9067" x1="77.1522" y1="56.4751" x2="77.1522" y2="60.5372" gradientUnits="userSpaceOnUse">
<stop stop-color="#E88830" stop-opacity="0"/>
<stop offset="0.844655" stop-color="#E88830"/>
</linearGradient>
<linearGradient id="paint22_linear_10336_9067" x1="77.1522" y1="45.7581" x2="77.1522" y2="47.7579" gradientUnits="userSpaceOnUse">
<stop stop-color="#FAC137"/>
<stop offset="1" stop-color="#FAC137" stop-opacity="0"/>
</linearGradient>
<radialGradient id="paint23_radial_10336_9067" cx="0" cy="0" r="1" gradientUnits="userSpaceOnUse" gradientTransform="translate(71.7785 66.3119) rotate(-60.732) scale(3.38703 9.85637)">
<stop stop-color="#FFB534"/>
<stop offset="1" stop-color="#FFB534" stop-opacity="0"/>
</radialGradient>
<radialGradient id="paint24_radial_10336_9067" cx="0" cy="0" r="1" gradientUnits="userSpaceOnUse" gradientTransform="translate(77.1532 67.5058) rotate(-90) scale(3.43778 13.8311)">
<stop stop-color="#89014E"/>
<stop offset="1" stop-color="#87004D"/>
</radialGradient>
<linearGradient id="paint25_linear_10336_9067" x1="102.737" y1="23.614" x2="54.4481" y2="23.614" gradientUnits="userSpaceOnUse">
<stop stop-color="#FFE235"/>
<stop offset="1" stop-color="#D29935"/>
</linearGradient>
<radialGradient id="paint26_radial_10336_9067" cx="0" cy="0" r="1" gradientUnits="userSpaceOnUse" gradientTransform="translate(52.2095 43.0781) rotate(-90) scale(27.2785 48.3321)">
<stop offset="0.314517" stop-color="#C98537"/>
<stop offset="1" stop-color="#C98537" stop-opacity="0"/>
</radialGradient>
<radialGradient id="paint27_radial_10336_9067" cx="0" cy="0" r="1" gradientUnits="userSpaceOnUse" gradientTransform="translate(100.339 43.0781) rotate(-90) scale(17.3271 30.7002)">
<stop stop-color="#FFB52A"/>
<stop offset="1" stop-color="#FFB52A" stop-opacity="0"/>
</radialGradient>
<radialGradient id="paint28_radial_10336_9067" cx="0" cy="0" r="1" gradientUnits="userSpaceOnUse" gradientTransform="translate(96.7409 13.1408) rotate(-160.666) scale(20.758 11.055)">
<stop offset="0.347073" stop-color="#FFE639"/>
<stop offset="1" stop-color="#FFE639" stop-opacity="0"/>
</radialGradient>
<radialGradient id="paint29_radial_10336_9067" cx="0" cy="0" r="1" gradientUnits="userSpaceOnUse" gradientTransform="translate(72.8363 5.54568) rotate(58.4652) scale(8.25447 19.1135)">
<stop offset="0.286771" stop-color="#F3C130"/>
<stop offset="1" stop-color="#F3C130" stop-opacity="0"/>
</radialGradient>
<radialGradient id="paint30_radial_10336_9067" cx="0" cy="0" r="1" gradientUnits="userSpaceOnUse" gradientTransform="translate(78.3626 12.4251) rotate(160.16) scale(19.3041 5.3728)">
<stop stop-color="#FFDD30"/>
<stop offset="1" stop-color="#FFDC2B" stop-opacity="0"/>
</radialGradient>
<radialGradient id="paint31_radial_10336_9067" cx="0" cy="0" r="1" gradientUnits="userSpaceOnUse" gradientTransform="translate(51.2501 35.1266) rotate(-57.7244) scale(28.7459 31.8475)">
<stop offset="0.0926981" stop-color="#D67227"/>
<stop offset="0.233498" stop-color="#EF8A23"/>
<stop offset="1" stop-color="#EF8A23" stop-opacity="0"/>
</radialGradient>
<radialGradient id="paint32_radial_10336_9067" cx="0" cy="0" r="1" gradientUnits="userSpaceOnUse" gradientTransform="translate(94.4227 17.9596) rotate(13.3074) scale(16.5952 9.28117)">
<stop stop-color="#FFEB3B"/>
<stop offset="1" stop-color="#FFEB3B" stop-opacity="0"/>
</radialGradient>
<radialGradient id="paint33_radial_10336_9067" cx="0" cy="0" r="1" gradientUnits="userSpaceOnUse" gradientTransform="translate(101.618 39.9229) rotate(-120.119) scale(20.4235 11.39)">
<stop stop-color="#EB8F29"/>
<stop offset="1" stop-color="#EB8F29" stop-opacity="0"/>
</radialGradient>
<radialGradient id="paint34_radial_10336_9067" cx="0" cy="0" r="1" gradientUnits="userSpaceOnUse" gradientTransform="translate(98.6599 38.4911) rotate(-120.695) scale(12.2161 8.74984)">
<stop offset="0.394122" stop-color="#E48421"/>
<stop offset="1" stop-color="#E48421" stop-opacity="0"/>
</radialGradient>
<radialGradient id="paint35_radial_10336_9067" cx="0" cy="0" r="1" gradientUnits="userSpaceOnUse" gradientTransform="translate(100.019 17.4025) rotate(166.509) scale(23.5371 25.4445)">
<stop offset="0.734853" stop-color="#F29415" stop-opacity="0"/>
<stop offset="1" stop-color="#F29415"/>
</radialGradient>
<radialGradient id="paint36_radial_10336_9067" cx="0" cy="0" r="1" gradientUnits="userSpaceOnUse" gradientTransform="translate(93.6232 16.8057) rotate(107.002) scale(1.91397 8.75044)">
<stop offset="0.461072" stop-color="#FFCE3C"/>
<stop offset="1" stop-color="#FFCE3C" stop-opacity="0"/>
</radialGradient>
<radialGradient id="paint37_radial_10336_9067" cx="0" cy="0" r="1" gradientUnits="userSpaceOnUse" gradientTransform="translate(87.5599 46.2529) rotate(90) scale(3.86862 6.15347)">
<stop offset="0.80198" stop-color="#925C51"/>
<stop offset="1" stop-color="#694B43"/>
<stop offset="1" stop-color="#804D49"/>
<stop offset="1" stop-color="#85534D"/>
</radialGradient>
<radialGradient id="paint38_radial_10336_9067" cx="0" cy="0" r="1" gradientUnits="userSpaceOnUse" gradientTransform="translate(86.4694 46.6541) rotate(-127.812) scale(1.80166 2.48046)">
<stop offset="0.765532" stop-color="#FFE6E2" stop-opacity="0"/>
<stop offset="0.966159" stop-color="#FFE6E2"/>
</radialGradient>
<linearGradient id="paint39_linear_10336_9067" x1="91.2661" y1="46.508" x2="89.7734" y2="47.4278" gradientUnits="userSpaceOnUse">
<stop stop-color="#B4948D"/>
<stop offset="1" stop-color="#B4948D" stop-opacity="0"/>
</linearGradient>
<radialGradient id="paint40_radial_10336_9067" cx="0" cy="0" r="1" gradientUnits="userSpaceOnUse" gradientTransform="translate(66.7441 46.2528) rotate(90) scale(3.86881 6.15378)">
<stop offset="0.80198" stop-color="#925C51"/>
<stop offset="1" stop-color="#694B43"/>
<stop offset="1" stop-color="#804D49"/>
<stop offset="1" stop-color="#85534D"/>
</radialGradient>
<linearGradient id="paint41_linear_10336_9067" x1="70.2874" y1="46.5071" x2="68.7945" y2="47.4269" gradientUnits="userSpaceOnUse">
<stop stop-color="#B4948D"/>
<stop offset="1" stop-color="#B4948D" stop-opacity="0"/>
</linearGradient>
<radialGradient id="paint42_radial_10336_9067" cx="0" cy="0" r="1" gradientUnits="userSpaceOnUse" gradientTransform="translate(65.3764 47.297) rotate(-90.897) scale(2.35346 2.82895)">
<stop offset="0.765532" stop-color="#FFE6E2" stop-opacity="0"/>
<stop offset="0.966159" stop-color="#FFE6E2"/>
</radialGradient>
<linearGradient id="paint43_linear_10336_9067" x1="107.856" y1="46.64" x2="102.099" y2="57.0202" gradientUnits="userSpaceOnUse">
<stop stop-color="#FFE343"/>
<stop offset="1" stop-color="#FFC136"/>
</linearGradient>
<radialGradient id="paint44_radial_10336_9067" cx="0" cy="0" r="1" gradientUnits="userSpaceOnUse" gradientTransform="translate(99.1811 46.3202) rotate(74.3475) scale(11.1121 10.6018)">
<stop offset="0.856273" stop-color="#E1943D" stop-opacity="0"/>
<stop offset="1" stop-color="#E08F2E"/>
</radialGradient>
<radialGradient id="paint45_radial_10336_9067" cx="0" cy="0" r="1" gradientUnits="userSpaceOnUse" gradientTransform="translate(100.9 48.9185) rotate(-53.9198) scale(6.3805 5.34812)">
<stop offset="0.663731" stop-color="#FFBD22"/>
<stop offset="1" stop-color="#FFBD22" stop-opacity="0"/>
</radialGradient>
<linearGradient id="paint46_linear_10336_9067" x1="49.2514" y1="49.9987" x2="56.207" y2="49.3912" gradientUnits="userSpaceOnUse">
<stop stop-color="#E39726"/>
<stop offset="1" stop-color="#D9851D"/>
</linearGradient>
<radialGradient id="paint47_radial_10336_9067" cx="0" cy="0" r="1" gradientUnits="userSpaceOnUse" gradientTransform="translate(52.0496 47.1205) rotate(101.248) scale(10.0962 9.92548)">
<stop offset="0.77507" stop-color="#C77937" stop-opacity="0"/>
<stop offset="1" stop-color="#C77937"/>
</radialGradient>
<linearGradient id="paint48_linear_10336_9067" x1="113.906" y1="41.9295" x2="119.54" y2="41.9295" gradientUnits="userSpaceOnUse">
<stop stop-color="#33203C"/>
<stop offset="1" stop-color="#61546D"/>
</linearGradient>
<radialGradient id="paint49_radial_10336_9067" cx="0" cy="0" r="1" gradientUnits="userSpaceOnUse" gradientTransform="translate(118.109 54.879) rotate(-90) scale(11.09 0.856492)">
<stop stop-color="#70635D"/>
<stop offset="1" stop-color="#70635D" stop-opacity="0"/>
</radialGradient>
<radialGradient id="paint50_radial_10336_9067" cx="0" cy="0" r="1" gradientUnits="userSpaceOnUse" gradientTransform="translate(90.5372 28.577) rotate(-102.428) scale(18.6227 99.3528)">
<stop stop-color="#534D5B"/>
<stop offset="1" stop-color="#2B2135"/>
</radialGradient>
<linearGradient id="paint51_linear_10336_9067" x1="85.7871" y1="18.2578" x2="79.7012" y2="-2.52344" gradientUnits="userSpaceOnUse">
<stop stop-color="#3D294B"/>
<stop offset="1" stop-color="#433A4D"/>
</linearGradient>
<radialGradient id="paint52_radial_10336_9067" cx="0" cy="0" r="1" gradientUnits="userSpaceOnUse" gradientTransform="translate(104.639 10.8359) rotate(90) scale(4.45313 60.2656)">
<stop stop-color="#696070"/>
<stop offset="0.866667" stop-color="#696070" stop-opacity="0"/>
</radialGradient>
<radialGradient id="paint53_radial_10336_9067" cx="0" cy="0" r="1" gradientUnits="userSpaceOnUse" gradientTransform="translate(33.5371 13.8047) scale(36.8125 4.15625)">
<stop stop-color="#75707B"/>
<stop offset="0.935484" stop-color="#75707B" stop-opacity="0"/>
</radialGradient>
<radialGradient id="paint54_radial_10336_9067" cx="0" cy="0" r="1" gradientUnits="userSpaceOnUse" gradientTransform="translate(119.336 56.6432) rotate(126.437) scale(6.49864 5.82428)">
<stop stop-color="#686071"/>
<stop offset="0.661286" stop-color="#402A4C"/>
</radialGradient>
<radialGradient id="paint55_radial_10336_9067" cx="0" cy="0" r="1" gradientUnits="userSpaceOnUse" gradientTransform="translate(112.981 58.5029) rotate(-6.43681) scale(3.80669 4.46487)">
<stop offset="0.0866887" stop-color="#685352"/>
<stop offset="1" stop-color="#685352" stop-opacity="0"/>
</radialGradient>
<linearGradient id="paint56_linear_10336_9067" x1="117.949" y1="17.0723" x2="117.949" y2="53.9681" gradientUnits="userSpaceOnUse">
<stop stop-color="#60546C"/>
<stop offset="1" stop-color="#504B55"/>
</linearGradient>
<linearGradient id="paint57_linear_10336_9067" x1="122.429" y1="69.786" x2="111.413" y2="69.786" gradientUnits="userSpaceOnUse">
<stop stop-color="#F9B72A"/>
<stop offset="0.89726" stop-color="#FAAC28"/>
</linearGradient>
<radialGradient id="paint58_radial_10336_9067" cx="0" cy="0" r="1" gradientUnits="userSpaceOnUse" gradientTransform="translate(122.957 69.2094) rotate(169.33) scale(5.29776 26.429)">
<stop offset="0.285799" stop-color="#FFD93A"/>
<stop offset="1" stop-color="#FFD93A" stop-opacity="0"/>
</radialGradient>
<radialGradient id="paint59_radial_10336_9067" cx="0" cy="0" r="1" gradientUnits="userSpaceOnUse" gradientTransform="translate(116.96 79.7109) rotate(-90) scale(6.23437 13.7296)">
<stop offset="0.421677" stop-color="#A16739"/>
<stop offset="1" stop-color="#DB9820" stop-opacity="0"/>
</radialGradient>
<radialGradient id="paint60_radial_10336_9067" cx="0" cy="0" r="1" gradientUnits="userSpaceOnUse" gradientTransform="translate(116.96 61.7129) rotate(90) scale(1.89258 6.56339)">
<stop offset="0.16129" stop-color="#845D03"/>
<stop offset="1" stop-color="#EBA429" stop-opacity="0"/>
</radialGradient>
<radialGradient id="paint61_radial_10336_9067" cx="0" cy="0" r="1" gradientUnits="userSpaceOnUse" gradientTransform="translate(25.1513 141.933) rotate(-90) scale(77.7736 20.732)">
<stop stop-color="#766C83"/>
<stop offset="0.441285" stop-color="#58496A"/>
<stop offset="1" stop-color="#4D4159"/>
</radialGradient>
<radialGradient id="paint62_radial_10336_9067" cx="0" cy="0" r="1" gradientUnits="userSpaceOnUse" gradientTransform="translate(43.0372 141.933) rotate(-90) scale(49.9707 3.9146)">
<stop offset="0.285977" stop-color="#4F445B"/>
<stop offset="1" stop-color="#4F445B" stop-opacity="0"/>
</radialGradient>
<linearGradient id="paint63_linear_10336_9067" x1="43.722" y1="132.76" x2="41.7015" y2="132.76" gradientUnits="userSpaceOnUse">
<stop offset="0.444444" stop-color="#433850"/>
<stop offset="1" stop-color="#433850" stop-opacity="0"/>
</linearGradient>
<radialGradient id="paint64_radial_10336_9067" cx="0" cy="0" r="1" gradientUnits="userSpaceOnUse" gradientTransform="translate(120.661 141.933) rotate(-100.465) scale(49.2363 13.8286)">
<stop stop-color="#736782"/>
<stop offset="1" stop-color="#5F5070"/>
</radialGradient>
<radialGradient id="paint65_radial_10336_9067" cx="0" cy="0" r="1" gradientUnits="userSpaceOnUse" gradientTransform="translate(110.918 109.45) rotate(87.4134) scale(57.2171 3.34152)">
<stop offset="0.176695" stop-color="#3F2A51"/>
<stop offset="1" stop-color="#3F2A51" stop-opacity="0"/>
</radialGradient>
<linearGradient id="paint66_linear_10336_9067" x1="77.3776" y1="141.312" x2="77.3776" y2="110.753" gradientUnits="userSpaceOnUse">
<stop stop-color="#3F3748"/>
<stop offset="1" stop-color="#3F3748" stop-opacity="0"/>
</linearGradient>
<linearGradient id="paint67_linear_10336_9067" x1="77.3776" y1="141.312" x2="77.3776" y2="110.753" gradientUnits="userSpaceOnUse">
<stop stop-color="#3F3748"/>
<stop offset="1" stop-color="#3F3748" stop-opacity="0"/>
</linearGradient>
<linearGradient id="paint68_linear_10336_9067" x1="77.3776" y1="141.312" x2="77.3776" y2="110.753" gradientUnits="userSpaceOnUse">
<stop stop-color="#3F3748"/>
<stop offset="1" stop-color="#3F3748" stop-opacity="0"/>
</linearGradient>
</defs>
</svg>
