<svg width="24" height="24" viewBox="0 0 24 24" fill="none" xmlns="http://www.w3.org/2000/svg">
<path d="M4.29289 13.1893C3.90236 13.5798 3.90236 14.213 4.29289 14.6035C4.68341 14.9941 5.31657 14.9941 5.7071 14.6035L11.1161 9.19453L11.1161 21C11.1161 21.5 11.5 22 12 22C12.5212 22 12.8839 21.5 12.8839 21L12.8839 9.19453L18.2929 14.6035C18.6834 14.9941 19.3166 14.9941 19.7071 14.6035C20.0976 14.213 20.0976 13.5798 19.7071 13.1893L12.8839 6.3661C12.3957 5.87794 11.6043 5.87795 11.1161 6.3661L4.29289 13.1893Z" fill="black"/>
<path fill-rule="evenodd" clip-rule="evenodd" d="M19.0435 3C19.0435 3.55229 18.5763 4 18 4L5.99999 4C5.4237 4 4.95651 3.55228 4.95651 3C4.95651 2.44772 5.4237 2 5.99999 2L18 2C18.5763 2 19.0435 2.44772 19.0435 3Z" fill="black"/>
</svg>
