<svg width="152" height="152" viewBox="0 0 152 152" fill="none" xmlns="http://www.w3.org/2000/svg">
<g filter="url(#filter0_i_10336_9193)">
<path d="M142.571 75.1884H9.57117L17.7411 54.7159C18.5486 52.6734 20.4961 51.3434 22.6811 51.3434H129.461C131.646 51.3434 133.594 52.6734 134.401 54.7159L142.571 75.1884Z" fill="url(#paint0_linear_10336_9193)"/>
<path d="M142.571 75.1884H9.57117L17.7411 54.7159C18.5486 52.6734 20.4961 51.3434 22.6811 51.3434H129.461C131.646 51.3434 133.594 52.6734 134.401 54.7159L142.571 75.1884Z" fill="url(#paint1_linear_10336_9193)"/>
</g>
<g filter="url(#filter1_ii_10336_9193)">
<path d="M83.2437 14.9585H96.0212C96.7812 14.9585 97.3987 15.576 97.3987 16.336V23.081C97.3987 23.841 96.7812 24.4585 96.0212 24.4585H86.1412C84.5737 24.4585 83.2912 23.176 83.2912 21.6085V14.9585H83.2437Z" fill="url(#paint2_linear_10336_9193)"/>
</g>
<g filter="url(#filter2_f_10336_9193)">
<rect x="83.687" y="19.0686" width="7.80318" height="1.09473" rx="0.547363" fill="#51834C"/>
</g>
<g filter="url(#filter3_i_10336_9193)">
<path d="M90.7962 19.7085H76.0712V10.2085H90.7962C91.8412 10.2085 92.6962 11.0635 92.6962 12.1085V17.761C92.7437 18.8535 91.8887 19.7085 90.7962 19.7085Z" fill="#4AD680"/>
<path d="M90.7962 19.7085H76.0712V10.2085H90.7962C91.8412 10.2085 92.6962 11.0635 92.6962 12.1085V17.761C92.7437 18.8535 91.8887 19.7085 90.7962 19.7085Z" fill="url(#paint3_linear_10336_9193)"/>
</g>
<path d="M76.2612 31.5835H75.9762C74.7412 31.5835 73.7437 30.586 73.7437 29.351V10.8735C73.7437 9.63846 74.7412 8.64098 75.9762 8.64098H76.2612C77.4962 8.64098 78.4937 9.63846 78.4937 10.8735V29.351C78.4937 30.586 77.4962 31.5835 76.2612 31.5835Z" fill="url(#paint4_radial_10336_9193)"/>
<path d="M76.2612 31.5835H75.9762C74.7412 31.5835 73.7437 30.586 73.7437 29.351V10.8735C73.7437 9.63846 74.7412 8.64098 75.9762 8.64098H76.2612C77.4962 8.64098 78.4937 9.63846 78.4937 10.8735V29.351C78.4937 30.586 77.4962 31.5835 76.2612 31.5835Z" fill="url(#paint5_radial_10336_9193)"/>
<path d="M42.9882 75.141H9.57117V141.641H42.9882V75.141Z" fill="url(#paint6_linear_10336_9193)"/>
<path d="M42.9882 75.141H9.57117V141.641H42.9882V75.141Z" fill="url(#paint7_linear_10336_9193)"/>
<path d="M42.9882 75.141H9.57117V141.641H42.9882V75.141Z" fill="url(#paint8_linear_10336_9193)"/>
<path d="M42.9882 75.141H9.57117V141.641H42.9882V75.141Z" fill="url(#paint9_linear_10336_9193)"/>
<path d="M109.321 75.141H142.571V141.641H109.321V75.141Z" fill="url(#paint10_linear_10336_9193)"/>
<path d="M109.321 75.141H142.571V141.641H109.321V75.141Z" fill="url(#paint11_linear_10336_9193)"/>
<path d="M109.321 75.141H142.571V141.641H109.321V75.141Z" fill="url(#paint12_linear_10336_9193)"/>
<path d="M109.321 75.141H142.571V141.641H109.321V75.141Z" fill="url(#paint13_radial_10336_9193)"/>
<g filter="url(#filter4_f_10336_9193)">
<rect x="33.4186" y="76" width="12.84" height="6.65905" fill="#8E5745"/>
</g>
<path d="M107.991 65.451L78.7787 36.666C77.3062 35.1935 74.9312 35.1935 73.4587 36.666L44.2462 65.451C43.3912 66.306 42.8687 67.4935 42.8687 68.681V74.381V76.186V141.689H109.369V76.1385V74.3335V68.6335C109.321 67.446 108.846 66.306 107.991 65.451Z" fill="url(#paint14_linear_10336_9193)"/>
<path d="M107.991 65.451L78.7787 36.666C77.3062 35.1935 74.9312 35.1935 73.4587 36.666L44.2462 65.451C43.3912 66.306 42.8687 67.4935 42.8687 68.681V74.381V76.186V141.689H109.369V76.1385V74.3335V68.6335C109.321 67.446 108.846 66.306 107.991 65.451Z" fill="url(#paint15_linear_10336_9193)"/>
<path d="M107.991 65.451L78.7787 36.666C77.3062 35.1935 74.9312 35.1935 73.4587 36.666L44.2462 65.451C43.3912 66.306 42.8687 67.4935 42.8687 68.681V74.381V76.186V141.689H109.369V76.1385V74.3335V68.6335C109.321 67.446 108.846 66.306 107.991 65.451Z" fill="url(#paint16_linear_10336_9193)"/>
<path d="M107.991 65.451L78.7787 36.666C77.3062 35.1935 74.9312 35.1935 73.4587 36.666L44.2462 65.451C43.3912 66.306 42.8687 67.4935 42.8687 68.681V74.381V76.186V141.689H109.369V76.1385V74.3335V68.6335C109.321 67.446 108.846 66.306 107.991 65.451Z" fill="url(#paint17_linear_10336_9193)"/>
<path d="M107.991 65.451L78.7787 36.666C77.3062 35.1935 74.9312 35.1935 73.4587 36.666L44.2462 65.451C43.3912 66.306 42.8687 67.4935 42.8687 68.681V74.381V76.186V141.689H109.369V76.1385V74.3335V68.6335C109.321 67.446 108.846 66.306 107.991 65.451Z" fill="url(#paint18_linear_10336_9193)"/>
<path d="M107.991 65.451L78.7787 36.666C77.3062 35.1935 74.9312 35.1935 73.4587 36.666L44.2462 65.451C43.3912 66.306 42.8687 67.4935 42.8687 68.681V74.381V76.186V141.689H109.369V76.1385V74.3335V68.6335C109.321 67.446 108.846 66.306 107.991 65.451Z" fill="url(#paint19_radial_10336_9193)"/>
<path d="M107.991 65.451L78.7787 36.666C77.3062 35.1935 74.9312 35.1935 73.4587 36.666L44.2462 65.451C43.3912 66.306 42.8687 67.4935 42.8687 68.681V74.381V76.186V141.689H109.369V76.1385V74.3335V68.6335C109.321 67.446 108.846 66.306 107.991 65.451Z" fill="url(#paint20_radial_10336_9193)"/>
<g filter="url(#filter5_i_10336_9193)">
<path d="M122.241 98.891H115.401C114.689 98.891 114.071 98.2735 114.071 97.561V85.971C114.071 85.2585 114.689 84.641 115.401 84.641H122.241C122.954 84.641 123.571 85.2585 123.571 85.971V97.561C123.571 98.321 123.001 98.891 122.241 98.891Z" fill="url(#paint21_linear_10336_9193)"/>
<path d="M122.241 98.891H115.401C114.689 98.891 114.071 98.2735 114.071 97.561V85.971C114.071 85.2585 114.689 84.641 115.401 84.641H122.241C122.954 84.641 123.571 85.2585 123.571 85.971V97.561C123.571 98.321 123.001 98.891 122.241 98.891Z" fill="url(#paint22_linear_10336_9193)"/>
</g>
<g filter="url(#filter6_i_10336_9193)">
<path d="M136.491 98.891H129.651C128.939 98.891 128.321 98.2735 128.321 97.561V85.971C128.321 85.2585 128.939 84.641 129.651 84.641H136.491C137.204 84.641 137.821 85.2585 137.821 85.971V97.561C137.821 98.321 137.251 98.891 136.491 98.891Z" fill="url(#paint23_linear_10336_9193)"/>
<path d="M136.491 98.891H129.651C128.939 98.891 128.321 98.2735 128.321 97.561V85.971C128.321 85.2585 128.939 84.641 129.651 84.641H136.491C137.204 84.641 137.821 85.2585 137.821 85.971V97.561C137.821 98.321 137.251 98.891 136.491 98.891Z" fill="url(#paint24_linear_10336_9193)"/>
</g>
<g filter="url(#filter7_i_10336_9193)">
<path d="M122.241 117.891H115.401C114.689 117.891 114.071 117.273 114.071 116.561V104.971C114.071 104.258 114.689 103.641 115.401 103.641H122.241C122.954 103.641 123.571 104.258 123.571 104.971V116.561C123.571 117.321 123.001 117.891 122.241 117.891Z" fill="url(#paint25_linear_10336_9193)"/>
<path d="M122.241 117.891H115.401C114.689 117.891 114.071 117.273 114.071 116.561V104.971C114.071 104.258 114.689 103.641 115.401 103.641H122.241C122.954 103.641 123.571 104.258 123.571 104.971V116.561C123.571 117.321 123.001 117.891 122.241 117.891Z" fill="url(#paint26_linear_10336_9193)"/>
</g>
<g filter="url(#filter8_i_10336_9193)">
<path d="M136.491 117.891H129.651C128.939 117.891 128.321 117.273 128.321 116.561V104.971C128.321 104.258 128.939 103.641 129.651 103.641H136.491C137.204 103.641 137.821 104.258 137.821 104.971V116.561C137.821 117.321 137.251 117.891 136.491 117.891Z" fill="url(#paint27_linear_10336_9193)"/>
<path d="M136.491 117.891H129.651C128.939 117.891 128.321 117.273 128.321 116.561V104.971C128.321 104.258 128.939 103.641 129.651 103.641H136.491C137.204 103.641 137.821 104.258 137.821 104.971V116.561C137.821 117.321 137.251 117.891 136.491 117.891Z" fill="url(#paint28_linear_10336_9193)"/>
</g>
<g filter="url(#filter9_i_10336_9193)">
<path d="M22.5862 98.891H15.7462C15.0337 98.891 14.4162 98.2735 14.4162 97.561V85.971C14.4162 85.2585 15.0337 84.641 15.7462 84.641H22.5862C23.2987 84.641 23.9162 85.2585 23.9162 85.971V97.561C23.9162 98.321 23.3462 98.891 22.5862 98.891Z" fill="url(#paint29_linear_10336_9193)"/>
<path d="M22.5862 98.891H15.7462C15.0337 98.891 14.4162 98.2735 14.4162 97.561V85.971C14.4162 85.2585 15.0337 84.641 15.7462 84.641H22.5862C23.2987 84.641 23.9162 85.2585 23.9162 85.971V97.561C23.9162 98.321 23.3462 98.891 22.5862 98.891Z" fill="url(#paint30_linear_10336_9193)"/>
</g>
<g filter="url(#filter10_i_10336_9193)">
<path d="M36.8362 98.891H29.9962C29.2837 98.891 28.6662 98.2735 28.6662 97.561V85.971C28.6662 85.2585 29.2837 84.641 29.9962 84.641H36.8362C37.5487 84.641 38.1662 85.2585 38.1662 85.971V97.561C38.1662 98.321 37.5962 98.891 36.8362 98.891Z" fill="url(#paint31_linear_10336_9193)"/>
<path d="M36.8362 98.891H29.9962C29.2837 98.891 28.6662 98.2735 28.6662 97.561V85.971C28.6662 85.2585 29.2837 84.641 29.9962 84.641H36.8362C37.5487 84.641 38.1662 85.2585 38.1662 85.971V97.561C38.1662 98.321 37.5962 98.891 36.8362 98.891Z" fill="url(#paint32_linear_10336_9193)"/>
</g>
<g filter="url(#filter11_i_10336_9193)">
<path d="M22.5862 117.891H15.7462C15.0337 117.891 14.4162 117.273 14.4162 116.561V104.971C14.4162 104.258 15.0337 103.641 15.7462 103.641H22.5862C23.2987 103.641 23.9162 104.258 23.9162 104.971V116.561C23.9162 117.321 23.3462 117.891 22.5862 117.891Z" fill="url(#paint33_linear_10336_9193)"/>
<path d="M22.5862 117.891H15.7462C15.0337 117.891 14.4162 117.273 14.4162 116.561V104.971C14.4162 104.258 15.0337 103.641 15.7462 103.641H22.5862C23.2987 103.641 23.9162 104.258 23.9162 104.971V116.561C23.9162 117.321 23.3462 117.891 22.5862 117.891Z" fill="url(#paint34_linear_10336_9193)"/>
</g>
<g filter="url(#filter12_i_10336_9193)">
<path d="M36.8362 117.891H29.9962C29.2837 117.891 28.6662 117.273 28.6662 116.561V104.971C28.6662 104.258 29.2837 103.641 29.9962 103.641H36.8362C37.5487 103.641 38.1662 104.258 38.1662 104.971V116.561C38.1662 117.321 37.5962 117.891 36.8362 117.891Z" fill="url(#paint35_linear_10336_9193)"/>
<path d="M36.8362 117.891H29.9962C29.2837 117.891 28.6662 117.273 28.6662 116.561V104.971C28.6662 104.258 29.2837 103.641 29.9962 103.641H36.8362C37.5487 103.641 38.1662 104.258 38.1662 104.971V116.561C38.1662 117.321 37.5962 117.891 36.8362 117.891Z" fill="url(#paint36_linear_10336_9193)"/>
</g>
<g filter="url(#filter13_ii_10336_9193)">
<path d="M76.0712 84.641C83.9412 84.641 90.3212 78.261 90.3212 70.391C90.3212 62.5209 83.9412 56.141 76.0712 56.141C68.2011 56.141 61.8212 62.5209 61.8212 70.391C61.8212 78.261 68.2011 84.641 76.0712 84.641Z" fill="#EDDEF1"/>
</g>
<path d="M76.0712 72.3385C74.7412 72.3385 73.6962 71.2935 73.6962 69.9635V63.266C73.6962 61.936 74.7412 60.891 76.0712 60.891C77.4012 60.891 78.4462 61.936 78.4462 63.266V69.9635C78.4462 71.2935 77.3537 72.3385 76.0712 72.3385Z" fill="url(#paint37_radial_10336_9193)"/>
<path d="M76.0712 72.3385C74.7412 72.3385 73.6962 71.2935 73.6962 69.9635V63.266C73.6962 61.936 74.7412 60.891 76.0712 60.891C77.4012 60.891 78.4462 61.936 78.4462 63.266V69.9635C78.4462 71.2935 77.3537 72.3385 76.0712 72.3385Z" fill="url(#paint38_radial_10336_9193)"/>
<path d="M83.1012 79.891C82.4837 79.891 81.8662 79.6535 81.4387 79.1785L74.4087 72.1485C73.4587 71.1985 73.4587 69.726 74.4087 68.776C75.3587 67.826 76.8312 67.826 77.7812 68.776L84.8112 75.806C85.7612 76.756 85.7612 78.2285 84.8112 79.1785C84.2887 79.6535 83.7187 79.891 83.1012 79.891Z" fill="url(#paint39_linear_10336_9193)"/>
<g filter="url(#filter14_ii_10336_9193)">
<path d="M114.071 66.306C114.071 64.881 113.501 63.5509 112.504 62.5534L79.1112 29.161C77.4487 27.4985 74.6936 27.4985 73.0311 29.161L39.6386 62.5534C38.6411 63.5509 38.0712 64.9285 38.0712 66.306C38.0712 69.2529 38.0712 72.3002 38.0712 75.1884C38.0712 76.5184 39.1162 77.5634 40.4462 77.5634C41.7762 77.5634 42.8212 76.5184 42.8212 75.1884C42.8212 73.2639 42.8212 71.1862 42.8212 69.2035C42.8212 67.9685 43.2961 66.7809 44.1986 65.9259L73.4111 36.7135C74.8836 35.241 77.2587 35.241 78.7312 36.7135L107.944 65.9259C108.799 66.7809 109.321 67.9685 109.321 69.2035C109.321 71.1862 109.321 73.2639 109.321 75.1884C109.321 76.5184 110.366 77.5634 111.696 77.5634C113.026 77.5634 114.071 76.5184 114.071 75.1884C114.071 72.2486 114.055 69.2632 114.071 66.306Z" fill="url(#paint40_linear_10336_9193)"/>
</g>
<path d="M114.071 66.306C114.071 64.881 113.501 63.5509 112.504 62.5534L79.1112 29.161C77.4487 27.4985 74.6936 27.4985 73.0311 29.161L39.6386 62.5534C38.6411 63.5509 38.0712 64.9285 38.0712 66.306V74.9509H38.1186C38.1186 75.0459 38.0712 75.0934 38.0712 75.1884C38.0712 76.5184 39.1162 77.5634 40.4462 77.5634C41.7762 77.5634 42.8212 76.5184 42.8212 75.1884C42.8212 75.0934 42.7737 75.0459 42.7737 74.9509H42.8212V69.2035C42.8212 67.9685 43.2961 66.7809 44.1986 65.9259L73.4111 36.7135C74.8836 35.241 77.2587 35.241 78.7312 36.7135L107.944 65.9259C108.799 66.7809 109.321 67.9685 109.321 69.2035C109.321 71.1862 109.321 73.2639 109.321 75.1884C109.321 76.5184 110.366 77.5634 111.696 77.5634C113.026 77.5634 114.071 76.5184 114.071 75.1884C114.071 72.2486 114.055 69.2632 114.071 66.306Z" fill="url(#paint41_linear_10336_9193)"/>
<path d="M114.071 66.306C114.071 64.881 113.501 63.5509 112.504 62.5534L79.1112 29.161C77.4487 27.4985 74.6936 27.4985 73.0311 29.161L39.6386 62.5534C38.6411 63.5509 38.0712 64.9285 38.0712 66.306V74.9509H38.1186C38.1186 75.0459 38.0712 75.0934 38.0712 75.1884C38.0712 76.5184 39.1162 77.5634 40.4462 77.5634C41.7762 77.5634 42.8212 76.5184 42.8212 75.1884C42.8212 75.0934 42.7737 75.0459 42.7737 74.9509H42.8212V69.2035C42.8212 67.9685 43.2961 66.7809 44.1986 65.9259L73.4111 36.7135C74.8836 35.241 77.2587 35.241 78.7312 36.7135L107.944 65.9259C108.799 66.7809 109.321 67.9685 109.321 69.2035C109.321 71.1862 109.321 73.2639 109.321 75.1884C109.321 76.5184 110.366 77.5634 111.696 77.5634C113.026 77.5634 114.071 76.5184 114.071 75.1884C114.071 72.2486 114.055 69.2632 114.071 66.306Z" fill="url(#paint42_linear_10336_9193)"/>
<path d="M114.071 66.306C114.071 64.881 113.501 63.5509 112.504 62.5534L79.1112 29.161C77.4487 27.4985 74.6936 27.4985 73.0311 29.161L39.6386 62.5534C38.6411 63.5509 38.0712 64.9285 38.0712 66.306V74.9509H38.1186C38.1186 75.0459 38.0712 75.0934 38.0712 75.1884C38.0712 76.5184 39.1162 77.5634 40.4462 77.5634C41.7762 77.5634 42.8212 76.5184 42.8212 75.1884C42.8212 75.0934 42.7737 75.0459 42.7737 74.9509H42.8212V69.2035C42.8212 67.9685 43.2961 66.7809 44.1986 65.9259L73.4111 36.7135C74.8836 35.241 77.2587 35.241 78.7312 36.7135L107.944 65.9259C108.799 66.7809 109.321 67.9685 109.321 69.2035C109.321 71.1862 109.321 73.2639 109.321 75.1884C109.321 76.5184 110.366 77.5634 111.696 77.5634C113.026 77.5634 114.071 76.5184 114.071 75.1884C114.071 72.2486 114.055 69.2632 114.071 66.306Z" fill="url(#paint43_radial_10336_9193)"/>
<g filter="url(#filter15_i_10336_9193)">
<path d="M90.3688 141.641H61.6313V116.466C61.6313 114.613 63.1038 113.141 64.9563 113.141H87.0438C88.8963 113.141 90.3688 114.613 90.3688 116.466V141.641V141.641Z" fill="url(#paint44_linear_10336_9193)"/>
<path d="M90.3688 141.641H61.6313V116.466C61.6313 114.613 63.1038 113.141 64.9563 113.141H87.0438C88.8963 113.141 90.3688 114.613 90.3688 116.466V141.641V141.641Z" fill="url(#paint45_linear_10336_9193)"/>
</g>
<g filter="url(#filter16_f_10336_9193)">
<path d="M76.2341 70.4961L83.6147 77.9216" stroke="url(#paint46_linear_10336_9193)" stroke-width="0.25" stroke-linecap="round"/>
</g>
<g filter="url(#filter17_f_10336_9193)">
<path d="M77.4536 30.1153L111.1 63.8615" stroke="url(#paint47_linear_10336_9193)" stroke-width="0.4" stroke-linecap="round"/>
</g>
<defs>
<filter id="filter0_i_10336_9193" x="9.32117" y="51.3434" width="133.25" height="24.095" filterUnits="userSpaceOnUse" color-interpolation-filters="sRGB">
<feFlood flood-opacity="0" result="BackgroundImageFix"/>
<feBlend mode="normal" in="SourceGraphic" in2="BackgroundImageFix" result="shape"/>
<feColorMatrix in="SourceAlpha" type="matrix" values="0 0 0 0 0 0 0 0 0 0 0 0 0 0 0 0 0 0 127 0" result="hardAlpha"/>
<feOffset dx="-0.25" dy="0.25"/>
<feGaussianBlur stdDeviation="0.25"/>
<feComposite in2="hardAlpha" operator="arithmetic" k2="-1" k3="1"/>
<feColorMatrix type="matrix" values="0 0 0 0 0.639216 0 0 0 0 0.435294 0 0 0 0 0.364706 0 0 0 1 0"/>
<feBlend mode="normal" in2="shape" result="effect1_innerShadow_10336_9193"/>
</filter>
<filter id="filter1_ii_10336_9193" x="83.0937" y="14.8085" width="14.455" height="9.8" filterUnits="userSpaceOnUse" color-interpolation-filters="sRGB">
<feFlood flood-opacity="0" result="BackgroundImageFix"/>
<feBlend mode="normal" in="SourceGraphic" in2="BackgroundImageFix" result="shape"/>
<feColorMatrix in="SourceAlpha" type="matrix" values="0 0 0 0 0 0 0 0 0 0 0 0 0 0 0 0 0 0 127 0" result="hardAlpha"/>
<feOffset dx="-0.15" dy="0.15"/>
<feGaussianBlur stdDeviation="0.125"/>
<feComposite in2="hardAlpha" operator="arithmetic" k2="-1" k3="1"/>
<feColorMatrix type="matrix" values="0 0 0 0 0.843137 0 0 0 0 1 0 0 0 0 0.419608 0 0 0 1 0"/>
<feBlend mode="normal" in2="shape" result="effect1_innerShadow_10336_9193"/>
<feColorMatrix in="SourceAlpha" type="matrix" values="0 0 0 0 0 0 0 0 0 0 0 0 0 0 0 0 0 0 127 0" result="hardAlpha"/>
<feOffset dx="0.15" dy="-0.15"/>
<feGaussianBlur stdDeviation="0.15"/>
<feComposite in2="hardAlpha" operator="arithmetic" k2="-1" k3="1"/>
<feColorMatrix type="matrix" values="0 0 0 0 0.258824 0 0 0 0 0.447059 0 0 0 0 0.294118 0 0 0 1 0"/>
<feBlend mode="normal" in2="effect1_innerShadow_10336_9193" result="effect2_innerShadow_10336_9193"/>
</filter>
<filter id="filter2_f_10336_9193" x="83.587" y="18.9686" width="8.00316" height="1.29473" filterUnits="userSpaceOnUse" color-interpolation-filters="sRGB">
<feFlood flood-opacity="0" result="BackgroundImageFix"/>
<feBlend mode="normal" in="SourceGraphic" in2="BackgroundImageFix" result="shape"/>
<feGaussianBlur stdDeviation="0.05" result="effect1_foregroundBlur_10336_9193"/>
</filter>
<filter id="filter3_i_10336_9193" x="75.9212" y="10.2085" width="16.7769" height="9.65" filterUnits="userSpaceOnUse" color-interpolation-filters="sRGB">
<feFlood flood-opacity="0" result="BackgroundImageFix"/>
<feBlend mode="normal" in="SourceGraphic" in2="BackgroundImageFix" result="shape"/>
<feColorMatrix in="SourceAlpha" type="matrix" values="0 0 0 0 0 0 0 0 0 0 0 0 0 0 0 0 0 0 127 0" result="hardAlpha"/>
<feOffset dx="-0.15" dy="0.15"/>
<feGaussianBlur stdDeviation="0.125"/>
<feComposite in2="hardAlpha" operator="arithmetic" k2="-1" k3="1"/>
<feColorMatrix type="matrix" values="0 0 0 0 0.407843 0 0 0 0 0.937255 0 0 0 0 0.603922 0 0 0 1 0"/>
<feBlend mode="normal" in2="shape" result="effect1_innerShadow_10336_9193"/>
</filter>
<filter id="filter4_f_10336_9193" x="31.4186" y="74" width="16.84" height="10.6591" filterUnits="userSpaceOnUse" color-interpolation-filters="sRGB">
<feFlood flood-opacity="0" result="BackgroundImageFix"/>
<feBlend mode="normal" in="SourceGraphic" in2="BackgroundImageFix" result="shape"/>
<feGaussianBlur stdDeviation="1" result="effect1_foregroundBlur_10336_9193"/>
</filter>
<filter id="filter5_i_10336_9193" x="113.921" y="84.641" width="9.65" height="14.3" filterUnits="userSpaceOnUse" color-interpolation-filters="sRGB">
<feFlood flood-opacity="0" result="BackgroundImageFix"/>
<feBlend mode="normal" in="SourceGraphic" in2="BackgroundImageFix" result="shape"/>
<feColorMatrix in="SourceAlpha" type="matrix" values="0 0 0 0 0 0 0 0 0 0 0 0 0 0 0 0 0 0 127 0" result="hardAlpha"/>
<feOffset dx="-0.15" dy="0.05"/>
<feGaussianBlur stdDeviation="0.15"/>
<feComposite in2="hardAlpha" operator="arithmetic" k2="-1" k3="1"/>
<feColorMatrix type="matrix" values="0 0 0 0 0.0705882 0 0 0 0 0.466667 0 0 0 0 0.815686 0 0 0 1 0"/>
<feBlend mode="normal" in2="shape" result="effect1_innerShadow_10336_9193"/>
</filter>
<filter id="filter6_i_10336_9193" x="128.171" y="84.641" width="9.65" height="14.3" filterUnits="userSpaceOnUse" color-interpolation-filters="sRGB">
<feFlood flood-opacity="0" result="BackgroundImageFix"/>
<feBlend mode="normal" in="SourceGraphic" in2="BackgroundImageFix" result="shape"/>
<feColorMatrix in="SourceAlpha" type="matrix" values="0 0 0 0 0 0 0 0 0 0 0 0 0 0 0 0 0 0 127 0" result="hardAlpha"/>
<feOffset dx="-0.15" dy="0.05"/>
<feGaussianBlur stdDeviation="0.15"/>
<feComposite in2="hardAlpha" operator="arithmetic" k2="-1" k3="1"/>
<feColorMatrix type="matrix" values="0 0 0 0 0.0705882 0 0 0 0 0.466667 0 0 0 0 0.815686 0 0 0 1 0"/>
<feBlend mode="normal" in2="shape" result="effect1_innerShadow_10336_9193"/>
</filter>
<filter id="filter7_i_10336_9193" x="113.921" y="103.641" width="9.65" height="14.3" filterUnits="userSpaceOnUse" color-interpolation-filters="sRGB">
<feFlood flood-opacity="0" result="BackgroundImageFix"/>
<feBlend mode="normal" in="SourceGraphic" in2="BackgroundImageFix" result="shape"/>
<feColorMatrix in="SourceAlpha" type="matrix" values="0 0 0 0 0 0 0 0 0 0 0 0 0 0 0 0 0 0 127 0" result="hardAlpha"/>
<feOffset dx="-0.15" dy="0.05"/>
<feGaussianBlur stdDeviation="0.15"/>
<feComposite in2="hardAlpha" operator="arithmetic" k2="-1" k3="1"/>
<feColorMatrix type="matrix" values="0 0 0 0 0.0705882 0 0 0 0 0.466667 0 0 0 0 0.815686 0 0 0 1 0"/>
<feBlend mode="normal" in2="shape" result="effect1_innerShadow_10336_9193"/>
</filter>
<filter id="filter8_i_10336_9193" x="128.171" y="103.641" width="9.65" height="14.3" filterUnits="userSpaceOnUse" color-interpolation-filters="sRGB">
<feFlood flood-opacity="0" result="BackgroundImageFix"/>
<feBlend mode="normal" in="SourceGraphic" in2="BackgroundImageFix" result="shape"/>
<feColorMatrix in="SourceAlpha" type="matrix" values="0 0 0 0 0 0 0 0 0 0 0 0 0 0 0 0 0 0 127 0" result="hardAlpha"/>
<feOffset dx="-0.15" dy="0.05"/>
<feGaussianBlur stdDeviation="0.15"/>
<feComposite in2="hardAlpha" operator="arithmetic" k2="-1" k3="1"/>
<feColorMatrix type="matrix" values="0 0 0 0 0.0705882 0 0 0 0 0.466667 0 0 0 0 0.815686 0 0 0 1 0"/>
<feBlend mode="normal" in2="shape" result="effect1_innerShadow_10336_9193"/>
</filter>
<filter id="filter9_i_10336_9193" x="14.2662" y="84.641" width="9.65" height="14.3" filterUnits="userSpaceOnUse" color-interpolation-filters="sRGB">
<feFlood flood-opacity="0" result="BackgroundImageFix"/>
<feBlend mode="normal" in="SourceGraphic" in2="BackgroundImageFix" result="shape"/>
<feColorMatrix in="SourceAlpha" type="matrix" values="0 0 0 0 0 0 0 0 0 0 0 0 0 0 0 0 0 0 127 0" result="hardAlpha"/>
<feOffset dx="-0.15" dy="0.05"/>
<feGaussianBlur stdDeviation="0.15"/>
<feComposite in2="hardAlpha" operator="arithmetic" k2="-1" k3="1"/>
<feColorMatrix type="matrix" values="0 0 0 0 0.0705882 0 0 0 0 0.466667 0 0 0 0 0.815686 0 0 0 1 0"/>
<feBlend mode="normal" in2="shape" result="effect1_innerShadow_10336_9193"/>
</filter>
<filter id="filter10_i_10336_9193" x="28.5162" y="84.641" width="9.65" height="14.3" filterUnits="userSpaceOnUse" color-interpolation-filters="sRGB">
<feFlood flood-opacity="0" result="BackgroundImageFix"/>
<feBlend mode="normal" in="SourceGraphic" in2="BackgroundImageFix" result="shape"/>
<feColorMatrix in="SourceAlpha" type="matrix" values="0 0 0 0 0 0 0 0 0 0 0 0 0 0 0 0 0 0 127 0" result="hardAlpha"/>
<feOffset dx="-0.15" dy="0.05"/>
<feGaussianBlur stdDeviation="0.15"/>
<feComposite in2="hardAlpha" operator="arithmetic" k2="-1" k3="1"/>
<feColorMatrix type="matrix" values="0 0 0 0 0.0705882 0 0 0 0 0.466667 0 0 0 0 0.815686 0 0 0 1 0"/>
<feBlend mode="normal" in2="shape" result="effect1_innerShadow_10336_9193"/>
</filter>
<filter id="filter11_i_10336_9193" x="14.2662" y="103.641" width="9.65" height="14.3" filterUnits="userSpaceOnUse" color-interpolation-filters="sRGB">
<feFlood flood-opacity="0" result="BackgroundImageFix"/>
<feBlend mode="normal" in="SourceGraphic" in2="BackgroundImageFix" result="shape"/>
<feColorMatrix in="SourceAlpha" type="matrix" values="0 0 0 0 0 0 0 0 0 0 0 0 0 0 0 0 0 0 127 0" result="hardAlpha"/>
<feOffset dx="-0.15" dy="0.05"/>
<feGaussianBlur stdDeviation="0.15"/>
<feComposite in2="hardAlpha" operator="arithmetic" k2="-1" k3="1"/>
<feColorMatrix type="matrix" values="0 0 0 0 0.0705882 0 0 0 0 0.466667 0 0 0 0 0.815686 0 0 0 1 0"/>
<feBlend mode="normal" in2="shape" result="effect1_innerShadow_10336_9193"/>
</filter>
<filter id="filter12_i_10336_9193" x="28.5162" y="103.641" width="9.65" height="14.3" filterUnits="userSpaceOnUse" color-interpolation-filters="sRGB">
<feFlood flood-opacity="0" result="BackgroundImageFix"/>
<feBlend mode="normal" in="SourceGraphic" in2="BackgroundImageFix" result="shape"/>
<feColorMatrix in="SourceAlpha" type="matrix" values="0 0 0 0 0 0 0 0 0 0 0 0 0 0 0 0 0 0 127 0" result="hardAlpha"/>
<feOffset dx="-0.15" dy="0.05"/>
<feGaussianBlur stdDeviation="0.15"/>
<feComposite in2="hardAlpha" operator="arithmetic" k2="-1" k3="1"/>
<feColorMatrix type="matrix" values="0 0 0 0 0.0705882 0 0 0 0 0.466667 0 0 0 0 0.815686 0 0 0 1 0"/>
<feBlend mode="normal" in2="shape" result="effect1_innerShadow_10336_9193"/>
</filter>
<filter id="filter13_ii_10336_9193" x="61.5212" y="55.841" width="29.1" height="29.1" filterUnits="userSpaceOnUse" color-interpolation-filters="sRGB">
<feFlood flood-opacity="0" result="BackgroundImageFix"/>
<feBlend mode="normal" in="SourceGraphic" in2="BackgroundImageFix" result="shape"/>
<feColorMatrix in="SourceAlpha" type="matrix" values="0 0 0 0 0 0 0 0 0 0 0 0 0 0 0 0 0 0 127 0" result="hardAlpha"/>
<feOffset dx="0.3" dy="-0.3"/>
<feGaussianBlur stdDeviation="0.5"/>
<feComposite in2="hardAlpha" operator="arithmetic" k2="-1" k3="1"/>
<feColorMatrix type="matrix" values="0 0 0 0 1 0 0 0 0 1 0 0 0 0 1 0 0 0 1 0"/>
<feBlend mode="normal" in2="shape" result="effect1_innerShadow_10336_9193"/>
<feColorMatrix in="SourceAlpha" type="matrix" values="0 0 0 0 0 0 0 0 0 0 0 0 0 0 0 0 0 0 127 0" result="hardAlpha"/>
<feOffset dx="-0.3" dy="0.3"/>
<feGaussianBlur stdDeviation="0.5"/>
<feComposite in2="hardAlpha" operator="arithmetic" k2="-1" k3="1"/>
<feColorMatrix type="matrix" values="0 0 0 0 0.694118 0 0 0 0 0.592157 0 0 0 0 0.733333 0 0 0 1 0"/>
<feBlend mode="normal" in2="effect1_innerShadow_10336_9193" result="effect2_innerShadow_10336_9193"/>
</filter>
<filter id="filter14_ii_10336_9193" x="37.8712" y="27.6641" width="76.5" height="49.8994" filterUnits="userSpaceOnUse" color-interpolation-filters="sRGB">
<feFlood flood-opacity="0" result="BackgroundImageFix"/>
<feBlend mode="normal" in="SourceGraphic" in2="BackgroundImageFix" result="shape"/>
<feColorMatrix in="SourceAlpha" type="matrix" values="0 0 0 0 0 0 0 0 0 0 0 0 0 0 0 0 0 0 127 0" result="hardAlpha"/>
<feOffset dx="0.4" dy="-0.25"/>
<feGaussianBlur stdDeviation="0.15"/>
<feComposite in2="hardAlpha" operator="arithmetic" k2="-1" k3="1"/>
<feColorMatrix type="matrix" values="0 0 0 0 0.384314 0 0 0 0 0.258824 0 0 0 0 0.231373 0 0 0 1 0"/>
<feBlend mode="normal" in2="shape" result="effect1_innerShadow_10336_9193"/>
<feColorMatrix in="SourceAlpha" type="matrix" values="0 0 0 0 0 0 0 0 0 0 0 0 0 0 0 0 0 0 127 0" result="hardAlpha"/>
<feOffset dx="-0.2"/>
<feGaussianBlur stdDeviation="0.15"/>
<feComposite in2="hardAlpha" operator="arithmetic" k2="-1" k3="1"/>
<feColorMatrix type="matrix" values="0 0 0 0 0.670588 0 0 0 0 0.466667 0 0 0 0 0.415686 0 0 0 1 0"/>
<feBlend mode="normal" in2="effect1_innerShadow_10336_9193" result="effect2_innerShadow_10336_9193"/>
</filter>
<filter id="filter15_i_10336_9193" x="61.3813" y="113.141" width="28.9875" height="28.75" filterUnits="userSpaceOnUse" color-interpolation-filters="sRGB">
<feFlood flood-opacity="0" result="BackgroundImageFix"/>
<feBlend mode="normal" in="SourceGraphic" in2="BackgroundImageFix" result="shape"/>
<feColorMatrix in="SourceAlpha" type="matrix" values="0 0 0 0 0 0 0 0 0 0 0 0 0 0 0 0 0 0 127 0" result="hardAlpha"/>
<feOffset dx="-0.25" dy="0.25"/>
<feGaussianBlur stdDeviation="0.25"/>
<feComposite in2="hardAlpha" operator="arithmetic" k2="-1" k3="1"/>
<feColorMatrix type="matrix" values="0 0 0 0 0.176471 0 0 0 0 0.12549 0 0 0 0 0.211765 0 0 0 1 0"/>
<feBlend mode="normal" in2="shape" result="effect1_innerShadow_10336_9193"/>
</filter>
<filter id="filter16_f_10336_9193" x="75.6091" y="69.8711" width="8.63049" height="8.6755" filterUnits="userSpaceOnUse" color-interpolation-filters="sRGB">
<feFlood flood-opacity="0" result="BackgroundImageFix"/>
<feBlend mode="normal" in="SourceGraphic" in2="BackgroundImageFix" result="shape"/>
<feGaussianBlur stdDeviation="0.25" result="effect1_foregroundBlur_10336_9193"/>
</filter>
<filter id="filter17_f_10336_9193" x="76.8536" y="29.5153" width="34.8469" height="34.9461" filterUnits="userSpaceOnUse" color-interpolation-filters="sRGB">
<feFlood flood-opacity="0" result="BackgroundImageFix"/>
<feBlend mode="normal" in="SourceGraphic" in2="BackgroundImageFix" result="shape"/>
<feGaussianBlur stdDeviation="0.2" result="effect1_foregroundBlur_10336_9193"/>
</filter>
<linearGradient id="paint0_linear_10336_9193" x1="76.0712" y1="53.1722" x2="76.0712" y2="75.1884" gradientUnits="userSpaceOnUse">
<stop stop-color="#A77060"/>
<stop offset="1" stop-color="#6E504C"/>
</linearGradient>
<linearGradient id="paint1_linear_10336_9193" x1="13.579" y1="68.0159" x2="16.322" y2="68.8293" gradientUnits="userSpaceOnUse">
<stop stop-color="#554540"/>
<stop offset="1" stop-color="#735348" stop-opacity="0"/>
</linearGradient>
<linearGradient id="paint2_linear_10336_9193" x1="84.5321" y1="22.0003" x2="94.6259" y2="22.0003" gradientUnits="userSpaceOnUse">
<stop stop-color="#67C175"/>
<stop offset="1" stop-color="#A1E16D"/>
</linearGradient>
<linearGradient id="paint3_linear_10336_9193" x1="84.3847" y1="20.9301" x2="84.3847" y2="17.9669" gradientUnits="userSpaceOnUse">
<stop stop-color="#308649"/>
<stop offset="1" stop-color="#308649" stop-opacity="0"/>
</linearGradient>
<radialGradient id="paint4_radial_10336_9193" cx="0" cy="0" r="1" gradientUnits="userSpaceOnUse" gradientTransform="translate(78.4937 13.3615) rotate(90) scale(20.6373 9.41162)">
<stop stop-color="#B27C6D"/>
<stop offset="0.86758" stop-color="#523C35"/>
</radialGradient>
<radialGradient id="paint5_radial_10336_9193" cx="0" cy="0" r="1" gradientUnits="userSpaceOnUse" gradientTransform="translate(79.4756 8.64098) rotate(-180) scale(5.03724 4.98169)">
<stop stop-color="#D19580"/>
<stop offset="1" stop-color="#D19580" stop-opacity="0"/>
</radialGradient>
<linearGradient id="paint6_linear_10336_9193" x1="26.2797" y1="75.141" x2="26.2797" y2="136.232" gradientUnits="userSpaceOnUse">
<stop stop-color="#C9885B"/>
<stop offset="1" stop-color="#E79F6A"/>
</linearGradient>
<linearGradient id="paint7_linear_10336_9193" x1="45.698" y1="112.096" x2="31.1951" y2="112.096" gradientUnits="userSpaceOnUse">
<stop stop-color="#935B42"/>
<stop offset="1" stop-color="#B67358" stop-opacity="0"/>
</linearGradient>
<linearGradient id="paint8_linear_10336_9193" x1="9.57117" y1="129.617" x2="13.1337" y2="129.617" gradientUnits="userSpaceOnUse">
<stop stop-color="#A1714D"/>
<stop offset="1" stop-color="#A1714D" stop-opacity="0"/>
</linearGradient>
<linearGradient id="paint9_linear_10336_9193" x1="26.2797" y1="69.6188" x2="26.2797" y2="78.6458" gradientUnits="userSpaceOnUse">
<stop stop-color="#8B5243"/>
<stop offset="1" stop-color="#8B5243" stop-opacity="0"/>
</linearGradient>
<linearGradient id="paint10_linear_10336_9193" x1="109.321" y1="127.652" x2="142.571" y2="127.652" gradientUnits="userSpaceOnUse">
<stop stop-color="#FFD19E"/>
<stop offset="1" stop-color="#F2BEA5"/>
</linearGradient>
<linearGradient id="paint11_linear_10336_9193" x1="142.571" y1="118.908" x2="139.531" y2="118.908" gradientUnits="userSpaceOnUse">
<stop stop-color="#EEC9A8"/>
<stop offset="1" stop-color="#EEC9A8" stop-opacity="0"/>
</linearGradient>
<linearGradient id="paint12_linear_10336_9193" x1="121.337" y1="74.4043" x2="121.337" y2="76.9862" gradientUnits="userSpaceOnUse">
<stop stop-color="#A97469"/>
<stop offset="1" stop-color="#A97469" stop-opacity="0"/>
</linearGradient>
<radialGradient id="paint13_radial_10336_9193" cx="0" cy="0" r="1" gradientUnits="userSpaceOnUse" gradientTransform="translate(108.802 75.141) rotate(90) scale(5.56633 4.45312)">
<stop offset="0.306658" stop-color="#A97469"/>
<stop offset="1" stop-color="#A97469" stop-opacity="0"/>
</radialGradient>
<linearGradient id="paint14_linear_10336_9193" x1="53.2118" y1="102.157" x2="106.056" y2="113.438" gradientUnits="userSpaceOnUse">
<stop stop-color="#F2B98E"/>
<stop offset="1" stop-color="#FFD7AB"/>
</linearGradient>
<linearGradient id="paint15_linear_10336_9193" x1="41.3368" y1="117.705" x2="46.5321" y2="117.705" gradientUnits="userSpaceOnUse">
<stop offset="0.214286" stop-color="#A3785B"/>
<stop offset="0.657143" stop-color="#B27E5B"/>
<stop offset="0.914286" stop-color="#DEA072" stop-opacity="0"/>
</linearGradient>
<linearGradient id="paint16_linear_10336_9193" x1="109.369" y1="114.973" x2="106.708" y2="114.973" gradientUnits="userSpaceOnUse">
<stop offset="0.402996" stop-color="#FFE4B3"/>
<stop offset="1" stop-color="#FFE4B3" stop-opacity="0"/>
</linearGradient>
<linearGradient id="paint17_linear_10336_9193" x1="95.2537" y1="51.6448" x2="91.3921" y2="55.5064" gradientUnits="userSpaceOnUse">
<stop offset="0.189917" stop-color="#8A594A"/>
<stop offset="1" stop-color="#986658" stop-opacity="0"/>
</linearGradient>
<linearGradient id="paint18_linear_10336_9193" x1="58.6298" y1="49.6839" x2="60.9305" y2="51.9847" gradientUnits="userSpaceOnUse">
<stop stop-color="#794D30"/>
<stop offset="1" stop-color="#794D30" stop-opacity="0"/>
</linearGradient>
<radialGradient id="paint19_radial_10336_9193" cx="0" cy="0" r="1" gradientUnits="userSpaceOnUse" gradientTransform="translate(109.369 68.2386) rotate(90) scale(13.2852 3.61005)">
<stop offset="0.273743" stop-color="#1D0C0B"/>
<stop offset="1" stop-color="#AC7C6C" stop-opacity="0"/>
</radialGradient>
<radialGradient id="paint20_radial_10336_9193" cx="0" cy="0" r="1" gradientUnits="userSpaceOnUse" gradientTransform="translate(42.0048 67.9417) rotate(90) scale(11.5781 3.93359)">
<stop offset="0.24359" stop-color="#1D0C0B"/>
<stop offset="1" stop-color="#1D0C0B" stop-opacity="0"/>
</radialGradient>
<linearGradient id="paint21_linear_10336_9193" x1="115.976" y1="93.538" x2="123.567" y2="93.7204" gradientUnits="userSpaceOnUse">
<stop stop-color="#53C7FF"/>
<stop offset="0.842209" stop-color="#44ACFA"/>
<stop offset="1" stop-color="#3EA2ED"/>
</linearGradient>
<linearGradient id="paint22_linear_10336_9193" x1="114.071" y1="91.766" x2="115.37" y2="91.766" gradientUnits="userSpaceOnUse">
<stop stop-color="#5ADFFF"/>
<stop offset="0.90937" stop-color="#5ADFFF" stop-opacity="0"/>
</linearGradient>
<linearGradient id="paint23_linear_10336_9193" x1="130.226" y1="93.538" x2="137.817" y2="93.7204" gradientUnits="userSpaceOnUse">
<stop stop-color="#53C7FF"/>
<stop offset="0.842209" stop-color="#44ACFA"/>
<stop offset="1" stop-color="#3EA2ED"/>
</linearGradient>
<linearGradient id="paint24_linear_10336_9193" x1="128.321" y1="91.766" x2="129.62" y2="91.766" gradientUnits="userSpaceOnUse">
<stop stop-color="#5ADFFF"/>
<stop offset="0.90937" stop-color="#5ADFFF" stop-opacity="0"/>
</linearGradient>
<linearGradient id="paint25_linear_10336_9193" x1="115.976" y1="112.538" x2="123.567" y2="112.72" gradientUnits="userSpaceOnUse">
<stop stop-color="#53C7FF"/>
<stop offset="0.842209" stop-color="#44ACFA"/>
<stop offset="1" stop-color="#3EA2ED"/>
</linearGradient>
<linearGradient id="paint26_linear_10336_9193" x1="114.071" y1="110.766" x2="115.37" y2="110.766" gradientUnits="userSpaceOnUse">
<stop stop-color="#5ADFFF"/>
<stop offset="0.90937" stop-color="#5ADFFF" stop-opacity="0"/>
</linearGradient>
<linearGradient id="paint27_linear_10336_9193" x1="130.226" y1="112.538" x2="137.817" y2="112.72" gradientUnits="userSpaceOnUse">
<stop stop-color="#53C7FF"/>
<stop offset="0.842209" stop-color="#44ACFA"/>
<stop offset="1" stop-color="#3EA2ED"/>
</linearGradient>
<linearGradient id="paint28_linear_10336_9193" x1="128.321" y1="110.766" x2="129.62" y2="110.766" gradientUnits="userSpaceOnUse">
<stop stop-color="#5ADFFF"/>
<stop offset="0.90937" stop-color="#5ADFFF" stop-opacity="0"/>
</linearGradient>
<linearGradient id="paint29_linear_10336_9193" x1="16.5319" y1="96.3885" x2="25.5455" y2="83.9985" gradientUnits="userSpaceOnUse">
<stop stop-color="#54D3FF"/>
<stop offset="1" stop-color="#44ACFA"/>
</linearGradient>
<linearGradient id="paint30_linear_10336_9193" x1="14.4162" y1="91.766" x2="15.7148" y2="91.766" gradientUnits="userSpaceOnUse">
<stop stop-color="#5ADFFF"/>
<stop offset="0.90937" stop-color="#5ADFFF" stop-opacity="0"/>
</linearGradient>
<linearGradient id="paint31_linear_10336_9193" x1="30.7819" y1="96.3885" x2="39.7955" y2="83.9985" gradientUnits="userSpaceOnUse">
<stop stop-color="#54D3FF"/>
<stop offset="1" stop-color="#44ACFA"/>
</linearGradient>
<linearGradient id="paint32_linear_10336_9193" x1="28.6662" y1="91.766" x2="29.9648" y2="91.766" gradientUnits="userSpaceOnUse">
<stop stop-color="#5ADFFF"/>
<stop offset="0.90937" stop-color="#5ADFFF" stop-opacity="0"/>
</linearGradient>
<linearGradient id="paint33_linear_10336_9193" x1="16.5319" y1="115.388" x2="25.5455" y2="102.999" gradientUnits="userSpaceOnUse">
<stop stop-color="#54D3FF"/>
<stop offset="1" stop-color="#44ACFA"/>
</linearGradient>
<linearGradient id="paint34_linear_10336_9193" x1="14.4162" y1="110.766" x2="15.7148" y2="110.766" gradientUnits="userSpaceOnUse">
<stop stop-color="#5ADFFF"/>
<stop offset="0.90937" stop-color="#5ADFFF" stop-opacity="0"/>
</linearGradient>
<linearGradient id="paint35_linear_10336_9193" x1="30.7819" y1="115.388" x2="39.7955" y2="102.999" gradientUnits="userSpaceOnUse">
<stop stop-color="#54D3FF"/>
<stop offset="1" stop-color="#44ACFA"/>
</linearGradient>
<linearGradient id="paint36_linear_10336_9193" x1="28.6662" y1="110.766" x2="29.9648" y2="110.766" gradientUnits="userSpaceOnUse">
<stop stop-color="#5ADFFF"/>
<stop offset="0.90937" stop-color="#5ADFFF" stop-opacity="0"/>
</linearGradient>
<radialGradient id="paint37_radial_10336_9193" cx="0" cy="0" r="1" gradientUnits="userSpaceOnUse" gradientTransform="translate(77.0546 63.5071) rotate(90) scale(8.83136 4.05061)">
<stop stop-color="#B1786C"/>
<stop offset="1" stop-color="#6A4532"/>
<stop offset="1" stop-color="#735351"/>
</radialGradient>
<radialGradient id="paint38_radial_10336_9193" cx="0" cy="0" r="1" gradientUnits="userSpaceOnUse" gradientTransform="translate(77.116 62.5614) scale(2.26466 1.21518)">
<stop stop-color="#BE8370"/>
<stop offset="1" stop-color="#BE8370" stop-opacity="0"/>
</radialGradient>
<linearGradient id="paint39_linear_10336_9193" x1="73.6962" y1="68.0635" x2="84.7245" y2="79.0919" gradientUnits="userSpaceOnUse">
<stop stop-color="#6C4B40"/>
<stop offset="1" stop-color="#B16F60"/>
</linearGradient>
<linearGradient id="paint40_linear_10336_9193" x1="76.0712" y1="27.9141" x2="76.0712" y2="77.5634" gradientUnits="userSpaceOnUse">
<stop stop-color="#B67A6C"/>
<stop offset="1" stop-color="#825E59"/>
</linearGradient>
<linearGradient id="paint41_linear_10336_9193" x1="95.5048" y1="45.1448" x2="94.1688" y2="46.4808" gradientUnits="userSpaceOnUse">
<stop stop-color="#BF8B78"/>
<stop offset="1" stop-color="#BF8B78" stop-opacity="0"/>
</linearGradient>
<linearGradient id="paint42_linear_10336_9193" x1="76.0712" y1="79.8909" x2="76.0712" y2="74.3762" gradientUnits="userSpaceOnUse">
<stop stop-color="#543C46"/>
<stop offset="1" stop-color="#543C46" stop-opacity="0"/>
</linearGradient>
<radialGradient id="paint43_radial_10336_9193" cx="0" cy="0" r="1" gradientUnits="userSpaceOnUse" gradientTransform="translate(76.0712 41.9761) rotate(-90) scale(9.32981 6.2233)">
<stop offset="0.526596" stop-color="#7E4541"/>
<stop offset="1" stop-color="#7E4541" stop-opacity="0"/>
</radialGradient>
<linearGradient id="paint44_linear_10336_9193" x1="61.6313" y1="129.695" x2="90.3688" y2="129.695" gradientUnits="userSpaceOnUse">
<stop stop-color="#534264"/>
<stop offset="1" stop-color="#423B49"/>
</linearGradient>
<linearGradient id="paint45_linear_10336_9193" x1="61.6313" y1="129.81" x2="64.6759" y2="129.81" gradientUnits="userSpaceOnUse">
<stop offset="0.347025" stop-color="#695282"/>
<stop offset="1" stop-color="#695282" stop-opacity="0"/>
</linearGradient>
<linearGradient id="paint46_linear_10336_9193" x1="84.1648" y1="77.7068" x2="75.5635" y2="69.5966" gradientUnits="userSpaceOnUse">
<stop stop-color="#C38878"/>
<stop offset="1" stop-color="#A57A6D"/>
</linearGradient>
<linearGradient id="paint47_linear_10336_9193" x1="112.661" y1="66.7003" x2="77.4455" y2="29.3057" gradientUnits="userSpaceOnUse">
<stop stop-color="#D4967E" stop-opacity="0"/>
<stop offset="1" stop-color="#D4967E"/>
</linearGradient>
</defs>
</svg>
